<svg width="25" height="24" viewBox="0 0 25 24" fill="none" xmlns="http://www.w3.org/2000/svg">
<path d="M21.75 7.9999C21.7496 7.64918 21.6571 7.30471 21.4815 7.00106C21.306 6.69742 21.0537 6.44526 20.75 6.2699L13.75 2.2699C13.446 2.09437 13.1011 2.00195 12.75 2.00195C12.3989 2.00195 12.054 2.09437 11.75 2.2699L4.75 6.2699C4.44626 6.44526 4.19398 6.69742 4.01846 7.00106C3.84294 7.30471 3.75036 7.64918 3.75 7.9999V15.9999C3.75036 16.3506 3.84294 16.6951 4.01846 16.9987C4.19398 17.3024 4.44626 17.5545 4.75 17.7299L11.75 21.7299C12.054 21.9054 12.3989 21.9979 12.75 21.9979C13.1011 21.9979 13.446 21.9054 13.75 21.7299L20.75 17.7299C21.0537 17.5545 21.306 17.3024 21.4815 16.9987C21.6571 16.6951 21.7496 16.3506 21.75 15.9999V7.9999Z" stroke="#CCCCCC" stroke-width="2" stroke-linecap="round" stroke-linejoin="round"/>
<path d="M4.05005 7L12.75 12M12.75 12L21.4501 7M12.75 12V22" stroke="#CCCCCC" stroke-width="2" stroke-linecap="round" stroke-linejoin="round"/>
</svg>
