<svg width="25" height="24" viewBox="0 0 25 24" fill="none" xmlns="http://www.w3.org/2000/svg">
<path d="M21.75 8.00002C21.7496 7.6493 21.6571 7.30483 21.4815 7.00119C21.306 6.69754 21.0537 6.44539 20.75 6.27002L13.75 2.27002C13.446 2.09449 13.1011 2.00208 12.75 2.00208C12.3989 2.00208 12.054 2.09449 11.75 2.27002L4.75 6.27002C4.44626 6.44539 4.19398 6.69754 4.01846 7.00119C3.84294 7.30483 3.75036 7.6493 3.75 8.00002V16C3.75036 16.3508 3.84294 16.6952 4.01846 16.9989C4.19398 17.3025 4.44626 17.5547 4.75 17.73L11.75 21.73C12.054 21.9056 12.3989 21.998 12.75 21.998C13.1011 21.998 13.446 21.9056 13.75 21.73L20.75 17.73C21.0537 17.5547 21.306 17.3025 21.4815 16.9989C21.6571 16.6952 21.7496 16.3508 21.75 16V8.00002Z" stroke="#FF7417" stroke-width="2" stroke-linecap="round" stroke-linejoin="round"/>
<path d="M4.05005 7L12.75 12M12.75 12L21.4501 7M12.75 12V22" stroke="#FF7417" stroke-width="2" stroke-linecap="round" stroke-linejoin="round"/>
</svg>
