<svg width="25" height="24" viewBox="0 0 25 24" fill="none" xmlns="http://www.w3.org/2000/svg">
<g id="HouseSimple">
<path id="Vector" d="M21.3103 10.189L13.8103 2.68899C13.529 2.4079 13.1477 2.25 12.75 2.25C12.3524 2.25 11.971 2.4079 11.6897 2.68899L4.1897 10.189C4.04973 10.3279 3.93878 10.4933 3.8633 10.6755C3.78782 10.8577 3.74931 11.053 3.75001 11.2502V20.2502C3.75001 20.4492 3.82903 20.6399 3.96968 20.7806C4.11033 20.9212 4.3011 21.0002 4.50001 21.0002H21C21.1989 21.0002 21.3897 20.9212 21.5303 20.7806C21.671 20.6399 21.75 20.4492 21.75 20.2502V11.2502C21.7507 11.053 21.7122 10.8577 21.6367 10.6755C21.5612 10.4933 21.4503 10.3279 21.3103 10.189ZM20.25 19.5002H5.25001V11.2502L12.75 3.75024L20.25 11.2502V19.5002Z" fill="#122749"/>
</g>
</svg>
