<svg width="324" height="83" viewBox="0 0 324 83" fill="none" xmlns="http://www.w3.org/2000/svg">
<rect x="0.5" y="0.5" width="323" height="82" rx="4.5" stroke="#FF7417"/>
<path d="M23.3594 28.0312V29.4219H10.4688V28.0312H16.0625V26.6875H12.0469V21.9062H21.7969V23.2656H13.7812V25.3125H21.875V26.6875H17.7656V28.0312H23.3594ZM16.8906 30.2344C19.9375 30.2344 21.7656 31.1562 21.7812 32.8125C21.7656 34.4531 19.9375 35.3906 16.8906 35.3906C13.8125 35.3906 11.9688 34.4531 11.9688 32.8125C11.9688 31.1562 13.8125 30.2344 16.8906 30.2344ZM16.8906 31.5625C14.8281 31.5625 13.7188 32 13.7344 32.8125C13.7188 33.625 14.8281 34.0469 16.8906 34.0469C18.9062 34.0469 20.0312 33.625 20.0469 32.8125C20.0312 32 18.9062 31.5625 16.8906 31.5625ZM35.4375 21.2812V24.3438H37.4219V25.7812H35.4375V29.2344H33.7031V21.2812H35.4375ZM35.4375 29.9219V35.2031H26.2969V29.9219H35.4375ZM28 31.2812V33.8281H33.7344V31.2812H28ZM26.6562 21.9688V26.9375C28.4688 26.9219 30.375 26.7578 32.4375 26.3594L32.6406 27.7812C30.2969 28.25 28.125 28.375 26.0781 28.375H24.9062V21.9688H26.6562ZM49.2656 21.2656V24.75H51.2344V26.1875H49.2656V29.5156H47.5312V21.2656H49.2656ZM41.8594 30.0781V31.2969H47.5312V30.0781H49.2656V35.2188H40.1406V30.0781H41.8594ZM41.8594 33.8438H47.5312V32.6406H41.8594V33.8438ZM46.5156 22.5781V23.9688H38.1406V22.5781H41.4688V21.1562H43.2031V22.5781H46.5156ZM42.3281 24.4531C44.375 24.4531 45.7656 25.4375 45.7812 26.9375C45.7656 28.4375 44.375 29.4219 42.3281 29.4219C40.2656 29.4219 38.8594 28.4375 38.8594 26.9375C38.8594 25.4375 40.2656 24.4531 42.3281 24.4531ZM42.3281 25.7344C41.25 25.7344 40.5469 26.1875 40.5469 26.9375C40.5469 27.7031 41.25 28.1406 42.3281 28.1406C43.4062 28.1406 44.125 27.7031 44.125 26.9375C44.125 26.1875 43.4062 25.7344 42.3281 25.7344ZM57.125 23.2969C57.1094 25.2188 58.2344 26.9688 60.4531 27.6719L59.5156 29.0312C57.9766 28.4922 56.8984 27.4688 56.2969 26.125C55.6719 27.6641 54.4922 28.875 52.7812 29.4688L51.8594 28.0625C54.2031 27.2969 55.375 25.4062 55.375 23.375V22.0312H57.125V23.2969ZM63.7812 21.2656V29.5781H62.0469V25.4219H59.2344V24H62.0469V21.2656H63.7812ZM59 29.9531C62 29.9531 63.8281 30.9531 63.8281 32.6719C63.8281 34.3906 62 35.375 59 35.375C56.0156 35.375 54.1875 34.3906 54.2031 32.6719C54.1875 30.9531 56.0156 29.9531 59 29.9531ZM59 31.2969C57.0312 31.2969 55.9219 31.7812 55.9219 32.6719C55.9219 33.5312 57.0312 34.0156 59 34.0156C60.9688 34.0156 62.0938 33.5312 62.0938 32.6719C62.0938 31.7812 60.9688 31.2969 59 31.2969Z" fill="black"/>
<path d="M11.5312 61H10.2461L13.8691 51.1016H15.168L18.791 61H17.4922L16.5078 58.2109H12.5293L11.5312 61ZM12.8984 57.1309H16.125L14.5527 52.7012H14.4707L12.8984 57.1309ZM21.3613 51.1016V61H20.1309V51.1016H21.3613ZM30.6855 52.1953C30.6855 53.7812 31.9023 55.2852 33.6797 55.9004L33.1191 56.748C31.7451 56.2559 30.6855 55.2373 30.166 53.9863C29.6396 55.3877 28.5186 56.5088 27.0762 57.0352L26.5156 56.1875C28.3066 55.5449 29.6055 53.918 29.6055 52.209V51.6758H26.8574V50.8008H33.4062V51.6758H30.6855V52.1953ZM36.5371 57.8828V62.1074H35.457V58.7715H28.3613V57.8828H36.5371ZM36.5371 49.9531V57.2402H35.457V54.041H33.0234V53.1387H35.457V49.9531H36.5371ZM49.6348 55.6406V56.5293H44.6172V57.8281C46.9141 57.9238 48.2676 58.6758 48.2812 59.9609C48.2676 61.3145 46.709 62.0801 44.0977 62.0801C41.459 62.0801 39.9004 61.3145 39.9004 59.9609C39.9004 58.6758 41.2471 57.9238 43.5645 57.8281V56.5293H38.5605V55.6406H49.6348ZM44.0977 58.6484C42.1426 58.6621 40.9805 59.1406 40.9941 59.9609C40.9805 60.7676 42.1426 61.2461 44.0977 61.2461C46.0254 61.2461 47.2012 60.7676 47.2012 59.9609C47.2012 59.1406 46.0254 58.6621 44.0977 58.6484ZM48.6504 50.5273V51.4023H44.7949C44.8633 52.7695 46.873 53.8291 49.0195 54.0547L48.623 54.9023C46.6338 54.6631 44.7676 53.7744 44.0977 52.4141C43.4346 53.7744 41.5752 54.6631 39.5723 54.9023L39.1895 54.0547C41.2949 53.8291 43.3184 52.7695 43.4004 51.4023H39.5723V50.5273H48.6504ZM61.7754 55.5039V56.3379H58.7676V57.4453H60.3809V60.0293H53.0801V61.1914H60.7773V61.9707H52V59.2773H59.3145V58.2383H51.9863V57.4453H53.668V56.3379H50.6465V55.5039H61.7754ZM60.3398 50.3223V52.8242H53.1621V53.8633H60.5586V54.6426H52.0957V52.0996H59.2598V51.0879H52.0547V50.3223H60.3398ZM54.7207 57.4453H57.7012V56.3379H54.7207V57.4453Z" fill="#444444"/>
<path d="M73.416 61.1367C71.2148 61.1367 69.6562 59.9609 69.6562 58.3477C69.6562 57.0898 70.5859 56.0645 71.7754 55.873V55.8184C70.7363 55.5996 70.0254 54.6973 70.0254 53.6172C70.0254 52.0859 71.4609 50.9648 73.416 50.9648C75.3574 50.9648 76.793 52.0859 76.793 53.6172C76.793 54.6973 76.0684 55.5996 75.043 55.8184V55.873C76.2324 56.0645 77.1758 57.0898 77.1758 58.3477C77.1758 59.9609 75.6035 61.1367 73.416 61.1367ZM73.416 59.7285C74.5781 59.7285 75.3438 59.0996 75.3438 58.1836C75.3438 57.2539 74.5234 56.5703 73.416 56.5703C72.2949 56.5703 71.4746 57.2539 71.4883 58.1836C71.4746 59.0996 72.2402 59.7285 73.416 59.7285ZM73.416 55.2441C74.373 55.2441 75.0566 54.6426 75.0566 53.7812C75.0566 52.9473 74.3867 52.3594 73.416 52.3594C72.4316 52.3594 71.7617 52.9336 71.7617 53.7812C71.7617 54.6426 72.4453 55.2441 73.416 55.2441ZM82.166 50.9648C84.1074 50.9785 86.0215 52.127 86.0352 55.75C86.0352 59.168 84.4902 61.1367 82.0566 61.1367C80.1426 61.1367 78.8301 59.9473 78.6113 58.3066H80.375C80.5527 59.0859 81.1543 59.5918 82.0566 59.5918C83.4922 59.5918 84.2988 58.3203 84.3125 56.2012H84.2031C83.6973 57.0625 82.7539 57.5684 81.6602 57.5684C79.8965 57.5684 78.5293 56.2285 78.5156 54.3555C78.5156 52.4141 79.9648 50.9512 82.166 50.9648ZM82.1797 52.4004C81.0723 52.4004 80.2383 53.2617 80.252 54.3145C80.252 55.3809 81.0449 56.2148 82.1523 56.2148C83.2461 56.2148 84.1074 55.3262 84.0938 54.3008C84.0938 53.2891 83.2871 52.4004 82.1797 52.4004ZM89.9453 55.9277C88.5371 55.9277 87.7715 54.8887 87.7715 53.3711C87.7715 51.8672 88.5645 50.8281 89.9453 50.8281C91.3809 50.8281 92.1328 51.8672 92.1328 53.3711C92.1328 54.9023 91.3535 55.9277 89.9453 55.9277ZM89.9453 54.834C90.5605 54.834 90.8613 54.2598 90.8613 53.3711C90.8613 52.5098 90.5879 51.9082 89.9453 51.9219C89.3438 51.9219 89.0293 52.5098 89.0293 53.3711C89.0293 54.2598 89.3438 54.834 89.9453 54.834ZM96.4121 61.2598C95.0039 61.2734 94.2383 60.2207 94.2383 58.7168C94.2383 57.1992 95.0312 56.1602 96.4121 56.1602C97.834 56.1602 98.5996 57.1992 98.5996 58.7168C98.5996 60.2344 97.8203 61.2734 96.4121 61.2598ZM96.4121 60.166C97.041 60.166 97.3281 59.5918 97.3281 58.7168C97.3281 57.8418 97.0547 57.2402 96.4121 57.2539C95.8105 57.2539 95.4961 57.8555 95.4961 58.7168C95.4961 59.5918 95.8105 60.166 96.4121 60.166ZM89.043 61L95.8516 51.1016H97.2324L90.4238 61H89.043Z" fill="#FF7417"/>
<rect x="264" y="16" width="50" height="50" rx="25" fill="#FF7417"/>
<path d="M288.598 44.7715V46.2949H276.396V44.7715H281.537V42.3105H277.685V35.3672H279.56V37.4326H285.375V35.3672H287.235V42.3105H283.397V44.7715H288.598ZM279.56 40.8164H285.375V38.9268H279.56V40.8164ZM301.547 41.9297V43.4385H298.69V47.8477H296.786V43.4385H294.062V47.8477H292.143V43.4385H289.345V41.9297H301.547ZM295.409 34.957C298.266 34.957 300.272 36.1436 300.272 37.9746C300.272 39.7764 298.266 40.9043 295.409 40.9043C292.553 40.9043 290.561 39.7764 290.575 37.9746C290.561 36.1436 292.553 34.957 295.409 34.957ZM295.409 36.4512C293.622 36.4512 292.479 36.9932 292.494 37.9746C292.479 38.9121 293.622 39.4395 295.409 39.4395C297.211 39.4395 298.339 38.9121 298.339 37.9746C298.339 36.9932 297.211 36.4512 295.409 36.4512Z" fill="white"/>
</svg>
