<svg width="325" height="140" viewBox="0 0 325 140" fill="none" xmlns="http://www.w3.org/2000/svg">
<rect width="325" height="140" rx="12" fill="white"/>
<path d="M26.968 21.36H28.728V22.608C28.728 23.5787 28.5787 24.5013 28.28 25.376C27.9813 26.24 27.5227 26.9973 26.904 27.648C26.296 28.288 25.5173 28.7733 24.568 29.104L23.448 27.424C24.28 27.1467 24.952 26.7573 25.464 26.256C25.9867 25.7547 26.3653 25.1893 26.6 24.56C26.8453 23.92 26.968 23.2693 26.968 22.608V21.36ZM27.416 21.36H29.128V22.56C29.128 23.0187 29.192 23.4773 29.32 23.936C29.448 24.384 29.6453 24.8107 29.912 25.216C30.1787 25.6107 30.52 25.9627 30.936 26.272C31.3627 26.5813 31.8693 26.8373 32.456 27.04L31.336 28.688C30.4507 28.368 29.7147 27.904 29.128 27.296C28.5413 26.688 28.1093 25.9787 27.832 25.168C27.5547 24.3573 27.416 23.488 27.416 22.56V21.36ZM33.176 20.608H35.304V29.168H33.176V20.608ZM34.728 23.952H37.272V25.696H34.728V23.952ZM25.672 29.744H35.304V35.264H25.672V29.744ZM33.224 31.408H27.768V33.584H33.224V31.408ZM41.9148 21.376H43.6748V22.688C43.6748 23.68 43.5201 24.6133 43.2108 25.488C42.9121 26.3627 42.4534 27.1253 41.8348 27.776C41.2161 28.4267 40.4214 28.9173 39.4508 29.248L38.3308 27.536C39.1841 27.2693 39.8721 26.8853 40.3948 26.384C40.9174 25.8827 41.3014 25.312 41.5468 24.672C41.7921 24.032 41.9148 23.3707 41.9148 22.688V21.376ZM42.3468 21.376H44.0748V22.592C44.0748 23.2427 44.1868 23.872 44.4108 24.48C44.6348 25.0773 44.9921 25.6107 45.4828 26.08C45.9734 26.5387 46.6081 26.896 47.3868 27.152L46.2828 28.816C45.3761 28.496 44.6294 28.032 44.0428 27.424C43.4668 26.816 43.0401 26.1013 42.7628 25.28C42.4854 24.448 42.3468 23.552 42.3468 22.592V21.376ZM48.7308 20.608H50.8748V29.28H48.7308V20.608ZM45.8508 29.664C47.4188 29.664 48.6561 29.92 49.5628 30.432C50.4694 30.9333 50.9228 31.632 50.9228 32.528C50.9228 33.4453 50.4694 34.1547 49.5628 34.656C48.6561 35.168 47.4188 35.424 45.8508 35.424C44.2828 35.424 43.0454 35.168 42.1388 34.656C41.2321 34.1547 40.7788 33.4453 40.7788 32.528C40.7788 31.632 41.2321 30.9333 42.1388 30.432C43.0454 29.92 44.2828 29.664 45.8508 29.664ZM45.8508 31.312C45.2108 31.312 44.6721 31.3547 44.2348 31.44C43.7974 31.5253 43.4614 31.664 43.2268 31.856C43.0028 32.0373 42.8908 32.2613 42.8908 32.528C42.8908 32.8053 43.0028 33.04 43.2268 33.232C43.4614 33.4133 43.7974 33.552 44.2348 33.648C44.6721 33.7333 45.2108 33.776 45.8508 33.776C46.4908 33.776 47.0294 33.7333 47.4668 33.648C47.9041 33.552 48.2348 33.4133 48.4588 33.232C48.6828 33.04 48.7948 32.8053 48.7948 32.528C48.7948 32.2613 48.6828 32.0373 48.4588 31.856C48.2348 31.664 47.9041 31.5253 47.4668 31.44C47.0294 31.3547 46.4908 31.312 45.8508 31.312ZM46.0268 23.296H49.0508V25.024H46.0268V23.296ZM61.2295 24.432H64.6695V26.144H61.2295V24.432ZM63.5495 20.608H65.6935V31.408H63.5495V20.608ZM55.9015 33.456H66.0295V35.168H55.9015V33.456ZM55.9015 30.496H58.0295V34.464H55.9015V30.496ZM56.7175 22.544H58.4455V23.472C58.4455 24.4107 58.2962 25.3013 57.9975 26.144C57.6988 26.9867 57.2402 27.728 56.6215 28.368C56.0135 28.9973 55.2295 29.472 54.2695 29.792L53.2135 28.096C53.8215 27.8933 54.3442 27.632 54.7815 27.312C55.2295 26.9813 55.5922 26.608 55.8695 26.192C56.1575 25.776 56.3708 25.3387 56.5095 24.88C56.6482 24.4213 56.7175 23.952 56.7175 23.472V22.544ZM57.1655 22.544H58.8615V23.472C58.8615 24.048 58.9788 24.624 59.2135 25.2C59.4482 25.7653 59.8108 26.2827 60.3015 26.752C60.8028 27.2107 61.4428 27.5733 62.2215 27.84L61.1815 29.488C60.2642 29.1787 59.5068 28.7253 58.9095 28.128C58.3228 27.52 57.8855 26.816 57.5975 26.016C57.3095 25.2053 57.1655 24.3573 57.1655 23.472V22.544ZM53.7895 21.6H61.7575V23.296H53.7895V21.6ZM71.4242 22.944H73.1042V24.608C73.1042 25.4293 73.0136 26.2507 72.8322 27.072C72.6616 27.8933 72.4056 28.6667 72.0642 29.392C71.7229 30.1067 71.2909 30.7467 70.7682 31.312C70.2562 31.8773 69.6589 32.32 68.9762 32.64L67.7762 30.96C68.3949 30.672 68.9282 30.2933 69.3762 29.824C69.8349 29.3547 70.2136 28.832 70.5122 28.256C70.8216 27.68 71.0509 27.0827 71.2002 26.464C71.3496 25.8347 71.4242 25.216 71.4242 24.608V22.944ZM71.8722 22.944H73.5522V24.608C73.5522 25.1627 73.6269 25.7333 73.7762 26.32C73.9256 26.9067 74.1442 27.472 74.4322 28.016C74.7309 28.56 75.1042 29.056 75.5522 29.504C76.0109 29.9413 76.5442 30.2987 77.1522 30.576L75.9682 32.272C75.2856 31.952 74.6882 31.5253 74.1762 30.992C73.6749 30.448 73.2482 29.8347 72.8962 29.152C72.5549 28.4587 72.2989 27.728 72.1282 26.96C71.9576 26.1813 71.8722 25.3973 71.8722 24.608V22.944ZM68.3522 22.016H76.4962V23.776H68.3522V22.016ZM77.5682 20.608H79.7122V35.424H77.5682V20.608ZM79.2483 26.256H81.8562V28H79.2483V26.256Z" fill="black"/>
<path d="M25.8 83.824C24.7333 83.2693 24.2 82.4107 24.2 81.248C24.2 80.672 24.344 80.1493 24.632 79.68C24.9307 79.2 25.3733 78.8213 25.96 78.544C26.5573 78.256 27.2827 78.112 28.136 78.112C28.9893 78.112 29.7093 78.256 30.296 78.544C30.8933 78.8213 31.336 79.2 31.624 79.68C31.9227 80.1493 32.072 80.672 32.072 81.248C32.072 81.8347 31.928 82.352 31.64 82.8C31.352 83.2373 30.968 83.5787 30.488 83.824C31.0747 84.08 31.5333 84.4533 31.864 84.944C32.1947 85.4347 32.36 86.016 32.36 86.688C32.36 87.4133 32.1733 88.048 31.8 88.592C31.4373 89.1253 30.936 89.536 30.296 89.824C29.656 90.112 28.936 90.256 28.136 90.256C27.336 90.256 26.616 90.112 25.976 89.824C25.3467 89.536 24.8453 89.1253 24.472 88.592C24.1093 88.048 23.928 87.4133 23.928 86.688C23.928 86.016 24.0933 85.4347 24.424 84.944C24.7547 84.4427 25.2133 84.0693 25.8 83.824ZM29.896 81.568C29.896 81.0453 29.736 80.64 29.416 80.352C29.1067 80.064 28.68 79.92 28.136 79.92C27.6027 79.92 27.176 80.064 26.856 80.352C26.5467 80.64 26.392 81.0507 26.392 81.584C26.392 82.064 26.552 82.448 26.872 82.736C27.2027 83.024 27.624 83.168 28.136 83.168C28.648 83.168 29.0693 83.024 29.4 82.736C29.7307 82.4373 29.896 82.048 29.896 81.568ZM28.136 84.8C27.528 84.8 27.032 84.9547 26.648 85.264C26.2747 85.5733 26.088 86.016 26.088 86.592C26.088 87.1253 26.2693 87.5627 26.632 87.904C27.0053 88.2347 27.5067 88.4 28.136 88.4C28.7653 88.4 29.2613 88.2293 29.624 87.888C29.9867 87.5467 30.168 87.1147 30.168 86.592C30.168 86.0267 29.9813 85.5893 29.608 85.28C29.2347 84.96 28.744 84.8 28.136 84.8ZM34.2293 84.016C34.2293 82.1707 34.5599 80.7253 35.2213 79.68C35.8933 78.6347 37.0026 78.112 38.5493 78.112C40.0959 78.112 41.1999 78.6347 41.8613 79.68C42.5333 80.7253 42.8693 82.1707 42.8693 84.016C42.8693 85.872 42.5333 87.328 41.8613 88.384C41.1999 89.44 40.0959 89.968 38.5493 89.968C37.0026 89.968 35.8933 89.44 35.2213 88.384C34.5599 87.328 34.2293 85.872 34.2293 84.016ZM40.6613 84.016C40.6613 83.2267 40.6079 82.5653 40.5013 82.032C40.4053 81.488 40.2026 81.0453 39.8933 80.704C39.5946 80.3627 39.1466 80.192 38.5493 80.192C37.9519 80.192 37.4986 80.3627 37.1893 80.704C36.8906 81.0453 36.6879 81.488 36.5813 82.032C36.4853 82.5653 36.4373 83.2267 36.4373 84.016C36.4373 84.8267 36.4853 85.5093 36.5813 86.064C36.6773 86.608 36.8799 87.0507 37.1893 87.392C37.4986 87.7227 37.9519 87.888 38.5493 87.888C39.1466 87.888 39.5999 87.7227 39.9093 87.392C40.2186 87.0507 40.4213 86.608 40.5173 86.064C40.6133 85.5093 40.6613 84.8267 40.6613 84.016ZM47.377 87.648L45.505 92.144H44.065L45.105 87.648H47.377ZM48.7395 87.728V85.968L53.9715 78.48H56.5795V85.776H57.9875V87.728H56.5795V90H54.3395V87.728H48.7395ZM54.4835 80.88L51.2035 85.776H54.4835V80.88ZM59.5136 84.016C59.5136 82.1707 59.8443 80.7253 60.5056 79.68C61.1776 78.6347 62.287 78.112 63.8336 78.112C65.3803 78.112 66.4843 78.6347 67.1456 79.68C67.8176 80.7253 68.1536 82.1707 68.1536 84.016C68.1536 85.872 67.8176 87.328 67.1456 88.384C66.4843 89.44 65.3803 89.968 63.8336 89.968C62.287 89.968 61.1776 89.44 60.5056 88.384C59.8443 87.328 59.5136 85.872 59.5136 84.016ZM65.9456 84.016C65.9456 83.2267 65.8923 82.5653 65.7856 82.032C65.6896 81.488 65.487 81.0453 65.1776 80.704C64.879 80.3627 64.431 80.192 63.8336 80.192C63.2363 80.192 62.783 80.3627 62.4736 80.704C62.175 81.0453 61.9723 81.488 61.8656 82.032C61.7696 82.5653 61.7216 83.2267 61.7216 84.016C61.7216 84.8267 61.7696 85.5093 61.8656 86.064C61.9616 86.608 62.1643 87.0507 62.4736 87.392C62.783 87.7227 63.2363 87.888 63.8336 87.888C64.431 87.888 64.8843 87.7227 65.1936 87.392C65.503 87.0507 65.7056 86.608 65.8016 86.064C65.8976 85.5093 65.9456 84.8267 65.9456 84.016ZM69.9574 84.016C69.9574 82.1707 70.288 80.7253 70.9494 79.68C71.6214 78.6347 72.7307 78.112 74.2774 78.112C75.824 78.112 76.928 78.6347 77.5894 79.68C78.2614 80.7253 78.5974 82.1707 78.5974 84.016C78.5974 85.872 78.2614 87.328 77.5894 88.384C76.928 89.44 75.824 89.968 74.2774 89.968C72.7307 89.968 71.6214 89.44 70.9494 88.384C70.288 87.328 69.9574 85.872 69.9574 84.016ZM76.3894 84.016C76.3894 83.2267 76.336 82.5653 76.2294 82.032C76.1334 81.488 75.9307 81.0453 75.6214 80.704C75.3227 80.3627 74.8747 80.192 74.2774 80.192C73.68 80.192 73.2267 80.3627 72.9174 80.704C72.6187 81.0453 72.416 81.488 72.3094 82.032C72.2134 82.5653 72.1654 83.2267 72.1654 84.016C72.1654 84.8267 72.2134 85.5093 72.3094 86.064C72.4054 86.608 72.608 87.0507 72.9174 87.392C73.2267 87.7227 73.68 87.888 74.2774 87.888C74.8747 87.888 75.328 87.7227 75.6374 87.392C75.9467 87.0507 76.1494 86.608 76.2454 86.064C76.3414 85.5093 76.3894 84.8267 76.3894 84.016Z" fill="black"/>
<path d="M28.902 110L23.663 100.939H34.128L28.902 110ZM40.7868 107.478C40.8734 107.972 41.0728 108.353 41.3848 108.622C41.7054 108.891 42.1344 109.025 42.6718 109.025C43.3911 109.025 43.9198 108.743 44.2578 108.18C44.6044 107.617 44.7691 106.668 44.7518 105.333C44.5698 105.723 44.2664 106.031 43.8418 106.256C43.4171 106.473 42.9448 106.581 42.4248 106.581C41.8441 106.581 41.3241 106.464 40.8648 106.23C40.4141 105.987 40.0588 105.636 39.7988 105.177C39.5388 104.718 39.4088 104.163 39.4088 103.513C39.4088 102.586 39.6774 101.84 40.2148 101.277C40.7521 100.705 41.5148 100.419 42.5028 100.419C43.7161 100.419 44.5654 100.813 45.0508 101.602C45.5448 102.391 45.7918 103.565 45.7918 105.125C45.7918 106.217 45.6921 107.118 45.4928 107.829C45.3021 108.54 44.9728 109.081 44.5048 109.454C44.0454 109.827 43.4128 110.013 42.6068 110.013C41.7228 110.013 41.0338 109.775 40.5398 109.298C40.0458 108.821 39.7641 108.215 39.6948 107.478H40.7868ZM42.6198 105.58C43.2004 105.58 43.6771 105.402 44.0498 105.047C44.4224 104.683 44.6088 104.193 44.6088 103.578C44.6088 102.928 44.4268 102.404 44.0628 102.005C43.6988 101.606 43.1874 101.407 42.5288 101.407C41.9221 101.407 41.4368 101.598 41.0728 101.979C40.7174 102.36 40.5398 102.863 40.5398 103.487C40.5398 104.12 40.7174 104.627 41.0728 105.008C41.4281 105.389 41.9438 105.58 42.6198 105.58ZM48.9712 108.362L47.5152 111.859H46.7222L47.6712 108.362H48.9712ZM50.2314 105.203C50.2314 103.712 50.4741 102.551 50.9594 101.719C51.4447 100.878 52.2941 100.458 53.5074 100.458C54.7121 100.458 55.5571 100.878 56.0424 101.719C56.5277 102.551 56.7704 103.712 56.7704 105.203C56.7704 106.72 56.5277 107.898 56.0424 108.739C55.5571 109.58 54.7121 110 53.5074 110C52.2941 110 51.4447 109.58 50.9594 108.739C50.4741 107.898 50.2314 106.72 50.2314 105.203ZM55.6004 105.203C55.6004 104.449 55.5484 103.812 55.4444 103.292C55.3491 102.763 55.1454 102.339 54.8334 102.018C54.5301 101.697 54.0881 101.537 53.5074 101.537C52.9181 101.537 52.4674 101.697 52.1554 102.018C51.8521 102.339 51.6484 102.763 51.5444 103.292C51.4491 103.812 51.4014 104.449 51.4014 105.203C51.4014 105.983 51.4491 106.637 51.5444 107.166C51.6484 107.695 51.8521 108.119 52.1554 108.44C52.4674 108.761 52.9181 108.921 53.5074 108.921C54.0881 108.921 54.5301 108.761 54.8334 108.44C55.1454 108.119 55.3491 107.695 55.4444 107.166C55.5484 106.637 55.6004 105.983 55.6004 105.203ZM58.4945 105.203C58.4945 103.712 58.7371 102.551 59.2225 101.719C59.7078 100.878 60.5571 100.458 61.7705 100.458C62.9751 100.458 63.8201 100.878 64.3055 101.719C64.7908 102.551 65.0335 103.712 65.0335 105.203C65.0335 106.72 64.7908 107.898 64.3055 108.739C63.8201 109.58 62.9751 110 61.7705 110C60.5571 110 59.7078 109.58 59.2225 108.739C58.7371 107.898 58.4945 106.72 58.4945 105.203ZM63.8635 105.203C63.8635 104.449 63.8115 103.812 63.7075 103.292C63.6121 102.763 63.4085 102.339 63.0965 102.018C62.7931 101.697 62.3511 101.537 61.7705 101.537C61.1811 101.537 60.7305 101.697 60.4185 102.018C60.1151 102.339 59.9115 102.763 59.8075 103.292C59.7121 103.812 59.6645 104.449 59.6645 105.203C59.6645 105.983 59.7121 106.637 59.8075 107.166C59.9115 107.695 60.1151 108.119 60.4185 108.44C60.7305 108.761 61.1811 108.921 61.7705 108.921C62.3511 108.921 62.7931 108.761 63.0965 108.44C63.4085 108.119 63.6121 107.695 63.7075 107.166C63.8115 106.637 63.8635 105.983 63.8635 105.203ZM66.7576 105.203C66.7576 103.712 67.0002 102.551 67.4856 101.719C67.9709 100.878 68.8202 100.458 70.0336 100.458C71.2382 100.458 72.0832 100.878 72.5686 101.719C73.0539 102.551 73.2966 103.712 73.2966 105.203C73.2966 106.72 73.0539 107.898 72.5686 108.739C72.0832 109.58 71.2382 110 70.0336 110C68.8202 110 67.9709 109.58 67.4856 108.739C67.0002 107.898 66.7576 106.72 66.7576 105.203ZM72.1266 105.203C72.1266 104.449 72.0746 103.812 71.9706 103.292C71.8752 102.763 71.6716 102.339 71.3596 102.018C71.0562 101.697 70.6142 101.537 70.0336 101.537C69.4442 101.537 68.9936 101.697 68.6816 102.018C68.3782 102.339 68.1746 102.763 68.0706 103.292C67.9752 103.812 67.9276 104.449 67.9276 105.203C67.9276 105.983 67.9752 106.637 68.0706 107.166C68.1746 107.695 68.3782 108.119 68.6816 108.44C68.9936 108.761 69.4442 108.921 70.0336 108.921C70.6142 108.921 71.0562 108.761 71.3596 108.44C71.6716 108.119 71.8752 107.695 71.9706 107.166C72.0746 106.637 72.1266 105.983 72.1266 105.203Z" fill="#1573FE"/>
<path d="M28.941 62.735V63.736H23.754V62.735H28.941ZM30.9232 67.051C32.0238 66.167 32.8862 65.4433 33.5102 64.88C34.1342 64.308 34.6585 63.7143 35.0832 63.099C35.5165 62.475 35.7332 61.864 35.7332 61.266C35.7332 60.7027 35.5945 60.2607 35.3172 59.94C35.0485 59.6107 34.6108 59.446 34.0042 59.446C33.4148 59.446 32.9555 59.6323 32.6262 60.005C32.3055 60.369 32.1322 60.8587 32.1062 61.474H30.9622C30.9968 60.5033 31.2915 59.7537 31.8462 59.225C32.4008 58.6963 33.1158 58.432 33.9912 58.432C34.8838 58.432 35.5902 58.679 36.1102 59.173C36.6388 59.667 36.9032 60.3473 36.9032 61.214C36.9032 61.9333 36.6865 62.6353 36.2532 63.32C35.8285 63.996 35.3432 64.594 34.7972 65.114C34.2512 65.6253 33.5535 66.2233 32.7042 66.908H37.1762V67.896H30.9232V67.051ZM39.2157 68.078C38.9904 68.078 38.7997 68 38.6437 67.844C38.4877 67.688 38.4097 67.4973 38.4097 67.272C38.4097 67.0467 38.4877 66.856 38.6437 66.7C38.7997 66.544 38.9904 66.466 39.2157 66.466C39.4324 66.466 39.6144 66.544 39.7617 66.7C39.9177 66.856 39.9957 67.0467 39.9957 67.272C39.9957 67.4973 39.9177 67.688 39.7617 67.844C39.6144 68 39.4324 68.078 39.2157 68.078ZM41.1872 65.907V65.01L45.7502 58.692H47.1672V64.88H48.4672V65.907H47.1672V68H45.9972V65.907H41.1872ZM46.0492 59.927L42.5522 64.88H46.0492V59.927ZM51.27 65.478C51.3566 65.972 51.556 66.3533 51.868 66.622C52.1886 66.8907 52.6176 67.025 53.155 67.025C53.8743 67.025 54.403 66.7433 54.741 66.18C55.0876 65.6167 55.2523 64.6677 55.235 63.333C55.053 63.723 54.7496 64.0307 54.325 64.256C53.9003 64.4727 53.428 64.581 52.908 64.581C52.3273 64.581 51.8073 64.464 51.348 64.23C50.8973 63.9873 50.542 63.6363 50.282 63.177C50.022 62.7177 49.892 62.163 49.892 61.513C49.892 60.5857 50.1606 59.8403 50.698 59.277C51.2353 58.705 51.998 58.419 52.986 58.419C54.1993 58.419 55.0486 58.8133 55.534 59.602C56.028 60.3907 56.275 61.565 56.275 63.125C56.275 64.217 56.1753 65.1183 55.976 65.829C55.7853 66.5397 55.456 67.0813 54.988 67.454C54.5286 67.8267 53.896 68.013 53.09 68.013C52.206 68.013 51.517 67.7747 51.023 67.298C50.529 66.8213 50.2473 66.2147 50.178 65.478H51.27ZM53.103 63.58C53.6836 63.58 54.1603 63.4023 54.533 63.047C54.9056 62.683 55.092 62.1933 55.092 61.578C55.092 60.928 54.91 60.4037 54.546 60.005C54.182 59.6063 53.6706 59.407 53.012 59.407C52.4053 59.407 51.92 59.5977 51.556 59.979C51.2006 60.3603 51.023 60.863 51.023 61.487C51.023 62.1197 51.2006 62.6267 51.556 63.008C51.9113 63.3893 52.427 63.58 53.103 63.58ZM57.7774 60.72C57.7774 60.1307 57.9551 59.6627 58.3104 59.316C58.6658 58.9607 59.1208 58.783 59.6754 58.783C60.2301 58.783 60.6851 58.9607 61.0404 59.316C61.3958 59.6627 61.5734 60.1307 61.5734 60.72C61.5734 61.318 61.3958 61.7947 61.0404 62.15C60.6851 62.4967 60.2301 62.67 59.6754 62.67C59.1208 62.67 58.6658 62.4967 58.3104 62.15C57.9551 61.7947 57.7774 61.318 57.7774 60.72ZM65.3694 58.926L60.1044 68H58.9344L64.1994 58.926H65.3694ZM59.6754 59.511C59.3808 59.511 59.1468 59.615 58.9734 59.823C58.8088 60.0223 58.7264 60.3213 58.7264 60.72C58.7264 61.1187 58.8088 61.422 58.9734 61.63C59.1468 61.838 59.3808 61.942 59.6754 61.942C59.9701 61.942 60.2041 61.838 60.3774 61.63C60.5508 61.4133 60.6374 61.11 60.6374 60.72C60.6374 60.3213 60.5508 60.0223 60.3774 59.823C60.2041 59.615 59.9701 59.511 59.6754 59.511ZM62.7564 66.206C62.7564 65.608 62.9341 65.1357 63.2894 64.789C63.6448 64.4337 64.0998 64.256 64.6544 64.256C65.2091 64.256 65.6598 64.4337 66.0064 64.789C66.3618 65.1357 66.5394 65.608 66.5394 66.206C66.5394 66.7953 66.3618 67.2677 66.0064 67.623C65.6598 67.9783 65.2091 68.156 64.6544 68.156C64.0998 68.156 63.6448 67.9827 63.2894 67.636C62.9341 67.2807 62.7564 66.804 62.7564 66.206ZM64.6414 64.997C64.3468 64.997 64.1128 65.101 63.9394 65.309C63.7661 65.5083 63.6794 65.8073 63.6794 66.206C63.6794 66.596 63.7661 66.895 63.9394 67.103C64.1128 67.3023 64.3468 67.402 64.6414 67.402C64.9361 67.402 65.1701 67.3023 65.3434 67.103C65.5168 66.895 65.6034 66.596 65.6034 66.206C65.6034 65.8073 65.5168 65.5083 65.3434 65.309C65.1701 65.101 64.9361 64.997 64.6414 64.997Z" fill="#1573FE"/>
<path d="M169 91.4459L170.343 92.0392C171.686 92.6326 174.373 93.8192 177.059 96.0851C179.745 98.3509 182.431 101.696 185.118 104.427C187.804 107.159 190.49 109.277 193.176 105.802C195.863 102.327 198.549 93.2585 201.235 94.1485C203.922 95.0386 206.608 105.887 209.294 110.659C211.98 115.431 214.667 114.126 217.353 112.619C220.039 111.112 222.725 109.403 225.412 104.72C228.098 100.038 230.784 92.3833 233.471 89.3144C236.157 86.2456 238.843 87.7628 241.529 85.0711C244.216 82.3794 246.902 75.4787 249.588 72.8168C252.275 70.155 254.961 71.7321 257.647 75.6043C260.333 79.4766 263.02 85.644 265.706 85.4357C268.392 85.2274 271.078 78.6434 273.765 78.1357C276.451 77.6281 279.137 83.1968 281.824 88.522C284.51 93.8472 287.196 98.929 289.882 95.1767C292.569 91.4244 295.255 78.8379 297.941 72.1695C300.627 65.501 303.314 64.7505 304.657 64.3753L306 64" stroke="#1573FE" stroke-width="2" stroke-linecap="round"/>
<rect x="241.5" y="15.5" width="69" height="25" rx="6.5" stroke="#888888"/>
<path d="M255.758 25.7812C255.758 27.6133 256.797 29.6094 258.697 30.5117L257.85 31.6602C256.517 31.0381 255.546 29.8145 255.033 28.3652C254.486 29.9238 253.468 31.2432 252.053 31.8789L251.219 30.7031C253.16 29.8281 254.254 27.7227 254.254 25.7812V25.1387H251.615V23.9219H254.254V22.1172H255.771V23.9219H258.369V25.1387H255.758V25.7812ZM261.09 21.8574V26.752H262.99V28.0234H261.09V34.2168H259.572V21.8574H261.09ZM273.809 28.3379V29.541H265.141V22.8281H273.699V24.0586H266.686V25.5488H273.412V26.7383H266.686V28.3379H273.809ZM275.053 31.4688V32.7129H263.76V31.4688H275.053ZM287.402 31.4824V32.7266H276.109V31.4824H280.977V29.0762H277.354V22.6777H278.871V24.7012H284.6V22.6777H286.117V29.0762H282.48V31.4824H287.402ZM278.871 27.8457H284.6V25.918H278.871V27.8457ZM298.781 21.8574V34.2168H297.25V21.8574H298.781ZM295.09 23.1699C295.09 26.8477 293.668 29.9785 289.334 32.0293L288.541 30.8125C291.774 29.2744 293.278 27.1826 293.545 24.373H289.17V23.1699H295.09Z" fill="#888888"/>
</svg>
