<svg width="324" height="262" viewBox="0 0 324 262" fill="none" xmlns="http://www.w3.org/2000/svg">
<rect x="0.5" y="0.5" width="323" height="261" rx="4.5" stroke="#FF7417"/>
<rect x="16" y="25.5" width="50" height="25" rx="12.5" fill="#FF7417"/>
<path d="M29.0664 42.5L29.4902 39.9434H27.3574L26.9336 42.5H25.5801L26.0039 39.9434H24.6094L24.8281 38.6035H26.2227L26.5645 36.498H25.1836L25.4023 35.1582H26.7969L27.207 32.6016H28.5605L28.1504 35.1582H30.2832L30.6934 32.6016H32.0332L31.623 35.1582H33.0176L32.7852 36.498H31.3906L31.0488 38.6035H32.4434L32.2246 39.9434H30.8301L30.4062 42.5H29.0664ZM27.5762 38.6035H29.709L30.0508 36.498H27.918L27.5762 38.6035ZM44.8301 40.9824V42.2266H33.5371V40.9824H38.4043V38.5762H34.7812V32.1777H36.2988V34.2012H42.0273V32.1777H43.5449V38.5762H39.9082V40.9824H44.8301ZM36.2988 37.3457H42.0273V35.418H36.2988V37.3457ZM55.9863 31.3574V38.8359H54.4688V36.2793H52.7051V35.0215H54.4688V31.3574H55.9863ZM55.9863 39.3965V43.5664H47.7695V39.3965H55.9863ZM49.2871 40.5996V42.3359H54.4961V40.5996H49.2871ZM52.9102 32.5059V33.7363H45.6641V32.5059H48.5352V31.2617H50.0391V32.5059H52.9102ZM49.2871 34.2148C51.0098 34.2148 52.2129 35.1309 52.2266 36.4297C52.2129 37.7695 51.0098 38.6445 49.2871 38.6445C47.5781 38.6445 46.3613 37.7695 46.3613 36.4297C46.3613 35.1309 47.5781 34.2148 49.2871 34.2148ZM49.2871 35.3633C48.3984 35.3633 47.8105 35.7734 47.8105 36.4297C47.8105 37.1133 48.3984 37.5098 49.2871 37.5098C50.1758 37.5098 50.7637 37.1133 50.7637 36.4297C50.7637 35.7734 50.1758 35.3633 49.2871 35.3633Z" fill="white"/>
<path d="M31.3906 58.6016V68.8945H29.2031V68.1719H25.9023V66.8438H29.2031V58.6016H31.3906ZM16.5664 64.9688C19.9844 64.9688 24.2422 64.9297 28.0312 64.5586L28.1484 65.9258C26.5371 66.1504 24.877 66.2871 23.2461 66.3555V68.9141H21.0977V66.4531C19.584 66.4922 18.1289 66.502 16.8008 66.4922L16.5664 64.9688ZM31.3906 69.4414V73.4062H21.3516V74.5391H31.8594V76.082H19.2227V71.9805H29.2422V70.9258H19.1445V69.4414H31.3906ZM22.2695 58.875C24.8867 58.875 26.6836 59.9297 26.6836 61.5312C26.6836 63.1719 24.8867 64.168 22.2695 64.168C19.5938 64.168 17.8164 63.1719 17.8164 61.5312C17.8164 59.9297 19.5938 58.875 22.2695 58.875ZM22.2695 60.3203C20.7852 60.3203 19.8672 60.7891 19.8867 61.5312C19.8672 62.2734 20.7852 62.7227 22.2695 62.7227C23.7148 62.7227 24.6523 62.2734 24.6523 61.5312C24.6523 60.7891 23.7148 60.3203 22.2695 60.3203ZM44.9453 60.3594V74.5H42.3867V62.8398H42.3086L39.0078 64.9492V62.625L42.5039 60.3594H44.9453ZM53.6758 74.6953C50.9219 74.6758 48.1484 73.0352 48.168 67.8203C48.168 62.9766 50.375 60.1641 53.832 60.1641C56.5664 60.1641 58.4414 61.8828 58.7539 64.168H56.2344C55.9805 63.0938 55.1211 62.3711 53.832 62.3711C51.7812 62.3711 50.6289 64.1875 50.6289 67.1562H50.7656C51.4883 65.9453 52.8555 65.2227 54.3984 65.2227C56.9375 65.2227 58.8906 67.1367 58.8906 69.8125C58.8906 72.625 56.8008 74.7148 53.6758 74.6953ZM53.6758 72.6445C55.2578 72.6445 56.4297 71.4141 56.4297 69.8711C56.4297 68.3672 55.2773 67.1562 53.7148 67.1562C52.1328 67.1562 50.9219 68.4062 50.9023 69.8906C50.9219 71.375 52.0742 72.6445 53.6758 72.6445ZM63.2852 73.1133L61.6445 78.582H59.7891L60.8047 73.1133H63.2852ZM70.5898 74.6953C67.4453 74.6953 65.2188 73.0156 65.2188 70.7109C65.2188 68.9141 66.5469 67.4492 68.2461 67.1758V67.0977C66.7617 66.7852 65.7461 65.4961 65.7461 63.9531C65.7461 61.7656 67.7969 60.1641 70.5898 60.1641C73.3633 60.1641 75.4141 61.7656 75.4141 63.9531C75.4141 65.4961 74.3789 66.7852 72.9141 67.0977V67.1758C74.6133 67.4492 75.9609 68.9141 75.9609 70.7109C75.9609 73.0156 73.7148 74.6953 70.5898 74.6953ZM70.5898 72.6836C72.25 72.6836 73.3438 71.7852 73.3438 70.4766C73.3438 69.1484 72.1719 68.1719 70.5898 68.1719C68.9883 68.1719 67.8164 69.1484 67.8359 70.4766C67.8164 71.7852 68.9102 72.6836 70.5898 72.6836ZM70.5898 66.2773C71.957 66.2773 72.9336 65.418 72.9336 64.1875C72.9336 62.9961 71.9766 62.1562 70.5898 62.1562C69.1836 62.1562 68.2266 62.9766 68.2266 64.1875C68.2266 65.418 69.2031 66.2773 70.5898 66.2773ZM83.2852 74.6953C79.8867 74.6953 77.8555 72.0586 77.8555 67.4297C77.8555 62.8203 79.8867 60.1641 83.2852 60.1641C86.6641 60.1641 88.7148 62.8203 88.7148 67.4297C88.7148 72.0586 86.6836 74.6953 83.2852 74.6953ZM83.2852 72.5664C85.0625 72.5664 86.1562 70.8281 86.1562 67.4297C86.1562 64.0508 85.043 62.2734 83.2852 62.2734C81.5273 62.2734 80.4141 64.0508 80.4141 67.4297C80.4141 70.8281 81.5078 72.5664 83.2852 72.5664ZM96.0586 74.6953C92.6602 74.6953 90.6289 72.0586 90.6289 67.4297C90.6289 62.8203 92.6602 60.1641 96.0586 60.1641C99.4375 60.1641 101.488 62.8203 101.488 67.4297C101.488 72.0586 99.457 74.6953 96.0586 74.6953ZM96.0586 72.5664C97.8359 72.5664 98.9297 70.8281 98.9297 67.4297C98.9297 64.0508 97.8164 62.2734 96.0586 62.2734C94.3008 62.2734 93.1875 64.0508 93.1875 67.4297C93.1875 70.8281 94.2812 72.5664 96.0586 72.5664ZM117.836 58.6016V71.9609H115.648V70.418H112.191V68.8945H115.648V58.6016H117.836ZM118.246 74.1289V75.8867H105.297V70.6719H107.465V74.1289H118.246ZM102.953 66.5312C106.215 66.5117 110.59 66.4727 114.34 66.0039L114.457 67.5664C113.002 67.8105 111.498 67.9766 110.004 68.0742V71.4727H107.836V68.1914C106.186 68.2598 104.613 68.2695 103.227 68.2695L102.953 66.5312ZM108.715 59.2461C111.293 59.2461 113.09 60.5156 113.109 62.3711C113.09 64.2656 111.293 65.4766 108.715 65.4766C106.098 65.4766 104.301 64.2656 104.301 62.3711C104.301 60.5156 106.098 59.2461 108.715 59.2461ZM108.715 60.8477C107.309 60.8477 106.352 61.4141 106.352 62.3711C106.352 63.3281 107.309 63.8945 108.715 63.8945C110.062 63.8945 111.02 63.3281 111.039 62.3711C111.02 61.4141 110.062 60.8477 108.715 60.8477ZM140.258 58.582V76.2383H138.188V67.2344H136.195V75.3398H134.203V58.9141H136.195V65.4961H138.188V58.582H140.258ZM132.211 60.6719V62.4297H127.797V70.2812C129.721 70.2617 131.303 70.1641 133.09 69.832L133.246 71.6094C131.117 72.0391 129.262 72.0977 126.801 72.1172H125.609V60.6719H132.211Z" fill="black"/>
<path d="M301.192 54.4423L294.942 60.6923C294.884 60.7504 294.815 60.7964 294.739 60.8278C294.663 60.8593 294.582 60.8755 294.5 60.8755C294.418 60.8755 294.336 60.8593 294.261 60.8278C294.185 60.7964 294.116 60.7504 294.058 60.6923C294 60.6342 293.954 60.5653 293.922 60.4894C293.891 60.4135 293.875 60.3322 293.875 60.2501C293.875 60.168 293.891 60.0867 293.922 60.0108C293.954 59.9349 294 59.866 294.058 59.8079L299.866 54.0001L294.058 48.1923C293.94 48.075 293.875 47.916 293.875 47.7501C293.875 47.5843 293.94 47.4252 294.058 47.3079C294.175 47.1906 294.334 47.1248 294.5 47.1248C294.666 47.1248 294.825 47.1906 294.942 47.3079L301.192 53.5579C301.25 53.616 301.296 53.6849 301.328 53.7608C301.359 53.8366 301.375 53.918 301.375 54.0001C301.375 54.0822 301.359 54.1636 301.328 54.2394C301.296 54.3153 301.25 54.3842 301.192 54.4423Z" fill="black"/>
<rect x="16" y="98.5" width="75" height="22" rx="11" fill="#EEEEEE"/>
<path d="M31.9492 109.656V110.418H22.4102V109.656H26.7227V108.613H23.6523V106.129H29.793V105.086H23.6172V104.359H30.7188V106.82H24.5664V107.887H30.9414V108.613H27.625V109.656H31.9492ZM27.6484 111.18C27.6484 112.492 29.2773 113.453 31.1875 113.699L30.8477 114.402C29.2598 114.174 27.8066 113.488 27.1797 112.398C26.5527 113.488 25.0996 114.174 23.5117 114.402L23.1719 113.699C25.0703 113.453 26.7109 112.492 26.7109 111.18V110.969H27.6484V111.18ZM41.7109 104.031V114.449H40.8203V104.031H41.7109ZM39.5781 104.289V113.91H38.6992V108.789H36.4258V108.016H38.6992V104.289H39.5781ZM37.1289 105.32V106.082H34.0938V111.168C35.5938 111.162 36.543 111.098 37.668 110.852L37.7617 111.637C36.5547 111.883 35.5352 111.93 33.8594 111.941H33.2031V105.32H37.1289ZM51.6016 113.453V114.227H44.3945V111.227H45.3203V113.453H51.6016ZM52.6914 109.621V110.395H43.1641V109.621H47.4531V107.852H48.3555V109.621H52.6914ZM48.3672 104.781C48.3672 106.258 50.1953 107.512 52.0234 107.805L51.6602 108.531C50.0957 108.227 48.5547 107.342 47.9102 106.082C47.2656 107.348 45.7363 108.238 44.1602 108.531L43.7852 107.805C45.6133 107.5 47.4414 106.246 47.4414 104.781V104.312H48.3672V104.781ZM58.7383 105.836V106.586H53.5117V105.836H55.6797V104.348H56.5938V105.836H58.7383ZM56.125 107.289C57.4375 107.289 58.375 108.273 58.3867 109.656C58.375 111.051 57.4375 112.047 56.125 112.047C54.8242 112.047 53.8867 111.051 53.8867 109.656C53.8867 108.273 54.8242 107.289 56.125 107.289ZM56.125 108.062C55.3047 108.074 54.707 108.742 54.707 109.656C54.707 110.582 55.3047 111.25 56.125 111.238C56.957 111.25 57.5664 110.582 57.5664 109.656C57.5664 108.742 56.957 108.074 56.125 108.062ZM62.4062 104.031V114.449H61.5273V109.188H60.1445V113.934H59.2773V104.289H60.1445V108.426H61.5273V104.031H62.4062ZM73.4453 112.352V113.113H63.9062V112.352H68.1953V110.102H65.0312V104.77H65.957V106.656H71.3711V104.77H72.2734V110.102H69.0977V112.352H73.4453ZM65.957 109.352H71.3711V107.406H65.957V109.352ZM82.9141 104.031V110.348H81.9883V107.969H80.2188V107.207H81.9883V104.031H82.9141ZM82.9141 110.91V114.309H76.1055V110.91H82.9141ZM77.0195 111.648V113.559H82.0117V111.648H77.0195ZM80.3711 105.133V105.883H74.2891V105.133H76.8789V103.938H77.7812V105.133H80.3711ZM77.3242 106.422C78.7422 106.422 79.7383 107.184 79.75 108.273C79.7383 109.398 78.7422 110.137 77.3242 110.137C75.9062 110.137 74.9102 109.398 74.9102 108.273C74.9102 107.184 75.9062 106.422 77.3242 106.422ZM77.3242 107.137C76.4219 107.137 75.7891 107.605 75.7891 108.273C75.7891 108.965 76.4219 109.422 77.3242 109.434C78.2266 109.422 78.8594 108.965 78.8594 108.273C78.8594 107.605 78.2266 107.137 77.3242 107.137Z" fill="#666666"/>
<rect x="97" y="98.5" width="75" height="22" rx="11" fill="#EEEEEE"/>
<path d="M109.074 113.5H106.438V105.016H109.18C111.652 105.016 113.117 106.609 113.117 109.246C113.117 111.895 111.652 113.5 109.074 113.5ZM107.492 112.562H109.004C111.09 112.562 112.086 111.309 112.086 109.246C112.086 107.195 111.09 105.953 109.109 105.953H107.492V112.562ZM114.664 113.5V105.016H117.641C119.422 105.016 120.254 106.012 120.254 107.266C120.254 108.355 119.609 108.848 118.871 109.047V109.129C119.656 109.176 120.594 109.902 120.594 111.25C120.594 112.527 119.75 113.5 117.746 113.5H114.664ZM117.734 112.562C119.059 112.562 119.574 111.977 119.574 111.238C119.574 110.371 118.883 109.645 117.793 109.645H115.719V112.562H117.734ZM117.605 108.73C118.52 108.73 119.246 108.168 119.246 107.277C119.246 106.539 118.754 105.953 117.641 105.953H115.719V108.73H117.605ZM130.016 113.453V114.227H122.809V111.227H123.734V113.453H130.016ZM131.105 109.621V110.395H121.578V109.621H125.867V107.852H126.77V109.621H131.105ZM126.781 104.781C126.781 106.258 128.609 107.512 130.438 107.805L130.074 108.531C128.51 108.227 126.969 107.342 126.324 106.082C125.68 107.348 124.15 108.238 122.574 108.531L122.199 107.805C124.027 107.5 125.855 106.246 125.855 104.781V104.312H126.781V104.781ZM137.152 105.836V106.586H131.926V105.836H134.094V104.348H135.008V105.836H137.152ZM134.539 107.289C135.852 107.289 136.789 108.273 136.801 109.656C136.789 111.051 135.852 112.047 134.539 112.047C133.238 112.047 132.301 111.051 132.301 109.656C132.301 108.273 133.238 107.289 134.539 107.289ZM134.539 108.062C133.719 108.074 133.121 108.742 133.121 109.656C133.121 110.582 133.719 111.25 134.539 111.238C135.371 111.25 135.98 110.582 135.98 109.656C135.98 108.742 135.371 108.074 134.539 108.062ZM140.82 104.031V114.449H139.941V109.188H138.559V113.934H137.691V104.289H138.559V108.426H139.941V104.031H140.82ZM151.859 112.352V113.113H142.32V112.352H146.609V110.102H143.445V104.77H144.371V106.656H149.785V104.77H150.688V110.102H147.512V112.352H151.859ZM144.371 109.352H149.785V107.406H144.371V109.352ZM161.328 104.031V110.348H160.402V107.969H158.633V107.207H160.402V104.031H161.328ZM161.328 110.91V114.309H154.52V110.91H161.328ZM155.434 111.648V113.559H160.426V111.648H155.434ZM158.785 105.133V105.883H152.703V105.133H155.293V103.938H156.195V105.133H158.785ZM155.738 106.422C157.156 106.422 158.152 107.184 158.164 108.273C158.152 109.398 157.156 110.137 155.738 110.137C154.32 110.137 153.324 109.398 153.324 108.273C153.324 107.184 154.32 106.422 155.738 106.422ZM155.738 107.137C154.836 107.137 154.203 107.605 154.203 108.273C154.203 108.965 154.836 109.422 155.738 109.434C156.641 109.422 157.273 108.965 157.273 108.273C157.273 107.605 156.641 107.137 155.738 107.137Z" fill="#666666"/>
<line x1="16" y1="136" x2="305" y2="136" stroke="#D5D5D5"/>
<g clip-path="url(#clip0_10_254)">
<path d="M29.375 168.766V170.188H16.4688V168.766H22.0312V166.016H17.8906V158.703H19.625V161.016H26.1719V158.703H27.9062V166.016H23.75V168.766H29.375ZM19.625 164.609H26.1719V162.406H19.625V164.609ZM35.3594 160.312C35.3594 162.047 36.4844 163.672 38.6875 164.344L37.8594 165.703C36.2734 165.211 35.1484 164.203 34.5312 162.922C33.9062 164.406 32.7109 165.586 31.0156 166.156L30.1406 164.781C32.4219 164.031 33.6094 162.203 33.6094 160.328V160.156H30.625V158.75H38.2969V160.156H35.3594V160.312ZM41.4375 157.766V161.156H43.4062V162.578H41.4375V166.188H39.7031V157.766H41.4375ZM36.8438 166.5C39.7656 166.5 41.5625 167.484 41.5781 169.172C41.5625 170.875 39.7656 171.875 36.8438 171.875C33.8906 171.875 32.0625 170.875 32.0625 169.172C32.0625 167.484 33.8906 166.5 36.8438 166.5ZM36.8438 167.859C34.9062 167.859 33.7969 168.312 33.7969 169.172C33.7969 170.047 34.9062 170.516 36.8438 170.516C38.7812 170.516 39.8594 170.047 39.8594 169.172C39.8594 168.312 38.7812 167.859 36.8438 167.859ZM52.3281 161.469C52.3281 163.75 53.125 166.125 55.0312 167.328L54.0781 168.656C52.8047 167.891 51.9766 166.57 51.5156 165.016C51 166.727 50.0938 168.172 48.7656 168.984L47.6875 167.688C49.7344 166.438 50.6562 163.953 50.6562 161.547V159.016H52.3281V161.469ZM60.1094 157.766V171.891H58.4375V157.766H60.1094ZM57.1719 158.016V171.203H55.5312V164.062H53.5156V162.625H55.5312V158.016H57.1719ZM74.6406 165.984V167.359H69.0156V171.891H67.2969V167.359H61.7344V165.984H74.6406ZM65.0156 158.328V160.062H71.3281V158.328H73.0781V164.516H63.2969V158.328H65.0156ZM65.0156 163.109H71.3281V161.438H65.0156V163.109ZM84.4219 161.156C84.4062 163.672 85.6719 166.234 87.8594 167.281L86.7969 168.672C85.2656 167.898 84.1641 166.406 83.5625 164.609C82.9453 166.531 81.7891 168.125 80.1719 168.938L79.1094 167.547C81.375 166.469 82.6719 163.766 82.6875 161.156V158.906H84.4219V161.156ZM90.4375 157.766V163.297H92.6094V164.781H90.4375V171.891H88.7031V157.766H90.4375ZM104.344 157.766V161.484H106.312V162.938H104.344V166.781H102.609V157.766H104.344ZM99.7812 166.906C102.672 166.906 104.5 167.828 104.5 169.391C104.5 170.938 102.672 171.875 99.7812 171.875C96.8438 171.875 95.0469 170.938 95.0625 169.391C95.0469 167.828 96.8438 166.906 99.7812 166.906ZM99.7812 168.234C97.8438 168.234 96.7656 168.609 96.7812 169.391C96.7656 170.141 97.8438 170.562 99.7812 170.562C101.688 170.562 102.766 170.141 102.766 169.391C102.766 168.609 101.688 168.234 99.7812 168.234ZM101.594 159.203V160.562H93.2188V159.203H96.5469V157.672H98.2812V159.203H101.594ZM97.4062 161.125C99.4531 161.125 100.844 162.141 100.859 163.656C100.844 165.172 99.4531 166.172 97.4062 166.172C95.3438 166.172 93.9375 165.172 93.9375 163.656C93.9375 162.141 95.3438 161.125 97.4062 161.125ZM97.4062 162.406C96.3281 162.406 95.625 162.875 95.625 163.656C95.625 164.422 96.3281 164.859 97.4062 164.859C98.4844 164.859 99.2031 164.422 99.2031 163.656C99.2031 162.875 98.4844 162.406 97.4062 162.406Z" fill="black"/>
<path d="M237.996 168.189H228.387V167.275H237.996V168.189ZM233.713 167.533H232.623V164.826H233.713V167.533ZM230.602 161.521H235.758V159.711H236.854V165.119H229.482V159.711H230.602V161.521ZM235.758 164.217V162.418H230.602V164.217H235.758ZM242.215 160.941C242.215 161.586 242.096 162.191 241.857 162.758C241.623 163.32 241.283 163.812 240.838 164.234C240.393 164.652 239.861 164.969 239.244 165.184L238.682 164.299C239.217 164.115 239.682 163.854 240.076 163.514C240.475 163.17 240.781 162.777 240.996 162.336C241.211 161.891 241.318 161.426 241.318 160.941V160.139H242.215V160.941ZM242.42 160.936C242.42 161.377 242.521 161.801 242.725 162.207C242.928 162.609 243.217 162.965 243.592 163.273C243.971 163.578 244.422 163.816 244.945 163.988L244.418 164.861C243.816 164.662 243.299 164.369 242.865 163.982C242.432 163.596 242.098 163.141 241.863 162.617C241.633 162.094 241.518 161.533 241.518 160.936V160.139H242.42V160.936ZM244.693 160.648H239.004V159.746H244.693V160.648ZM247.008 165.295H245.9V158.99H247.008V165.295ZM248.537 162.512H246.697V161.592H248.537V162.512ZM243.615 165.553C244.334 165.553 244.955 165.629 245.479 165.781C246.006 165.934 246.408 166.156 246.686 166.449C246.963 166.742 247.102 167.094 247.102 167.504C247.102 167.914 246.963 168.266 246.686 168.559C246.408 168.855 246.006 169.082 245.479 169.238C244.955 169.398 244.334 169.479 243.615 169.479C242.893 169.479 242.266 169.398 241.734 169.238C241.207 169.082 240.801 168.855 240.516 168.559C240.234 168.266 240.094 167.914 240.094 167.504C240.094 167.094 240.234 166.742 240.516 166.449C240.801 166.156 241.207 165.934 241.734 165.781C242.266 165.629 242.893 165.553 243.615 165.553ZM243.615 166.432C243.119 166.432 242.689 166.473 242.326 166.555C241.963 166.637 241.686 166.758 241.494 166.918C241.307 167.078 241.213 167.273 241.213 167.504C241.213 167.73 241.307 167.928 241.494 168.096C241.686 168.26 241.961 168.385 242.32 168.471C242.68 168.557 243.111 168.6 243.615 168.6C244.127 168.6 244.561 168.557 244.916 168.471C245.275 168.385 245.549 168.26 245.736 168.096C245.924 167.928 246.018 167.73 246.018 167.504C246.018 167.273 245.924 167.078 245.736 166.918C245.549 166.758 245.273 166.637 244.91 166.555C244.551 166.473 244.119 166.432 243.615 166.432ZM257.121 160.438H250.33V159.529H257.121V160.438ZM258.738 164.27H249.129V163.361H258.738V164.27ZM257.52 160.332C257.52 160.938 257.5 161.486 257.461 161.979C257.422 162.471 257.33 163.033 257.186 163.666L256.072 163.613C256.182 163.176 256.26 162.766 256.307 162.383C256.354 161.996 256.383 161.658 256.395 161.369C256.406 161.076 256.412 160.73 256.412 160.332V159.529H257.52V160.332ZM257.537 169.361H250.295V165.605H257.537V169.361ZM251.396 168.459H256.436V166.479H251.396V168.459ZM261.996 159.641C262.453 159.641 262.865 159.748 263.232 159.963C263.6 160.174 263.887 160.471 264.094 160.854C264.305 161.232 264.41 161.666 264.41 162.154C264.41 162.639 264.305 163.068 264.094 163.443C263.887 163.818 263.6 164.111 263.232 164.322C262.865 164.533 262.453 164.639 261.996 164.639C261.531 164.639 261.115 164.533 260.748 164.322C260.385 164.111 260.102 163.818 259.898 163.443C259.695 163.068 259.594 162.639 259.594 162.154C259.594 161.666 259.695 161.232 259.898 160.854C260.105 160.471 260.391 160.174 260.754 159.963C261.117 159.748 261.531 159.641 261.996 159.641ZM261.996 160.602C261.73 160.602 261.49 160.668 261.275 160.801C261.061 160.93 260.893 161.111 260.771 161.346C260.654 161.576 260.596 161.846 260.596 162.154C260.596 162.451 260.654 162.719 260.771 162.957C260.893 163.195 261.061 163.381 261.275 163.514C261.49 163.646 261.73 163.713 261.996 163.713C262.266 163.713 262.506 163.646 262.717 163.514C262.932 163.381 263.098 163.195 263.215 162.957C263.336 162.719 263.396 162.451 263.396 162.154C263.396 161.846 263.336 161.574 263.215 161.34C263.098 161.102 262.934 160.92 262.723 160.795C262.512 160.666 262.27 160.602 261.996 160.602ZM268.453 165.26H267.393V159.002H268.453V165.26ZM267.715 162.559H265.805V161.656H267.715V162.559ZM266.18 165.195H265.137V159.195H266.18V165.195ZM268.453 169.49H267.357V166.695H261.316V165.805H268.453V169.49ZM280.84 161.791H277.904V160.871H280.84V161.791ZM280.881 164.029H277.904V163.121H280.881V164.029ZM281.555 166.766H280.441V159.002H281.555V166.766ZM281.789 169.285H274.693V168.365H281.789V169.285ZM275.818 168.846H274.693V165.998H275.818V168.846ZM274.412 161.475H277.049V159.699H278.145V165.02H273.305V159.699H274.412V161.475ZM277.049 164.117V162.342H274.412V164.117H277.049ZM291 161.756H288.252V160.871H291V161.756ZM290.924 163.941H288.17V163.033H290.924V163.941ZM291.926 165.225H290.812V159.002H291.926V165.225ZM288.645 159.758C288.645 160.66 288.451 161.475 288.064 162.201C287.678 162.928 287.119 163.549 286.389 164.064C285.662 164.576 284.783 164.982 283.752 165.283L283.295 164.404C284.193 164.15 284.951 163.82 285.568 163.414C286.189 163.004 286.658 162.533 286.975 162.002C287.295 161.471 287.455 160.895 287.455 160.273V159.758H288.645ZM288.217 160.672H283.84V159.758H288.217V160.672ZM288.469 165.336C289.176 165.336 289.795 165.42 290.326 165.588C290.861 165.752 291.271 165.986 291.557 166.291C291.846 166.596 291.99 166.961 291.99 167.387C291.99 167.809 291.846 168.176 291.557 168.488C291.271 168.797 290.861 169.033 290.326 169.197C289.795 169.361 289.176 169.443 288.469 169.443C287.758 169.443 287.137 169.361 286.605 169.197C286.074 169.033 285.662 168.797 285.369 168.488C285.08 168.176 284.936 167.809 284.936 167.387C284.936 166.961 285.08 166.596 285.369 166.291C285.662 165.986 286.074 165.752 286.605 165.588C287.137 165.42 287.758 165.336 288.469 165.336ZM288.469 166.215C287.977 166.207 287.545 166.25 287.174 166.344C286.807 166.438 286.523 166.574 286.324 166.754C286.129 166.93 286.031 167.141 286.031 167.387C286.031 167.629 286.129 167.838 286.324 168.014C286.523 168.186 286.805 168.318 287.168 168.412C287.535 168.506 287.969 168.553 288.469 168.553C288.961 168.553 289.387 168.506 289.746 168.412C290.109 168.318 290.389 168.186 290.584 168.014C290.783 167.838 290.883 167.629 290.883 167.387C290.883 167.141 290.783 166.93 290.584 166.754C290.389 166.574 290.109 166.438 289.746 166.344C289.387 166.25 288.961 166.207 288.469 166.215Z" fill="#9799A5"/>
<path d="M302.678 166.878L298.133 162.712C298.091 162.673 298.057 162.627 298.035 162.576C298.012 162.526 298 162.472 298 162.417C298 162.362 298.012 162.308 298.035 162.257C298.057 162.207 298.091 162.161 298.133 162.122C298.175 162.083 298.226 162.053 298.281 162.032C298.336 162.011 298.395 162 298.455 162C298.514 162 298.574 162.011 298.629 162.032C298.684 162.053 298.734 162.083 298.776 162.122L303 165.994L307.224 162.122C307.309 162.044 307.425 162 307.545 162C307.666 162 307.782 162.044 307.867 162.122C307.952 162.2 308 162.306 308 162.417C308 162.527 307.952 162.633 307.867 162.712L303.322 166.878C303.279 166.917 303.229 166.947 303.174 166.968C303.119 166.989 303.06 167 303 167C302.94 167 302.881 166.989 302.826 166.968C302.771 166.947 302.721 166.917 302.678 166.878Z" fill="#9799A5"/>
</g>
<g clip-path="url(#clip1_10_254)">
<path d="M26.0762 202.46H24.7842V195.405H26.0762V202.46ZM27.8604 199.391H25.7139V198.345H27.8604V199.391ZM26.0762 207.505H18.249V203.021H26.0762V207.505ZM19.5273 206.452H24.791V204.06H19.5273V206.452ZM19.8965 196.13C20.5163 196.121 21.0723 196.239 21.5645 196.485C22.0612 196.731 22.4508 197.078 22.7334 197.524C23.0205 197.966 23.1641 198.47 23.1641 199.035C23.1641 199.6 23.0205 200.102 22.7334 200.539C22.4508 200.972 22.0612 201.314 21.5645 201.564C21.0723 201.811 20.5163 201.938 19.8965 201.947C19.2767 201.938 18.7184 201.811 18.2217 201.564C17.7295 201.314 17.3421 200.972 17.0596 200.539C16.777 200.102 16.6357 199.6 16.6357 199.035C16.6357 198.47 16.777 197.966 17.0596 197.524C17.3421 197.078 17.7295 196.731 18.2217 196.485C18.7139 196.239 19.2721 196.121 19.8965 196.13ZM19.8965 197.224C19.5182 197.219 19.1764 197.292 18.8711 197.442C18.5703 197.593 18.3333 197.807 18.1602 198.085C17.9915 198.358 17.9072 198.675 17.9072 199.035C17.9072 199.391 17.9915 199.707 18.1602 199.985C18.3333 200.259 18.5703 200.471 18.8711 200.621C19.1764 200.767 19.5182 200.844 19.8965 200.854C20.2747 200.844 20.6165 200.767 20.9219 200.621C21.2272 200.471 21.4642 200.259 21.6328 199.985C21.806 199.707 21.8926 199.391 21.8926 199.035C21.8926 198.675 21.806 198.358 21.6328 198.085C21.4642 197.807 21.2272 197.593 20.9219 197.442C20.6165 197.292 20.2747 197.219 19.8965 197.224Z" fill="#9799A5"/>
<path d="M251.523 201.621V203.332C252.443 203.285 253.369 203.203 254.242 203.074L254.348 204.035C251.969 204.469 249.426 204.492 247.562 204.492L247.398 203.438C248.225 203.432 249.197 203.426 250.223 203.391V201.621H251.523ZM253.809 197.25V198.305H251.547C251.605 199.436 252.502 200.455 254.102 200.859L253.504 201.879C252.25 201.539 251.354 200.807 250.879 199.863C250.41 200.859 249.525 201.621 248.266 201.961L247.645 200.977C249.244 200.537 250.123 199.494 250.199 198.305H247.961V197.25H250.223V196.043H251.523V197.25H253.809ZM256.176 195.949V206.555H254.875V195.949H256.176ZM266.84 195.949V206.543H265.598V201.141H264.402V206.004H263.207V196.148H264.402V200.098H265.598V195.949H266.84ZM262.012 197.203V198.258H259.363V202.969C260.518 202.957 261.467 202.898 262.539 202.699L262.633 203.766C261.355 204.023 260.242 204.059 258.766 204.07H258.051V197.203H262.012ZM274.738 197.016V205.5H273.203V198.504H273.156L271.176 199.77V198.375L273.273 197.016H274.738ZM280.258 198.457C280.258 199.723 281.137 200.941 282.812 201.457L282.18 202.477C280.979 202.113 280.111 201.346 279.625 200.367C279.156 201.422 278.283 202.254 277.047 202.652L276.414 201.633C278.078 201.105 278.957 199.816 278.957 198.457V198.293H276.742V197.262H278.957V196.02H280.27V197.262H282.473V198.293H280.258V198.457ZM285.32 195.961V203.824H284.02V200.156H282.121V199.113H284.02V195.961H285.32ZM285.59 205.277V206.332H278.371V203.145H279.672V205.277H285.59ZM292.199 196.863V201.867H287.184V196.863H292.199ZM288.461 197.906V200.836H290.922V197.906H288.461ZM295.176 195.949V199.055H296.652V200.145H295.176V203.684H293.875V195.949H295.176ZM295.598 205.277V206.332H288.391V202.934H289.691V205.277H295.598ZM306.074 195.961V203.977H304.762V203.051H302.688V202.137H304.762V195.961H306.074ZM306.32 205.277V206.332H298.551V203.203H299.852V205.277H306.32ZM297.145 200.719C299.102 200.707 301.727 200.684 303.977 200.402L304.047 201.34C303.174 201.486 302.271 201.586 301.375 201.645V203.684H300.074V201.715C299.084 201.756 298.141 201.762 297.309 201.762L297.145 200.719ZM300.602 196.348C302.148 196.348 303.227 197.109 303.238 198.223C303.227 199.359 302.148 200.086 300.602 200.086C299.031 200.086 297.953 199.359 297.953 198.223C297.953 197.109 299.031 196.348 300.602 196.348ZM300.602 197.309C299.758 197.309 299.184 197.648 299.184 198.223C299.184 198.797 299.758 199.137 300.602 199.137C301.41 199.137 301.984 198.797 301.996 198.223C301.984 197.648 301.41 197.309 300.602 197.309Z" fill="black"/>
</g>
<g clip-path="url(#clip2_10_254)">
<path d="M26.5957 227.708H25.3174V221.405H26.5957V227.708ZM26.6094 231.365H19.8623V232.924H18.5908V230.374H25.3242V229.321H18.5635V228.296H26.6094V231.365ZM27.0195 233.539H18.5908V232.5H27.0195V233.539ZM20.6621 222.67C20.6621 223.426 20.5186 224.137 20.2314 224.803C19.9443 225.468 19.5365 226.047 19.0078 226.539C18.4792 227.031 17.8594 227.398 17.1484 227.64L16.4854 226.614C17.1188 226.4 17.668 226.095 18.1328 225.698C18.5977 225.297 18.9554 224.835 19.2061 224.311C19.4567 223.782 19.582 223.235 19.582 222.67V221.733H20.6621V222.67ZM20.915 222.67C20.915 223.221 21.0358 223.745 21.2773 224.242C21.5234 224.739 21.8766 225.174 22.3369 225.548C22.7972 225.922 23.3372 226.209 23.957 226.409L23.3213 227.414C22.6149 227.177 21.9974 226.826 21.4688 226.361C20.9447 225.896 20.5391 225.347 20.252 224.714C19.9648 224.08 19.8213 223.399 19.8213 222.67V221.733H20.915V222.67ZM38.7021 233.689H37.3965V221.405H38.7021V233.689ZM30.5264 225.582H33.835V222.431H35.1064V230.757H29.2344V222.431H30.5264V225.582ZM33.835 229.684V226.607H30.5264V229.684H33.835Z" fill="#9799A5"/>
<path d="M249.523 227.621V229.332C250.443 229.285 251.369 229.203 252.242 229.074L252.348 230.035C249.969 230.469 247.426 230.492 245.562 230.492L245.398 229.438C246.225 229.432 247.197 229.426 248.223 229.391V227.621H249.523ZM251.809 223.25V224.305H249.547C249.605 225.436 250.502 226.455 252.102 226.859L251.504 227.879C250.25 227.539 249.354 226.807 248.879 225.863C248.41 226.859 247.525 227.621 246.266 227.961L245.645 226.977C247.244 226.537 248.123 225.494 248.199 224.305H245.961V223.25H248.223V222.043H249.523V223.25H251.809ZM254.176 221.949V232.555H252.875V221.949H254.176ZM264.84 221.949V232.543H263.598V227.141H262.402V232.004H261.207V222.148H262.402V226.098H263.598V221.949H264.84ZM260.012 223.203V224.258H257.363V228.969C258.518 228.957 259.467 228.898 260.539 228.699L260.633 229.766C259.355 230.023 258.242 230.059 256.766 230.07H256.051V223.203H260.012ZM272.305 231.617C270.605 231.617 269.363 230.609 269.316 229.203H270.805C270.852 229.895 271.496 230.387 272.305 230.387C273.254 230.387 273.934 229.695 273.934 228.758C273.934 227.785 273.23 227.094 272.258 227.094C271.602 227.082 271.121 227.316 270.852 227.82H269.434L269.949 223.016H274.965V224.293H271.203L270.945 226.543H271.027C271.355 226.168 271.977 225.898 272.668 225.898C274.25 225.898 275.41 227.082 275.41 228.711C275.41 230.41 274.133 231.617 272.305 231.617ZM280.156 224.457C280.156 225.723 281.035 226.941 282.711 227.457L282.078 228.477C280.877 228.113 280.01 227.346 279.523 226.367C279.055 227.422 278.182 228.254 276.945 228.652L276.312 227.633C277.977 227.105 278.855 225.816 278.855 224.457V224.293H276.641V223.262H278.855V222.02H280.168V223.262H282.371V224.293H280.156V224.457ZM285.219 221.961V229.824H283.918V226.156H282.02V225.113H283.918V221.961H285.219ZM285.488 231.277V232.332H278.27V229.145H279.57V231.277H285.488ZM292.098 222.863V227.867H287.082V222.863H292.098ZM288.359 223.906V226.836H290.82V223.906H288.359ZM295.074 221.949V225.055H296.551V226.145H295.074V229.684H293.773V221.949H295.074ZM295.496 231.277V232.332H288.289V228.934H289.59V231.277H295.496ZM305.973 221.961V229.977H304.66V229.051H302.586V228.137H304.66V221.961H305.973ZM306.219 231.277V232.332H298.449V229.203H299.75V231.277H306.219ZM297.043 226.719C299 226.707 301.625 226.684 303.875 226.402L303.945 227.34C303.072 227.486 302.17 227.586 301.273 227.645V229.684H299.973V227.715C298.982 227.756 298.039 227.762 297.207 227.762L297.043 226.719ZM300.5 222.348C302.047 222.348 303.125 223.109 303.137 224.223C303.125 225.359 302.047 226.086 300.5 226.086C298.93 226.086 297.852 225.359 297.852 224.223C297.852 223.109 298.93 222.348 300.5 222.348ZM300.5 223.309C299.656 223.309 299.082 223.648 299.082 224.223C299.082 224.797 299.656 225.137 300.5 225.137C301.309 225.137 301.883 224.797 301.895 224.223C301.883 223.648 301.309 223.309 300.5 223.309Z" fill="black"/>
</g>
<defs>
<clipPath id="clip0_10_254">
<rect width="292" height="24" fill="white" transform="translate(16 152.5)"/>
</clipPath>
<clipPath id="clip1_10_254">
<rect width="292" height="18" fill="white" transform="translate(16 192.5)"/>
</clipPath>
<clipPath id="clip2_10_254">
<rect width="292" height="18" fill="white" transform="translate(16 218.5)"/>
</clipPath>
</defs>
</svg>
