<svg width="325" height="140" viewBox="0 0 325 140" fill="none" xmlns="http://www.w3.org/2000/svg">
<rect width="325" height="140" rx="12" fill="white"/>
<path d="M23.656 32.032H37.08V33.76H23.656V32.032ZM29.272 28.672H31.384V32.8H29.272V28.672ZM24.68 21.808H35.976V23.52H24.68V21.808ZM24.76 27.712H35.928V29.392H24.76V27.712ZM26.696 23.216H28.824V27.904H26.696V23.216ZM31.832 23.216H33.96V27.904H31.832V23.216ZM43.9788 21.456H45.8188V22.528C45.8188 23.168 45.7281 23.792 45.5468 24.4C45.3761 24.9973 45.1201 25.5627 44.7788 26.096C44.4374 26.6293 44.0161 27.1147 43.5148 27.552C43.0241 27.9787 42.4588 28.3467 41.8188 28.656C41.1788 28.9653 40.4748 29.1947 39.7068 29.344L38.7948 27.568C39.4561 27.4507 40.0588 27.2747 40.6028 27.04C41.1574 26.7947 41.6428 26.5013 42.0588 26.16C42.4748 25.8187 42.8268 25.4507 43.1148 25.056C43.4028 24.6507 43.6161 24.2347 43.7548 23.808C43.9041 23.3707 43.9788 22.944 43.9788 22.528V21.456ZM44.3948 21.456H46.2508V22.528C46.2508 22.9547 46.3201 23.3867 46.4588 23.824C46.6081 24.2613 46.8214 24.6827 47.0988 25.088C47.3868 25.4827 47.7388 25.8453 48.1548 26.176C48.5708 26.5067 49.0508 26.7947 49.5948 27.04C50.1388 27.2747 50.7521 27.4507 51.4348 27.568L50.5228 29.344C49.7548 29.1947 49.0508 28.9653 48.4108 28.656C47.7708 28.3467 47.2001 27.9787 46.6988 27.552C46.2081 27.1253 45.7868 26.6453 45.4348 26.112C45.0934 25.5787 44.8321 25.008 44.6508 24.4C44.4801 23.792 44.3948 23.168 44.3948 22.528V21.456ZM38.4748 31.872H51.8988V33.616H38.4748V31.872ZM54.7975 21.824H64.1415V23.536H54.7975V21.824ZM53.2775 32H66.6855V33.712H53.2775V32ZM63.2775 21.824H65.3895V23.136C65.3895 23.7333 65.3788 24.3733 65.3575 25.056C65.3468 25.7387 65.2935 26.5013 65.1975 27.344C65.1015 28.1867 64.9415 29.152 64.7175 30.24L62.6055 30.016C62.9468 28.512 63.1442 27.2053 63.1975 26.096C63.2508 24.976 63.2775 23.9893 63.2775 23.136V21.824ZM63.6615 25.392V27.008L54.6215 27.488L54.3495 25.68L63.6615 25.392ZM58.0295 28.448H60.1735V32.624H58.0295V28.448ZM78.2882 20.608H80.4163V31.248H78.2882V20.608ZM70.5442 33.456H80.8003V35.168H70.5442V33.456ZM70.5442 30.192H72.6722V34.16H70.5442V30.192ZM72.3522 21.552C73.1096 21.552 73.7922 21.712 74.4002 22.032C75.0082 22.352 75.4882 22.7947 75.8403 23.36C76.2029 23.9253 76.3842 24.576 76.3842 25.312C76.3842 26.0267 76.2029 26.672 75.8403 27.248C75.4882 27.8133 75.0082 28.2613 74.4002 28.592C73.7922 28.912 73.1096 29.072 72.3522 29.072C71.5949 29.072 70.9122 28.912 70.3042 28.592C69.6962 28.2613 69.2109 27.8133 68.8482 27.248C68.4962 26.672 68.3202 26.0267 68.3202 25.312C68.3202 24.576 68.4962 23.9253 68.8482 23.36C69.2109 22.7947 69.6962 22.352 70.3042 22.032C70.9122 21.712 71.5949 21.552 72.3522 21.552ZM72.3522 23.376C71.9896 23.376 71.6589 23.456 71.3602 23.616C71.0616 23.7653 70.8269 23.984 70.6562 24.272C70.4856 24.5493 70.4002 24.896 70.4002 25.312C70.4002 25.7067 70.4856 26.048 70.6562 26.336C70.8269 26.6133 71.0616 26.832 71.3602 26.992C71.6589 27.1413 71.9896 27.216 72.3522 27.216C72.7149 27.216 73.0456 27.1413 73.3442 26.992C73.6429 26.832 73.8776 26.6133 74.0482 26.336C74.2189 26.048 74.3042 25.7067 74.3042 25.312C74.3042 24.896 74.2189 24.5493 74.0482 24.272C73.8776 23.984 73.6429 23.7653 73.3442 23.616C73.0456 23.456 72.7149 23.376 72.3522 23.376ZM93.235 20.576H95.363V35.44H93.235V20.576ZM90.691 25.808H93.491V27.536H90.691V25.808ZM83.587 30.384H84.787C85.6083 30.384 86.3657 30.3733 87.059 30.352C87.763 30.3307 88.4457 30.2933 89.107 30.24C89.7683 30.1867 90.4457 30.112 91.139 30.016L91.347 31.696C90.6323 31.8133 89.9283 31.8987 89.235 31.952C88.5523 32.0053 87.8483 32.0427 87.123 32.064C86.3977 32.0853 85.619 32.096 84.787 32.096H83.587V30.384ZM83.587 21.824H90.451V23.552H85.715V30.912H83.587V21.824ZM85.219 25.952H89.955V27.616H85.219V25.952ZM108.406 20.592H110.422V35.408H108.406V20.592ZM106.47 26.304H108.934V28.016H106.47V26.304ZM105.094 20.848H107.078V34.72H105.094V20.848ZM98.3258 22.24H100.454V30.8H98.3258V22.24ZM98.3258 29.984H99.3498C100.064 29.984 100.832 29.9627 101.654 29.92C102.486 29.8667 103.36 29.7493 104.278 29.568L104.47 31.392C103.51 31.5627 102.603 31.6747 101.75 31.728C100.896 31.7813 100.096 31.808 99.3498 31.808H98.3258V29.984ZM122.84 20.576H125V35.44H122.84V20.576ZM120.168 23.536H124.008V25.28H120.168V23.536ZM120.168 27.152H124.008V28.896H120.168V27.152ZM116.008 21.728H117.704V23.888C117.704 24.816 117.624 25.7173 117.464 26.592C117.304 27.456 117.059 28.2667 116.728 29.024C116.398 29.7813 115.976 30.4533 115.464 31.04C114.963 31.616 114.371 32.0747 113.688 32.416L112.36 30.736C112.99 30.4373 113.528 30.048 113.976 29.568C114.435 29.088 114.814 28.544 115.112 27.936C115.422 27.3173 115.646 26.6667 115.784 25.984C115.934 25.2907 116.008 24.592 116.008 23.888V21.728ZM116.44 21.728H118.136V23.888C118.136 24.592 118.206 25.2853 118.344 25.968C118.483 26.6507 118.691 27.2907 118.968 27.888C119.256 28.4853 119.624 29.0187 120.072 29.488C120.52 29.9467 121.054 30.3093 121.672 30.576L120.376 32.272C119.683 31.9413 119.086 31.4933 118.584 30.928C118.094 30.352 117.688 29.696 117.368 28.96C117.059 28.224 116.824 27.424 116.664 26.56C116.515 25.696 116.44 24.8053 116.44 23.888V21.728ZM128.187 21.2H130.299V27.264H128.187V21.2ZM128.187 26H129.435C130.129 26 130.827 25.984 131.531 25.952C132.235 25.92 132.95 25.8667 133.675 25.792C134.411 25.7173 135.163 25.616 135.931 25.488L136.171 27.184C135.382 27.3333 134.603 27.4507 133.835 27.536C133.078 27.6107 132.331 27.664 131.595 27.696C130.87 27.728 130.15 27.744 129.435 27.744H128.187V26ZM134.059 22.656H138.107V24.352H134.059V22.656ZM137.643 20.592H139.787V28.064H137.643V20.592ZM129.995 28.624H139.787V32.688H132.139V34.48H130.011V31.12H137.643V30.304H129.995V28.624ZM130.011 33.584H140.139V35.264H130.011V33.584Z" fill="black"/>
<path d="M29.896 81.248C29.7893 80.8 29.6027 80.464 29.336 80.24C29.08 80.016 28.7067 79.904 28.216 79.904C27.48 79.904 26.936 80.2027 26.584 80.8C26.2427 81.3867 26.0667 82.3467 26.056 83.68C26.312 83.2533 26.6853 82.9227 27.176 82.688C27.6667 82.4427 28.2 82.32 28.776 82.32C29.4693 82.32 30.0827 82.4693 30.616 82.768C31.1493 83.0667 31.5653 83.504 31.864 84.08C32.1627 84.6453 32.312 85.328 32.312 86.128C32.312 86.8853 32.1573 87.5627 31.848 88.16C31.5493 88.7467 31.1067 89.2053 30.52 89.536C29.9333 89.8667 29.2347 90.032 28.424 90.032C27.3147 90.032 26.44 89.7867 25.8 89.296C25.1707 88.8053 24.728 88.1227 24.472 87.248C24.2267 86.3627 24.104 85.2747 24.104 83.984C24.104 82.032 24.44 80.56 25.112 79.568C25.784 78.5653 26.8453 78.064 28.296 78.064C29.416 78.064 30.2853 78.368 30.904 78.976C31.5227 79.584 31.88 80.3413 31.976 81.248H29.896ZM28.264 84.16C27.6987 84.16 27.224 84.3253 26.84 84.656C26.456 84.9867 26.264 85.4667 26.264 86.096C26.264 86.7253 26.44 87.2213 26.792 87.584C27.1547 87.9467 27.6613 88.128 28.312 88.128C28.888 88.128 29.3413 87.952 29.672 87.6C30.0133 87.248 30.184 86.7733 30.184 86.176C30.184 85.5573 30.0187 85.0667 29.688 84.704C29.368 84.3413 28.8933 84.16 28.264 84.16ZM36.1344 83.824C35.0677 83.2693 34.5344 82.4107 34.5344 81.248C34.5344 80.672 34.6784 80.1493 34.9664 79.68C35.265 79.2 35.7077 78.8213 36.2944 78.544C36.8917 78.256 37.617 78.112 38.4704 78.112C39.3237 78.112 40.0437 78.256 40.6304 78.544C41.2277 78.8213 41.6704 79.2 41.9584 79.68C42.257 80.1493 42.4064 80.672 42.4064 81.248C42.4064 81.8347 42.2624 82.352 41.9744 82.8C41.6864 83.2373 41.3024 83.5787 40.8224 83.824C41.409 84.08 41.8677 84.4533 42.1984 84.944C42.529 85.4347 42.6944 86.016 42.6944 86.688C42.6944 87.4133 42.5077 88.048 42.1344 88.592C41.7717 89.1253 41.2704 89.536 40.6304 89.824C39.9904 90.112 39.2704 90.256 38.4704 90.256C37.6704 90.256 36.9504 90.112 36.3104 89.824C35.681 89.536 35.1797 89.1253 34.8064 88.592C34.4437 88.048 34.2624 87.4133 34.2624 86.688C34.2624 86.016 34.4277 85.4347 34.7584 84.944C35.089 84.4427 35.5477 84.0693 36.1344 83.824ZM40.2304 81.568C40.2304 81.0453 40.0704 80.64 39.7504 80.352C39.441 80.064 39.0144 79.92 38.4704 79.92C37.937 79.92 37.5104 80.064 37.1904 80.352C36.881 80.64 36.7264 81.0507 36.7264 81.584C36.7264 82.064 36.8864 82.448 37.2064 82.736C37.537 83.024 37.9584 83.168 38.4704 83.168C38.9824 83.168 39.4037 83.024 39.7344 82.736C40.065 82.4373 40.2304 82.048 40.2304 81.568ZM38.4704 84.8C37.8624 84.8 37.3664 84.9547 36.9824 85.264C36.609 85.5733 36.4224 86.016 36.4224 86.592C36.4224 87.1253 36.6037 87.5627 36.9664 87.904C37.3397 88.2347 37.841 88.4 38.4704 88.4C39.0997 88.4 39.5957 88.2293 39.9584 87.888C40.321 87.5467 40.5024 87.1147 40.5024 86.592C40.5024 86.0267 40.3157 85.5893 39.9424 85.28C39.569 84.96 39.0784 84.8 38.4704 84.8ZM47.2676 87.648L45.3956 92.144H43.9556L44.9956 87.648H47.2676ZM48.7261 84.016C48.7261 82.1707 49.0568 80.7253 49.7181 79.68C50.3901 78.6347 51.4995 78.112 53.0461 78.112C54.5928 78.112 55.6968 78.6347 56.3581 79.68C57.0301 80.7253 57.3661 82.1707 57.3661 84.016C57.3661 85.872 57.0301 87.328 56.3581 88.384C55.6968 89.44 54.5928 89.968 53.0461 89.968C51.4995 89.968 50.3901 89.44 49.7181 88.384C49.0568 87.328 48.7261 85.872 48.7261 84.016ZM55.1581 84.016C55.1581 83.2267 55.1048 82.5653 54.9981 82.032C54.9021 81.488 54.6995 81.0453 54.3901 80.704C54.0915 80.3627 53.6435 80.192 53.0461 80.192C52.4488 80.192 51.9955 80.3627 51.6861 80.704C51.3875 81.0453 51.1848 81.488 51.0781 82.032C50.9821 82.5653 50.9341 83.2267 50.9341 84.016C50.9341 84.8267 50.9821 85.5093 51.0781 86.064C51.1741 86.608 51.3768 87.0507 51.6861 87.392C51.9955 87.7227 52.4488 87.888 53.0461 87.888C53.6435 87.888 54.0968 87.7227 54.4061 87.392C54.7155 87.0507 54.9181 86.608 55.0141 86.064C55.1101 85.5093 55.1581 84.8267 55.1581 84.016ZM59.1699 84.016C59.1699 82.1707 59.5005 80.7253 60.1619 79.68C60.8339 78.6347 61.9432 78.112 63.4899 78.112C65.0365 78.112 66.1405 78.6347 66.8019 79.68C67.4739 80.7253 67.8099 82.1707 67.8099 84.016C67.8099 85.872 67.4739 87.328 66.8019 88.384C66.1405 89.44 65.0365 89.968 63.4899 89.968C61.9432 89.968 60.8339 89.44 60.1619 88.384C59.5005 87.328 59.1699 85.872 59.1699 84.016ZM65.6019 84.016C65.6019 83.2267 65.5485 82.5653 65.4419 82.032C65.3459 81.488 65.1432 81.0453 64.8339 80.704C64.5352 80.3627 64.0872 80.192 63.4899 80.192C62.8925 80.192 62.4392 80.3627 62.1299 80.704C61.8312 81.0453 61.6285 81.488 61.5219 82.032C61.4259 82.5653 61.3779 83.2267 61.3779 84.016C61.3779 84.8267 61.4259 85.5093 61.5219 86.064C61.6179 86.608 61.8205 87.0507 62.1299 87.392C62.4392 87.7227 62.8925 87.888 63.4899 87.888C64.0872 87.888 64.5405 87.7227 64.8499 87.392C65.1592 87.0507 65.3619 86.608 65.4579 86.064C65.5539 85.5093 65.6019 84.8267 65.6019 84.016ZM69.6136 84.016C69.6136 82.1707 69.9443 80.7253 70.6056 79.68C71.2776 78.6347 72.387 78.112 73.9336 78.112C75.4803 78.112 76.5843 78.6347 77.2456 79.68C77.9176 80.7253 78.2536 82.1707 78.2536 84.016C78.2536 85.872 77.9176 87.328 77.2456 88.384C76.5843 89.44 75.4803 89.968 73.9336 89.968C72.387 89.968 71.2776 89.44 70.6056 88.384C69.9443 87.328 69.6136 85.872 69.6136 84.016ZM76.0456 84.016C76.0456 83.2267 75.9923 82.5653 75.8856 82.032C75.7896 81.488 75.587 81.0453 75.2776 80.704C74.979 80.3627 74.531 80.192 73.9336 80.192C73.3363 80.192 72.883 80.3627 72.5736 80.704C72.275 81.0453 72.0723 81.488 71.9656 82.032C71.8696 82.5653 71.8216 83.2267 71.8216 84.016C71.8216 84.8267 71.8696 85.5093 71.9656 86.064C72.0616 86.608 72.2643 87.0507 72.5736 87.392C72.883 87.7227 73.3363 87.888 73.9336 87.888C74.531 87.888 74.9843 87.7227 75.2936 87.392C75.603 87.0507 75.8056 86.608 75.9016 86.064C75.9976 85.5093 76.0456 84.8267 76.0456 84.016Z" fill="black"/>
<path d="M23.663 110L28.902 100.939L34.128 110H23.663ZM39.2398 102.967C39.3004 102.17 39.6081 101.546 40.1628 101.095C40.7174 100.644 41.4368 100.419 42.3208 100.419C42.9101 100.419 43.4171 100.527 43.8418 100.744C44.2751 100.952 44.6001 101.238 44.8168 101.602C45.0421 101.966 45.1548 102.378 45.1548 102.837C45.1548 103.374 44.9988 103.838 44.6868 104.228C44.3834 104.618 43.9848 104.869 43.4908 104.982V105.047C44.0541 105.186 44.5004 105.459 44.8298 105.866C45.1591 106.273 45.3238 106.806 45.3238 107.465C45.3238 107.959 45.2111 108.405 44.9858 108.804C44.7604 109.194 44.4224 109.502 43.9718 109.727C43.5211 109.952 42.9794 110.065 42.3468 110.065C41.4281 110.065 40.6741 109.827 40.0848 109.35C39.4954 108.865 39.1661 108.18 39.0968 107.296H40.2408C40.3014 107.816 40.5138 108.241 40.8778 108.57C41.2418 108.899 41.7271 109.064 42.3338 109.064C42.9404 109.064 43.3998 108.908 43.7118 108.596C44.0324 108.275 44.1928 107.864 44.1928 107.361C44.1928 106.711 43.9761 106.243 43.5428 105.957C43.1094 105.671 42.4551 105.528 41.5798 105.528H41.2808V104.54H41.5928C42.3901 104.531 42.9924 104.401 43.3998 104.15C43.8071 103.89 44.0108 103.491 44.0108 102.954C44.0108 102.495 43.8591 102.126 43.5558 101.849C43.2611 101.572 42.8364 101.433 42.2818 101.433C41.7444 101.433 41.3111 101.572 40.9818 101.849C40.6524 102.126 40.4574 102.499 40.3968 102.967H39.2398ZM48.438 108.362L46.982 111.859H46.189L47.138 108.362H48.438ZM54.9372 102.837C54.7465 101.875 54.1529 101.394 53.1562 101.394C52.3849 101.394 51.8085 101.693 51.4272 102.291C51.0459 102.88 50.8595 103.855 50.8682 105.216C51.0675 104.765 51.3969 104.414 51.8562 104.163C52.3242 103.903 52.8442 103.773 53.4162 103.773C54.3089 103.773 55.0195 104.05 55.5482 104.605C56.0855 105.16 56.3542 105.927 56.3542 106.906C56.3542 107.495 56.2372 108.024 56.0032 108.492C55.7779 108.96 55.4312 109.333 54.9632 109.61C54.5039 109.887 53.9449 110.026 53.2862 110.026C52.3935 110.026 51.6959 109.827 51.1932 109.428C50.6905 109.029 50.3395 108.479 50.1402 107.777C49.9409 107.075 49.8412 106.208 49.8412 105.177C49.8412 101.996 50.9505 100.406 53.1692 100.406C54.0185 100.406 54.6859 100.636 55.1712 101.095C55.6565 101.554 55.9425 102.135 56.0292 102.837H54.9372ZM53.1692 104.774C52.7965 104.774 52.4455 104.852 52.1162 105.008C51.7869 105.155 51.5182 105.385 51.3102 105.697C51.1109 106 51.0112 106.373 51.0112 106.815C51.0112 107.474 51.2019 108.011 51.5832 108.427C51.9645 108.834 52.5105 109.038 53.2212 109.038C53.8279 109.038 54.3089 108.852 54.6642 108.479C55.0282 108.098 55.2102 107.586 55.2102 106.945C55.2102 106.269 55.0369 105.74 54.6902 105.359C54.3435 104.969 53.8365 104.774 53.1692 104.774ZM58.0501 105.203C58.0501 103.712 58.2928 102.551 58.7781 101.719C59.2635 100.878 60.1128 100.458 61.3261 100.458C62.5308 100.458 63.3758 100.878 63.8611 101.719C64.3465 102.551 64.5891 103.712 64.5891 105.203C64.5891 106.72 64.3465 107.898 63.8611 108.739C63.3758 109.58 62.5308 110 61.3261 110C60.1128 110 59.2635 109.58 58.7781 108.739C58.2928 107.898 58.0501 106.72 58.0501 105.203ZM63.4191 105.203C63.4191 104.449 63.3671 103.812 63.2631 103.292C63.1678 102.763 62.9641 102.339 62.6521 102.018C62.3488 101.697 61.9068 101.537 61.3261 101.537C60.7368 101.537 60.2861 101.697 59.9741 102.018C59.6708 102.339 59.4671 102.763 59.3631 103.292C59.2678 103.812 59.2201 104.449 59.2201 105.203C59.2201 105.983 59.2678 106.637 59.3631 107.166C59.4671 107.695 59.6708 108.119 59.9741 108.44C60.2861 108.761 60.7368 108.921 61.3261 108.921C61.9068 108.921 62.3488 108.761 62.6521 108.44C62.9641 108.119 63.1678 107.695 63.2631 107.166C63.3671 106.637 63.4191 105.983 63.4191 105.203ZM66.3132 105.203C66.3132 103.712 66.5559 102.551 67.0412 101.719C67.5266 100.878 68.3759 100.458 69.5892 100.458C70.7939 100.458 71.6389 100.878 72.1242 101.719C72.6096 102.551 72.8522 103.712 72.8522 105.203C72.8522 106.72 72.6096 107.898 72.1242 108.739C71.6389 109.58 70.7939 110 69.5892 110C68.3759 110 67.5266 109.58 67.0412 108.739C66.5559 107.898 66.3132 106.72 66.3132 105.203ZM71.6822 105.203C71.6822 104.449 71.6302 103.812 71.5262 103.292C71.4309 102.763 71.2272 102.339 70.9152 102.018C70.6119 101.697 70.1699 101.537 69.5892 101.537C68.9999 101.537 68.5492 101.697 68.2372 102.018C67.9339 102.339 67.7302 102.763 67.6262 103.292C67.5309 103.812 67.4832 104.449 67.4832 105.203C67.4832 105.983 67.5309 106.637 67.6262 107.166C67.7302 107.695 67.9339 108.119 68.2372 108.44C68.5492 108.761 68.9999 108.921 69.5892 108.921C70.1699 108.921 70.6119 108.761 70.9152 108.44C71.2272 108.119 71.4309 107.695 71.5262 107.166C71.6302 106.637 71.6822 105.983 71.6822 105.203Z" fill="#F61C7A"/>
<path d="M30.761 63.749H27.992V66.557H26.887V63.749H24.131V62.748H26.887V59.927H27.992V62.748H30.761V63.749ZM38.773 59.628H34.21V62.592C34.4094 62.3147 34.704 62.0893 35.094 61.916C35.484 61.734 35.9044 61.643 36.355 61.643C37.0744 61.643 37.6594 61.7947 38.11 62.098C38.5607 62.3927 38.8814 62.7783 39.072 63.255C39.2714 63.723 39.371 64.2213 39.371 64.75C39.371 65.374 39.254 65.933 39.02 66.427C38.786 66.921 38.4264 67.311 37.941 67.597C37.4644 67.883 36.8707 68.026 36.16 68.026C35.25 68.026 34.5134 67.792 33.95 67.324C33.3867 66.856 33.0444 66.232 32.923 65.452H34.08C34.1927 65.946 34.431 66.3317 34.795 66.609C35.159 66.8863 35.6184 67.025 36.173 67.025C36.8577 67.025 37.3734 66.8213 37.72 66.414C38.0667 65.998 38.24 65.452 38.24 64.776C38.24 64.1 38.0667 63.58 37.72 63.216C37.3734 62.8433 36.862 62.657 36.186 62.657C35.7267 62.657 35.3237 62.7697 34.977 62.995C34.639 63.2117 34.392 63.5107 34.236 63.892H33.118V58.588H38.773V59.628ZM41.6151 68.078C41.3898 68.078 41.1991 68 41.0431 67.844C40.8871 67.688 40.8091 67.4973 40.8091 67.272C40.8091 67.0467 40.8871 66.856 41.0431 66.7C41.1991 66.544 41.3898 66.466 41.6151 66.466C41.8318 66.466 42.0138 66.544 42.1611 66.7C42.3171 66.856 42.3951 67.0467 42.3951 67.272C42.3951 67.4973 42.3171 67.688 42.1611 67.844C42.0138 68 41.8318 68.078 41.6151 68.078ZM49.8656 59.628H45.3026V62.592C45.5019 62.3147 45.7966 62.0893 46.1866 61.916C46.5766 61.734 46.9969 61.643 47.4476 61.643C48.1669 61.643 48.7519 61.7947 49.2026 62.098C49.6533 62.3927 49.9739 62.7783 50.1646 63.255C50.3639 63.723 50.4636 64.2213 50.4636 64.75C50.4636 65.374 50.3466 65.933 50.1126 66.427C49.8786 66.921 49.5189 67.311 49.0336 67.597C48.5569 67.883 47.9633 68.026 47.2526 68.026C46.3426 68.026 45.6059 67.792 45.0426 67.324C44.4793 66.856 44.1369 66.232 44.0156 65.452H45.1726C45.2853 65.946 45.5236 66.3317 45.8876 66.609C46.2516 66.8863 46.7109 67.025 47.2656 67.025C47.9503 67.025 48.4659 66.8213 48.8126 66.414C49.1593 65.998 49.3326 65.452 49.3326 64.776C49.3326 64.1 49.1593 63.58 48.8126 63.216C48.4659 62.8433 47.9546 62.657 47.2786 62.657C46.8193 62.657 46.4163 62.7697 46.0696 62.995C45.7316 63.2117 45.4846 63.5107 45.3286 63.892H44.2106V58.588H49.8656V59.628ZM53.6567 65.478C53.7434 65.972 53.9427 66.3533 54.2547 66.622C54.5754 66.8907 55.0044 67.025 55.5417 67.025C56.261 67.025 56.7897 66.7433 57.1277 66.18C57.4744 65.6167 57.639 64.6677 57.6217 63.333C57.4397 63.723 57.1364 64.0307 56.7117 64.256C56.287 64.4727 55.8147 64.581 55.2947 64.581C54.714 64.581 54.194 64.464 53.7347 64.23C53.284 63.9873 52.9287 63.6363 52.6687 63.177C52.4087 62.7177 52.2787 62.163 52.2787 61.513C52.2787 60.5857 52.5474 59.8403 53.0847 59.277C53.622 58.705 54.3847 58.419 55.3727 58.419C56.586 58.419 57.4354 58.8133 57.9207 59.602C58.4147 60.3907 58.6617 61.565 58.6617 63.125C58.6617 64.217 58.562 65.1183 58.3627 65.829C58.172 66.5397 57.8427 67.0813 57.3747 67.454C56.9154 67.8267 56.2827 68.013 55.4767 68.013C54.5927 68.013 53.9037 67.7747 53.4097 67.298C52.9157 66.8213 52.634 66.2147 52.5647 65.478H53.6567ZM55.4897 63.58C56.0704 63.58 56.547 63.4023 56.9197 63.047C57.2924 62.683 57.4787 62.1933 57.4787 61.578C57.4787 60.928 57.2967 60.4037 56.9327 60.005C56.5687 59.6063 56.0574 59.407 55.3987 59.407C54.792 59.407 54.3067 59.5977 53.9427 59.979C53.5874 60.3603 53.4097 60.863 53.4097 61.487C53.4097 62.1197 53.5874 62.6267 53.9427 63.008C54.298 63.3893 54.8137 63.58 55.4897 63.58ZM60.1642 60.72C60.1642 60.1307 60.3418 59.6627 60.6972 59.316C61.0525 58.9607 61.5075 58.783 62.0622 58.783C62.6168 58.783 63.0718 58.9607 63.4272 59.316C63.7825 59.6627 63.9602 60.1307 63.9602 60.72C63.9602 61.318 63.7825 61.7947 63.4272 62.15C63.0718 62.4967 62.6168 62.67 62.0622 62.67C61.5075 62.67 61.0525 62.4967 60.6972 62.15C60.3418 61.7947 60.1642 61.318 60.1642 60.72ZM67.7562 58.926L62.4912 68H61.3212L66.5862 58.926H67.7562ZM62.0622 59.511C61.7675 59.511 61.5335 59.615 61.3602 59.823C61.1955 60.0223 61.1132 60.3213 61.1132 60.72C61.1132 61.1187 61.1955 61.422 61.3602 61.63C61.5335 61.838 61.7675 61.942 62.0622 61.942C62.3568 61.942 62.5908 61.838 62.7642 61.63C62.9375 61.4133 63.0242 61.11 63.0242 60.72C63.0242 60.3213 62.9375 60.0223 62.7642 59.823C62.5908 59.615 62.3568 59.511 62.0622 59.511ZM65.1432 66.206C65.1432 65.608 65.3208 65.1357 65.6762 64.789C66.0315 64.4337 66.4865 64.256 67.0412 64.256C67.5958 64.256 68.0465 64.4337 68.3932 64.789C68.7485 65.1357 68.9262 65.608 68.9262 66.206C68.9262 66.7953 68.7485 67.2677 68.3932 67.623C68.0465 67.9783 67.5958 68.156 67.0412 68.156C66.4865 68.156 66.0315 67.9827 65.6762 67.636C65.3208 67.2807 65.1432 66.804 65.1432 66.206ZM67.0282 64.997C66.7335 64.997 66.4995 65.101 66.3262 65.309C66.1528 65.5083 66.0662 65.8073 66.0662 66.206C66.0662 66.596 66.1528 66.895 66.3262 67.103C66.4995 67.3023 66.7335 67.402 67.0282 67.402C67.3228 67.402 67.5568 67.3023 67.7302 67.103C67.9035 66.895 67.9902 66.596 67.9902 66.206C67.9902 65.8073 67.9035 65.5083 67.7302 65.309C67.5568 65.101 67.3228 64.997 67.0282 64.997Z" fill="#F61C7A"/>
<path d="M169 91.4459L170.343 92.0392C171.686 92.6326 174.373 93.8192 177.059 96.0851C179.745 98.3509 182.431 101.696 185.118 104.427C187.804 107.159 190.49 109.277 193.176 105.802C195.863 102.327 198.549 93.2585 201.235 94.1485C203.922 95.0386 206.608 105.887 209.294 110.659C211.98 115.431 214.667 114.126 217.353 112.619C220.039 111.112 222.725 109.403 225.412 104.72C228.098 100.038 230.784 92.3833 233.471 89.3144C236.157 86.2456 238.843 87.7628 241.529 85.0711C244.216 82.3794 246.902 75.4787 249.588 72.8168C252.275 70.155 254.961 71.7321 257.647 75.6043C260.333 79.4766 263.02 85.644 265.706 85.4357C268.392 85.2274 271.078 78.6434 273.765 78.1357C276.451 77.6281 279.137 83.1968 281.824 88.522C284.51 93.8472 287.196 98.929 289.882 95.1767C292.569 91.4244 295.255 78.8379 297.941 72.1695C300.627 65.501 303.314 64.7505 304.657 64.3753L306 64" stroke="#F61C7A" stroke-width="2" stroke-linecap="round"/>
<rect x="241.5" y="15.5" width="69" height="25" rx="6.5" stroke="#888888"/>
<path d="M255.758 25.7812C255.758 27.6133 256.797 29.6094 258.697 30.5117L257.85 31.6602C256.517 31.0381 255.546 29.8145 255.033 28.3652C254.486 29.9238 253.468 31.2432 252.053 31.8789L251.219 30.7031C253.16 29.8281 254.254 27.7227 254.254 25.7812V25.1387H251.615V23.9219H254.254V22.1172H255.771V23.9219H258.369V25.1387H255.758V25.7812ZM261.09 21.8574V26.752H262.99V28.0234H261.09V34.2168H259.572V21.8574H261.09ZM273.809 28.3379V29.541H265.141V22.8281H273.699V24.0586H266.686V25.5488H273.412V26.7383H266.686V28.3379H273.809ZM275.053 31.4688V32.7129H263.76V31.4688H275.053ZM287.402 31.4824V32.7266H276.109V31.4824H280.977V29.0762H277.354V22.6777H278.871V24.7012H284.6V22.6777H286.117V29.0762H282.48V31.4824H287.402ZM278.871 27.8457H284.6V25.918H278.871V27.8457ZM298.781 21.8574V34.2168H297.25V21.8574H298.781ZM295.09 23.1699C295.09 26.8477 293.668 29.9785 289.334 32.0293L288.541 30.8125C291.774 29.2744 293.278 27.1826 293.545 24.373H289.17V23.1699H295.09Z" fill="#888888"/>
</svg>
