<svg width="324" height="132" viewBox="0 0 324 132" fill="none" xmlns="http://www.w3.org/2000/svg">
<rect x="0.5" y="0.5" width="323" height="131" rx="4.5" stroke="#FF7417"/>
<rect x="16" y="18.5" width="50" height="25" rx="12.5" fill="#FF7417"/>
<path d="M28.5664 35.5L28.9902 32.9434H26.8574L26.4336 35.5H25.0801L25.5039 32.9434H24.1094L24.3281 31.6035H25.7227L26.0645 29.498H24.6836L24.9023 28.1582H26.2969L26.707 25.6016H28.0605L27.6504 28.1582H29.7832L30.1934 25.6016H31.5332L31.123 28.1582H32.5176L32.2852 29.498H30.8906L30.5488 31.6035H31.9434L31.7246 32.9434H30.3301L29.9062 35.5H28.5664ZM27.0762 31.6035H29.209L29.5508 29.498H27.418L27.0762 31.6035ZM33.543 35.5V25.6016H39.9824V27.0918H35.3203V29.7988H39.6406V31.2891H35.3203V33.9961H40.0098V35.5H33.543ZM41.2539 27.0918V25.6016H49.1426V27.0918H46.0938V35.5H44.3164V27.0918H41.2539ZM50.5371 35.5V25.6016H56.8809V27.0918H52.3145V29.7988H56.4434V31.2891H52.3145V35.5H50.5371Z" fill="white"/>
<path d="M25.9219 53.2422V64.9414H17.5234V53.2422H25.9219ZM19.6719 54.9414V63.2031H23.8125V54.9414H19.6719ZM31.2734 51.582V69.2578H29.0859V51.582H31.2734ZM48.0312 52.3828V53.7305C48.0312 55.0488 48.0312 56.5625 47.6602 58.5352H50.0039V60.293H42.9922V63.0469H48.0703V69.2383H45.9023V64.7852H35.5117V63.0469H40.8242V60.293H33.8711V58.5352H45.4727C45.8242 56.7285 45.8633 55.3516 45.8633 54.1211H35.8633V52.3828H48.0312ZM64.3203 57.2461C64.2031 56.0352 63.168 55.332 61.6445 55.332C60.043 55.332 59.0664 56.1133 59.0664 57.168C59.0664 58.3594 60.3164 58.8477 61.4883 59.1211L62.8164 59.4727C64.9258 59.9609 66.957 61.0742 66.957 63.5352C66.957 66.0156 65.0039 67.7148 61.6055 67.7148C58.3047 67.7148 56.2344 66.1328 56.1172 63.3398H58.6172C58.7344 64.8242 59.9844 65.5469 61.5859 65.5469C63.2656 65.5469 64.418 64.7266 64.418 63.5156C64.418 62.4023 63.3828 61.9336 61.8594 61.543L60.2578 61.1328C57.9336 60.5273 56.4883 59.3555 56.4883 57.3242C56.4883 54.8242 58.7148 53.1641 61.6836 53.1641C64.6914 53.1641 66.7227 54.8633 66.7617 57.2461H64.3203ZM73.1875 67.6953C70.2969 67.6953 68.5195 65.9961 68.5195 63.75C68.5195 62.0898 69.6035 61.0547 71.1758 59.9609C70.3555 58.9648 69.7305 57.9395 69.7305 56.6797C69.7305 54.668 71.1953 53.1836 73.4219 53.1836C75.6484 53.1836 77.0156 54.668 77.0156 56.3867C77.0156 57.7344 76.3125 58.75 75.1406 59.6094L74.2422 60.2734L76.8398 63.3008C77.2012 62.6074 77.4258 61.7773 77.4258 60.8398H79.5742C79.5742 62.7832 79.0371 64.1602 78.3438 65.0781L80.4141 67.5H77.7188L76.8203 66.4648C75.8047 67.3047 74.4375 67.6953 73.1875 67.6953ZM70.9609 63.6328C70.9609 64.7656 71.8594 65.6641 73.2656 65.6641C74.0176 65.6641 74.7891 65.4004 75.4727 64.9023L72.5234 61.5234L72.2891 61.6992C71.332 62.4023 70.9609 63.1445 70.9609 63.6328ZM71.9375 56.7188C71.9375 57.3633 72.377 58.0176 72.9727 58.75L73.7734 58.2031C74.5156 57.7148 74.9062 57.2266 74.9062 56.5039C74.9062 55.8789 74.3594 55.2148 73.4609 55.2344C72.5625 55.2344 71.9375 55.9375 71.9375 56.7188ZM81.7617 67.5V53.3594H87.0742C90.3164 53.3594 92.0547 55.332 92.0547 58.0469C92.0547 60.7617 90.2969 62.7148 87.0352 62.7148H84.3008V67.5H81.7617ZM84.3008 60.625H86.6836C88.5977 60.625 89.457 59.5508 89.457 58.0469C89.457 56.5234 88.5977 55.4883 86.6836 55.4883H84.3008V60.625ZM103.734 67.6953C100.902 67.6953 98.832 66.0156 98.7539 63.6719H101.234C101.312 64.8242 102.387 65.6445 103.734 65.6445C105.316 65.6445 106.449 64.4922 106.449 62.9297C106.449 61.3086 105.277 60.1562 103.656 60.1562C102.562 60.1367 101.762 60.5273 101.312 61.3672H98.9492L99.8086 53.3594H108.168V55.4883H101.898L101.469 59.2383H101.605C102.152 58.6133 103.188 58.1641 104.34 58.1641C106.977 58.1641 108.91 60.1367 108.91 62.8516C108.91 65.6836 106.781 67.6953 103.734 67.6953ZM116.273 67.6953C112.875 67.6953 110.844 65.0586 110.844 60.4297C110.844 55.8203 112.875 53.1641 116.273 53.1641C119.652 53.1641 121.703 55.8203 121.703 60.4297C121.703 65.0586 119.672 67.6953 116.273 67.6953ZM116.273 65.5664C118.051 65.5664 119.145 63.8281 119.145 60.4297C119.145 57.0508 118.031 55.2734 116.273 55.2734C114.516 55.2734 113.402 57.0508 113.402 60.4297C113.402 63.8281 114.496 65.5664 116.273 65.5664ZM129.047 67.6953C125.648 67.6953 123.617 65.0586 123.617 60.4297C123.617 55.8203 125.648 53.1641 129.047 53.1641C132.426 53.1641 134.477 55.8203 134.477 60.4297C134.477 65.0586 132.445 67.6953 129.047 67.6953ZM129.047 65.5664C130.824 65.5664 131.918 63.8281 131.918 60.4297C131.918 57.0508 130.805 55.2734 129.047 55.2734C127.289 55.2734 126.176 57.0508 126.176 60.4297C126.176 63.8281 127.27 65.5664 129.047 65.5664Z" fill="black"/>
<path d="M301.192 47.4423L294.942 53.6923C294.884 53.7504 294.815 53.7964 294.739 53.8278C294.663 53.8593 294.582 53.8755 294.5 53.8755C294.418 53.8755 294.336 53.8593 294.261 53.8278C294.185 53.7964 294.116 53.7504 294.058 53.6923C294 53.6342 293.954 53.5653 293.922 53.4894C293.891 53.4135 293.875 53.3322 293.875 53.2501C293.875 53.168 293.891 53.0867 293.922 53.0108C293.954 52.9349 294 52.866 294.058 52.8079L299.866 47.0001L294.058 41.1923C293.94 41.075 293.875 40.916 293.875 40.7501C293.875 40.5843 293.94 40.4252 294.058 40.3079C294.175 40.1906 294.334 40.1248 294.5 40.1248C294.666 40.1248 294.825 40.1906 294.942 40.3079L301.192 46.5579C301.25 46.616 301.296 46.6849 301.328 46.7608C301.359 46.8366 301.375 46.918 301.375 47.0001C301.375 47.0822 301.359 47.1636 301.328 47.2394C301.296 47.3153 301.25 47.3842 301.192 47.4423Z" fill="black"/>
<rect x="16" y="91.5" width="75" height="22" rx="11" fill="#EEEEEE"/>
<path d="M30.5664 97.043V100.477H32.1367V101.25H30.5664V104.848H29.6523V97.043H30.5664ZM28.6562 98.3203V99.0703H22.4453V98.3203H25.0938V97.043H26.0078V98.3203H28.6562ZM25.5508 99.6445C27.0391 99.6445 28.0469 100.406 28.0586 101.59C28.0469 102.762 27.0391 103.512 25.5508 103.512C24.0508 103.512 23.0312 102.762 23.043 101.59C23.0312 100.406 24.0508 99.6445 25.5508 99.6445ZM25.5508 100.371C24.5664 100.371 23.9102 100.852 23.9219 101.59C23.9102 102.328 24.5664 102.797 25.5508 102.785C26.5234 102.797 27.1797 102.328 27.1914 101.59C27.1797 100.852 26.5234 100.371 25.5508 100.371ZM31.0469 106.453V107.227H24.0508V104.227H24.9531V106.453H31.0469ZM41.0781 97.5469V98.2969C41.0781 99.0762 41.0781 100.008 40.8203 101.262H42.332V102.012H37.9961V103.934H41.1484V107.449H40.2227V104.695H33.7773V103.934H37.082V102.012H32.793V101.262H39.8945C40.1641 99.9844 40.1641 99.0762 40.1641 98.2969H34V97.5469H41.0781ZM52.6914 103.348V104.109H48.3555V107.449H47.4531V104.109H43.1523V103.348H52.6914ZM51.6133 101.52V102.27H44.4297V97.5234H51.4961V98.2734H45.3438V99.4922H51.25V100.23H45.3438V101.52H51.6133ZM57.0625 100.23C57.0508 101.906 58.2578 103.746 59.7695 104.461L59.2422 105.188C58.0703 104.619 57.0801 103.377 56.6172 101.965C56.1367 103.5 55.0879 104.848 53.9219 105.445L53.3594 104.719C54.8594 103.992 56.1484 102.012 56.1602 100.23V98.8711H53.7344V98.1094H59.4062V98.8711H57.0625V100.23ZM61.5977 97.0312V101.25H63.3438V102.035H61.5977V107.449H60.6836V97.0312H61.5977ZM73.3984 101.988V102.75H63.9062V101.988H73.3984ZM68.6523 103.664C70.8906 103.664 72.2266 104.355 72.2383 105.551C72.2266 106.758 70.8906 107.426 68.6523 107.426C66.4023 107.426 65.0547 106.758 65.0547 105.551C65.0547 104.355 66.4023 103.664 68.6523 103.664ZM68.6523 104.391C66.9766 104.402 65.9805 104.812 65.9922 105.551C65.9805 106.277 66.9766 106.688 68.6523 106.688C70.3047 106.688 71.3125 106.277 71.3125 105.551C71.3125 104.812 70.3047 104.402 68.6523 104.391ZM72.5547 97.5703V98.332H69.25C69.2852 99.5156 71.0195 100.418 72.8711 100.629L72.5312 101.367C70.8262 101.15 69.2266 100.389 68.6523 99.2227C68.084 100.389 66.4902 101.15 64.7734 101.367L64.4453 100.629C66.2617 100.418 68.0078 99.5156 68.0547 98.332H64.7734V97.5703H72.5547ZM82.9023 97.043V104.918H81.9648V103.453H79.668V102.703H81.9648V97.043H82.9023ZM83.1602 106.453V107.227H75.7656V104.039H76.6914V106.453H83.1602ZM74.207 101.168C75.543 101.168 77.2246 101.15 78.8828 101.039C79.0879 99.8848 79.123 99.0234 79.1289 98.4258H75.1445V97.6758H80.043V98.0859C80.043 98.6602 80.043 99.6387 79.8203 100.957C80.2305 100.928 80.6289 100.881 81.0156 100.828L81.0859 101.496C80.1133 101.66 79.0938 101.76 78.0977 101.824V104.227H77.1836V101.871C76.1523 101.918 75.1797 101.93 74.3359 101.93L74.207 101.168Z" fill="#666666"/>
<rect x="97" y="91.5" width="75" height="22" rx="11" fill="#EEEEEE"/>
<path d="M109.012 98.1211C109 101.133 107.91 103.91 104.148 105.75L103.633 105.012C105.584 104.074 106.791 102.873 107.453 101.461L103.832 101.812L103.68 100.992L107.746 100.723C107.934 100.143 108.045 99.5273 108.086 98.8828H104.207V98.1211H109.012ZM112.035 97.0312V107.449H111.109V97.0312H112.035ZM118.539 97.2305C120.801 97.2305 122.219 97.957 122.219 99.1992C122.219 100.418 120.801 101.133 118.539 101.133C116.277 101.133 114.848 100.418 114.848 99.1992C114.848 97.957 116.277 97.2305 118.539 97.2305ZM118.539 97.957C116.852 97.957 115.785 98.4141 115.797 99.1992C115.785 99.9609 116.852 100.406 118.539 100.406C120.203 100.406 121.281 99.9609 121.281 99.1992C121.281 98.4141 120.203 97.957 118.539 97.957ZM122.125 103.887V107.309H114.953V103.887H118.082V102.691H113.793V101.93H123.285V102.691H118.984V103.887H122.125ZM115.867 104.625V106.559H121.223V104.625H115.867ZM133.691 103.348V104.109H129.355V107.449H128.453V104.109H124.152V103.348H133.691ZM132.613 101.52V102.27H125.43V97.5234H132.496V98.2734H126.344V99.4922H132.25V100.23H126.344V101.52H132.613ZM138.062 100.23C138.051 101.906 139.258 103.746 140.77 104.461L140.242 105.188C139.07 104.619 138.08 103.377 137.617 101.965C137.137 103.5 136.088 104.848 134.922 105.445L134.359 104.719C135.859 103.992 137.148 102.012 137.16 100.23V98.8711H134.734V98.1094H140.406V98.8711H138.062V100.23ZM142.598 97.0312V101.25H144.344V102.035H142.598V107.449H141.684V97.0312H142.598ZM154.398 101.988V102.75H144.906V101.988H154.398ZM149.652 103.664C151.891 103.664 153.227 104.355 153.238 105.551C153.227 106.758 151.891 107.426 149.652 107.426C147.402 107.426 146.055 106.758 146.055 105.551C146.055 104.355 147.402 103.664 149.652 103.664ZM149.652 104.391C147.977 104.402 146.98 104.812 146.992 105.551C146.98 106.277 147.977 106.688 149.652 106.688C151.305 106.688 152.312 106.277 152.312 105.551C152.312 104.812 151.305 104.402 149.652 104.391ZM153.555 97.5703V98.332H150.25C150.285 99.5156 152.02 100.418 153.871 100.629L153.531 101.367C151.826 101.15 150.227 100.389 149.652 99.2227C149.084 100.389 147.49 101.15 145.773 101.367L145.445 100.629C147.262 100.418 149.008 99.5156 149.055 98.332H145.773V97.5703H153.555ZM163.902 97.043V104.918H162.965V103.453H160.668V102.703H162.965V97.043H163.902ZM164.16 106.453V107.227H156.766V104.039H157.691V106.453H164.16ZM155.207 101.168C156.543 101.168 158.225 101.15 159.883 101.039C160.088 99.8848 160.123 99.0234 160.129 98.4258H156.145V97.6758H161.043V98.0859C161.043 98.6602 161.043 99.6387 160.82 100.957C161.23 100.928 161.629 100.881 162.016 100.828L162.086 101.496C161.113 101.66 160.094 101.76 159.098 101.824V104.227H158.184V101.871C157.152 101.918 156.18 101.93 155.336 101.93L155.207 101.168Z" fill="#666666"/>
</svg>
