<svg width="324" height="83" viewBox="0 0 324 83" fill="none" xmlns="http://www.w3.org/2000/svg">
<rect x="0.5" y="0.5" width="323" height="82" rx="4.5" stroke="#8E8E8E"/>
<path d="M15.5469 24.6094C15.5469 26.2969 16.7188 27.9219 18.9531 28.6094L18.1094 29.9688C16.5078 29.4844 15.3516 28.4609 14.7031 27.1562C14.0781 28.5625 12.9141 29.6719 11.2656 30.2031L10.4219 28.8438C12.6406 28.1406 13.8125 26.4219 13.8125 24.6094V24.3906H10.8594V23.0156H13.8125V21.3594H15.5625V23.0156H18.5V24.3906H15.5469V24.6094ZM22.2969 21.2812V31.7656H20.5625V26.875H18.0312V25.4844H20.5625V21.2812H22.2969ZM22.6562 33.7031V35.1094H13.0312V30.8594H14.7656V33.7031H22.6562ZM37.2031 32.2656V33.6875H24.2969V32.2656H29.8594V29.5156H25.7188V22.2031H27.4531V24.5156H34V22.2031H35.7344V29.5156H31.5781V32.2656H37.2031ZM27.4531 28.1094H34V25.9062H27.4531V28.1094Z" fill="black"/>
<path d="M11.5312 61H10.2461L13.8691 51.1016H15.168L18.791 61H17.4922L16.5078 58.2109H12.5293L11.5312 61ZM12.8984 57.1309H16.125L14.5527 52.7012H14.4707L12.8984 57.1309ZM21.3613 51.1016V61H20.1309V51.1016H21.3613ZM30.6855 52.1953C30.6855 53.7812 31.9023 55.2852 33.6797 55.9004L33.1191 56.748C31.7451 56.2559 30.6855 55.2373 30.166 53.9863C29.6396 55.3877 28.5186 56.5088 27.0762 57.0352L26.5156 56.1875C28.3066 55.5449 29.6055 53.918 29.6055 52.209V51.6758H26.8574V50.8008H33.4062V51.6758H30.6855V52.1953ZM36.5371 57.8828V62.1074H35.457V58.7715H28.3613V57.8828H36.5371ZM36.5371 49.9531V57.2402H35.457V54.041H33.0234V53.1387H35.457V49.9531H36.5371ZM49.6348 55.6406V56.5293H44.6172V57.8281C46.9141 57.9238 48.2676 58.6758 48.2812 59.9609C48.2676 61.3145 46.709 62.0801 44.0977 62.0801C41.459 62.0801 39.9004 61.3145 39.9004 59.9609C39.9004 58.6758 41.2471 57.9238 43.5645 57.8281V56.5293H38.5605V55.6406H49.6348ZM44.0977 58.6484C42.1426 58.6621 40.9805 59.1406 40.9941 59.9609C40.9805 60.7676 42.1426 61.2461 44.0977 61.2461C46.0254 61.2461 47.2012 60.7676 47.2012 59.9609C47.2012 59.1406 46.0254 58.6621 44.0977 58.6484ZM48.6504 50.5273V51.4023H44.7949C44.8633 52.7695 46.873 53.8291 49.0195 54.0547L48.623 54.9023C46.6338 54.6631 44.7676 53.7744 44.0977 52.4141C43.4346 53.7744 41.5752 54.6631 39.5723 54.9023L39.1895 54.0547C41.2949 53.8291 43.3184 52.7695 43.4004 51.4023H39.5723V50.5273H48.6504ZM61.7754 55.5039V56.3379H58.7676V57.4453H60.3809V60.0293H53.0801V61.1914H60.7773V61.9707H52V59.2773H59.3145V58.2383H51.9863V57.4453H53.668V56.3379H50.6465V55.5039H61.7754ZM60.3398 50.3223V52.8242H53.1621V53.8633H60.5586V54.6426H52.0957V52.0996H59.2598V51.0879H52.0547V50.3223H60.3398ZM54.7207 57.4453H57.7012V56.3379H54.7207V57.4453Z" fill="#444444"/>
<path d="M73.416 61.1367C71.2148 61.1367 69.6562 59.9609 69.6562 58.3477C69.6562 57.0898 70.5859 56.0645 71.7754 55.873V55.8184C70.7363 55.5996 70.0254 54.6973 70.0254 53.6172C70.0254 52.0859 71.4609 50.9648 73.416 50.9648C75.3574 50.9648 76.793 52.0859 76.793 53.6172C76.793 54.6973 76.0684 55.5996 75.043 55.8184V55.873C76.2324 56.0645 77.1758 57.0898 77.1758 58.3477C77.1758 59.9609 75.6035 61.1367 73.416 61.1367ZM73.416 59.7285C74.5781 59.7285 75.3438 59.0996 75.3438 58.1836C75.3438 57.2539 74.5234 56.5703 73.416 56.5703C72.2949 56.5703 71.4746 57.2539 71.4883 58.1836C71.4746 59.0996 72.2402 59.7285 73.416 59.7285ZM73.416 55.2441C74.373 55.2441 75.0566 54.6426 75.0566 53.7812C75.0566 52.9473 74.3867 52.3594 73.416 52.3594C72.4316 52.3594 71.7617 52.9336 71.7617 53.7812C71.7617 54.6426 72.4453 55.2441 73.416 55.2441ZM79.0215 61L83.3145 52.6602V52.5918H78.3379V51.1016H85.1602V52.6191L80.8672 61H79.0215ZM89.0293 55.9277C87.6211 55.9277 86.8555 54.8887 86.8555 53.3711C86.8555 51.8672 87.6484 50.8281 89.0293 50.8281C90.4648 50.8281 91.2168 51.8672 91.2168 53.3711C91.2168 54.9023 90.4375 55.9277 89.0293 55.9277ZM89.0293 54.834C89.6445 54.834 89.9453 54.2598 89.9453 53.3711C89.9453 52.5098 89.6719 51.9082 89.0293 51.9219C88.4277 51.9219 88.1133 52.5098 88.1133 53.3711C88.1133 54.2598 88.4277 54.834 89.0293 54.834ZM95.4961 61.2598C94.0879 61.2734 93.3223 60.2207 93.3223 58.7168C93.3223 57.1992 94.1152 56.1602 95.4961 56.1602C96.918 56.1602 97.6836 57.1992 97.6836 58.7168C97.6836 60.2344 96.9043 61.2734 95.4961 61.2598ZM95.4961 60.166C96.125 60.166 96.4121 59.5918 96.4121 58.7168C96.4121 57.8418 96.1387 57.2402 95.4961 57.2539C94.8945 57.2539 94.5801 57.8555 94.5801 58.7168C94.5801 59.5918 94.8945 60.166 95.4961 60.166ZM88.127 61L94.9355 51.1016H96.3164L89.5078 61H88.127Z" fill="#8E8E8E"/>
<rect x="264" y="16" width="50" height="50" rx="25" fill="#8E8E8E"/>
<path d="M283.866 35.4844V36.3193C283.866 37.2422 283.866 38.5752 283.559 40.2305L281.728 40.0547C281.962 38.7729 282.021 37.8062 282.035 37.0078H277.011V35.4844H283.866ZM280.556 38.5605V41.1094C281.881 41.0581 283.244 40.9556 284.496 40.7725L284.599 42.1201C281.83 42.6328 278.695 42.6768 276.381 42.6914L276.22 41.1973C276.967 41.1973 277.809 41.1973 278.695 41.168V38.5605H280.556ZM287.133 34.5176V38.5752H288.744V40.1426H287.133V44.4932H285.214V34.5176H287.133ZM287.543 46.1191V47.6133H278.183V43.5996H280.058V46.1191H287.543ZM296.156 35.4844V41.4316H289.755V35.4844H296.156ZM291.601 36.9639V39.9375H294.311V36.9639H291.601ZM299.936 34.5176V37.5352H301.737V39.0439H299.936V42.252H298.061V34.5176H299.936ZM295.57 42.5889C298.31 42.5889 300.067 43.585 300.067 45.2256C300.067 46.8809 298.31 47.8623 295.57 47.8623C292.772 47.8623 291 46.8809 291 45.2256C291 43.585 292.772 42.5889 295.57 42.5889ZM295.57 44.0684C293.812 44.0684 292.86 44.4639 292.875 45.2256C292.86 46.0166 293.812 46.3828 295.57 46.3828C297.299 46.3828 298.222 46.0166 298.222 45.2256C298.222 44.4639 297.299 44.0684 295.57 44.0684Z" fill="white"/>
</svg>
