<svg width="324" height="83" viewBox="0 0 324 83" fill="none" xmlns="http://www.w3.org/2000/svg">
<rect x="0.5" y="0.5" width="323" height="82" rx="4.5" stroke="#FF7417"/>
<path d="M21.5312 21.2656V26.8906H23.7031V28.3281H21.5312V35.3906H19.8125V21.2656H21.5312ZM18.7188 23.4375V24.8281H10.3906V23.4375H13.7344V21.4688H15.4688V23.4375H18.7188ZM14.6094 25.75C16.6406 25.75 18.1562 27.125 18.1562 29.0781C18.1562 31.0312 16.6406 32.3906 14.6094 32.3906C12.5469 32.3906 11.0312 31.0312 11.0469 29.0781C11.0312 27.125 12.5469 25.75 14.6094 25.75ZM14.6094 27.1719C13.5 27.1719 12.7031 27.9219 12.7031 29.0781C12.7031 30.2344 13.5 30.9688 14.6094 30.9531C15.6875 30.9688 16.4844 30.2344 16.5 29.0781C16.4844 27.9219 15.6875 27.1719 14.6094 27.1719ZM37.4531 26.7188V28.1406H35.3594V35.3594H33.625V21.2656H35.3594V26.7188H37.4531ZM26.5156 22.6406V30.4375C28.3984 30.4062 30.4062 30.2422 32.5312 29.7969L32.7188 31.2656C30.3438 31.7344 28.0781 31.875 25.9844 31.875H24.7969V22.6406H26.5156ZM49.4531 21.9531V23.0469C49.4531 24.1406 49.4531 25.3906 49.1094 27.0625H51.0312V28.4688H38.125V27.0625H47.3594C47.6875 25.5391 47.7188 24.375 47.7188 23.3438H39.7188V21.9531H49.4531ZM49.4375 30.1094V35.2188H39.6719V30.1094H49.4375ZM41.375 31.4688V33.8125H47.7188V31.4688H41.375ZM64.8281 27.6875V29.1094H61.8438V30.875C62.7578 31.3125 63.2578 31.9688 63.2656 32.8281C63.25 34.4688 61.4219 35.3906 58.375 35.3906C55.2969 35.3906 53.4531 34.4688 53.4531 32.8281C53.4531 31.9453 53.9844 31.2812 54.9531 30.8438V29.1094H51.9531V27.6875H64.8281ZM58.375 30.2812C59.0078 30.2812 59.5859 30.3203 60.1094 30.3906V29.1094H56.7031V30.375C57.2109 30.3203 57.7656 30.2812 58.375 30.2812ZM58.375 31.5938C56.3125 31.5938 55.2031 32.0156 55.2188 32.8281C55.2031 33.6406 56.3125 34.0469 58.375 34.0469C60.3906 34.0469 61.5156 33.6406 61.5312 32.8281C61.5156 32.0156 60.3906 31.5938 58.375 31.5938ZM58.375 21.5156C61.4844 21.5156 63.4531 22.5312 63.4688 24.2188C63.4531 25.8906 61.4844 26.8906 58.375 26.8906C55.2656 26.8906 53.2812 25.8906 53.2812 24.2188C53.2812 22.5312 55.2656 21.5156 58.375 21.5156ZM58.375 22.875C56.3125 22.875 55.0781 23.3438 55.0938 24.2188C55.0781 25.0781 56.3125 25.5469 58.375 25.5469C60.4375 25.5469 61.6719 25.0781 61.6719 24.2188C61.6719 23.3438 60.4375 22.875 58.375 22.875ZM71.1094 25.2812C71.1094 27.5938 72.4688 30.0312 74.75 30.9844L73.7969 32.3594C72.125 31.6406 70.9062 30.1562 70.2656 28.3594C69.6094 30.2969 68.375 31.9219 66.7188 32.7031L65.7188 31.3438C67.9531 30.3125 69.3438 27.6875 69.3438 25.2812V24.0938H66.2344V22.6562H74.2031V24.0938H71.1094V25.2812ZM77.5312 21.2656V35.3906H75.7812V21.2656H77.5312ZM92.4844 29.1406V30.5469H86.875V35.375H85.1562V30.5469H79.6094V29.1406H92.4844ZM91.2969 22.0625V23.4375H87.0625C87.1641 24.9844 89.0234 26.4688 91.8125 26.8281L91.1875 28.1875C88.7812 27.8516 86.9062 26.75 86.0469 25.2188C85.1875 26.75 83.3125 27.8516 80.9375 28.1875L80.2812 26.8281C83.0547 26.4688 84.9141 24.9844 85.0469 23.4375H80.7969V22.0625H91.2969Z" fill="black"/>
<path d="M11.5312 61H10.2461L13.8691 51.1016H15.168L18.791 61H17.4922L16.5078 58.2109H12.5293L11.5312 61ZM12.8984 57.1309H16.125L14.5527 52.7012H14.4707L12.8984 57.1309ZM21.3613 51.1016V61H20.1309V51.1016H21.3613ZM30.6855 52.1953C30.6855 53.7812 31.9023 55.2852 33.6797 55.9004L33.1191 56.748C31.7451 56.2559 30.6855 55.2373 30.166 53.9863C29.6396 55.3877 28.5186 56.5088 27.0762 57.0352L26.5156 56.1875C28.3066 55.5449 29.6055 53.918 29.6055 52.209V51.6758H26.8574V50.8008H33.4062V51.6758H30.6855V52.1953ZM36.5371 57.8828V62.1074H35.457V58.7715H28.3613V57.8828H36.5371ZM36.5371 49.9531V57.2402H35.457V54.041H33.0234V53.1387H35.457V49.9531H36.5371ZM49.6348 55.6406V56.5293H44.6172V57.8281C46.9141 57.9238 48.2676 58.6758 48.2812 59.9609C48.2676 61.3145 46.709 62.0801 44.0977 62.0801C41.459 62.0801 39.9004 61.3145 39.9004 59.9609C39.9004 58.6758 41.2471 57.9238 43.5645 57.8281V56.5293H38.5605V55.6406H49.6348ZM44.0977 58.6484C42.1426 58.6621 40.9805 59.1406 40.9941 59.9609C40.9805 60.7676 42.1426 61.2461 44.0977 61.2461C46.0254 61.2461 47.2012 60.7676 47.2012 59.9609C47.2012 59.1406 46.0254 58.6621 44.0977 58.6484ZM48.6504 50.5273V51.4023H44.7949C44.8633 52.7695 46.873 53.8291 49.0195 54.0547L48.623 54.9023C46.6338 54.6631 44.7676 53.7744 44.0977 52.4141C43.4346 53.7744 41.5752 54.6631 39.5723 54.9023L39.1895 54.0547C41.2949 53.8291 43.3184 52.7695 43.4004 51.4023H39.5723V50.5273H48.6504ZM61.7754 55.5039V56.3379H58.7676V57.4453H60.3809V60.0293H53.0801V61.1914H60.7773V61.9707H52V59.2773H59.3145V58.2383H51.9863V57.4453H53.668V56.3379H50.6465V55.5039H61.7754ZM60.3398 50.3223V52.8242H53.1621V53.8633H60.5586V54.6426H52.0957V52.0996H59.2598V51.0879H52.0547V50.3223H60.3398ZM54.7207 57.4453H57.7012V56.3379H54.7207V57.4453Z" fill="#444444"/>
<path d="M73.8398 51.1016V61H72.0488V52.8379H71.9941L69.6836 54.3145V52.6875L72.1309 51.1016H73.8398ZM79.8965 61.1367C77.5176 61.1367 76.0957 59.291 76.0957 56.0508C76.0957 52.8242 77.5176 50.9648 79.8965 50.9648C82.2617 50.9648 83.6973 52.8242 83.6973 56.0508C83.6973 59.291 82.2754 61.1367 79.8965 61.1367ZM79.8965 59.6465C81.1406 59.6465 81.9062 58.4297 81.9062 56.0508C81.9062 53.6855 81.127 52.4414 79.8965 52.4414C78.666 52.4414 77.8867 53.6855 77.8867 56.0508C77.8867 58.4297 78.6523 59.6465 79.8965 59.6465ZM88.8379 61.1367C86.459 61.1367 85.0371 59.291 85.0371 56.0508C85.0371 52.8242 86.459 50.9648 88.8379 50.9648C91.2031 50.9648 92.6387 52.8242 92.6387 56.0508C92.6387 59.291 91.2168 61.1367 88.8379 61.1367ZM88.8379 59.6465C90.082 59.6465 90.8477 58.4297 90.8477 56.0508C90.8477 53.6855 90.0684 52.4414 88.8379 52.4414C87.6074 52.4414 86.8281 53.6855 86.8281 56.0508C86.8281 58.4297 87.5938 59.6465 88.8379 59.6465ZM96.5625 55.9277C95.1543 55.9277 94.3887 54.8887 94.3887 53.3711C94.3887 51.8672 95.1816 50.8281 96.5625 50.8281C97.998 50.8281 98.75 51.8672 98.75 53.3711C98.75 54.9023 97.9707 55.9277 96.5625 55.9277ZM96.5625 54.834C97.1777 54.834 97.4785 54.2598 97.4785 53.3711C97.4785 52.5098 97.2051 51.9082 96.5625 51.9219C95.9609 51.9219 95.6465 52.5098 95.6465 53.3711C95.6465 54.2598 95.9609 54.834 96.5625 54.834ZM103.029 61.2598C101.621 61.2734 100.855 60.2207 100.855 58.7168C100.855 57.1992 101.648 56.1602 103.029 56.1602C104.451 56.1602 105.217 57.1992 105.217 58.7168C105.217 60.2344 104.438 61.2734 103.029 61.2598ZM103.029 60.166C103.658 60.166 103.945 59.5918 103.945 58.7168C103.945 57.8418 103.672 57.2402 103.029 57.2539C102.428 57.2539 102.113 57.8555 102.113 58.7168C102.113 59.5918 102.428 60.166 103.029 60.166ZM95.6602 61L102.469 51.1016H103.85L97.041 61H95.6602Z" fill="#FF7417"/>
<rect x="264" y="16" width="50" height="50" rx="25" fill="#FF7417"/>
<path d="M288.598 44.7715V46.2949H276.396V44.7715H281.537V42.3105H277.685V35.3672H279.56V37.4326H285.375V35.3672H287.235V42.3105H283.397V44.7715H288.598ZM279.56 40.8164H285.375V38.9268H279.56V40.8164ZM301.547 41.9297V43.4385H298.69V47.8477H296.786V43.4385H294.062V47.8477H292.143V43.4385H289.345V41.9297H301.547ZM295.409 34.957C298.266 34.957 300.272 36.1436 300.272 37.9746C300.272 39.7764 298.266 40.9043 295.409 40.9043C292.553 40.9043 290.561 39.7764 290.575 37.9746C290.561 36.1436 292.553 34.957 295.409 34.957ZM295.409 36.4512C293.622 36.4512 292.479 36.9932 292.494 37.9746C292.479 38.9121 293.622 39.4395 295.409 39.4395C297.211 39.4395 298.339 38.9121 298.339 37.9746C298.339 36.9932 297.211 36.4512 295.409 36.4512Z" fill="white"/>
</svg>
