<svg width="325" height="140" viewBox="0 0 325 140" fill="none" xmlns="http://www.w3.org/2000/svg">
<rect width="325" height="140" rx="12" fill="white"/>
<path d="M27.96 34.112C27.1813 34.112 26.4773 33.9787 25.848 33.712C25.2293 33.4453 24.7387 33.0613 24.376 32.56C24.0133 32.0587 23.8267 31.4667 23.816 30.784H26.216C26.248 31.2427 26.408 31.6053 26.696 31.872C26.9947 32.1387 27.4 32.272 27.912 32.272C28.4347 32.272 28.8453 32.1493 29.144 31.904C29.4427 31.648 29.592 31.3173 29.592 30.912C29.592 30.5813 29.4907 30.3093 29.288 30.096C29.0853 29.8827 28.8293 29.7173 28.52 29.6C28.2213 29.472 27.8053 29.3333 27.272 29.184C26.5467 28.9707 25.9547 28.7627 25.496 28.56C25.048 28.3467 24.6587 28.032 24.328 27.616C24.008 27.1893 23.848 26.624 23.848 25.92C23.848 25.2587 24.0133 24.6827 24.344 24.192C24.6747 23.7013 25.1387 23.328 25.736 23.072C26.3333 22.8053 27.016 22.672 27.784 22.672C28.936 22.672 29.8693 22.9547 30.584 23.52C31.3093 24.0747 31.7093 24.8533 31.784 25.856H29.32C29.2987 25.472 29.1333 25.1573 28.824 24.912C28.5253 24.656 28.1253 24.528 27.624 24.528C27.1867 24.528 26.8347 24.64 26.568 24.864C26.312 25.088 26.184 25.4133 26.184 25.84C26.184 26.1387 26.28 26.3893 26.472 26.592C26.6747 26.784 26.92 26.944 27.208 27.072C27.5067 27.1893 27.9227 27.328 28.456 27.488C29.1813 27.7013 29.7733 27.9147 30.232 28.128C30.6907 28.3413 31.0853 28.6613 31.416 29.088C31.7467 29.5147 31.912 30.0747 31.912 30.768C31.912 31.3653 31.7573 31.92 31.448 32.432C31.1387 32.944 30.6853 33.3547 30.088 33.664C29.4907 33.9627 28.7813 34.112 27.96 34.112ZM40.258 34L36.194 29.024V34H33.954V22.832H36.194V27.84L40.258 22.832H42.962L38.354 28.368L43.09 34H40.258ZM53.7034 20.608H55.8314V35.424H53.7034V20.608ZM55.3514 26.384H57.9594V28.144H55.3514V26.384ZM44.1354 22.784H52.7754V24.48H44.1354V22.784ZM48.4874 25.328C49.202 25.328 49.842 25.4827 50.4074 25.792C50.9727 26.0907 51.4154 26.5013 51.7354 27.024C52.066 27.5467 52.2314 28.1547 52.2314 28.848C52.2314 29.5413 52.066 30.1547 51.7354 30.688C51.4154 31.2107 50.9727 31.6267 50.4074 31.936C49.8527 32.2347 49.2127 32.384 48.4874 32.384C47.7727 32.384 47.1274 32.2347 46.5514 31.936C45.986 31.6267 45.538 31.2107 45.2074 30.688C44.8874 30.1547 44.7274 29.5413 44.7274 28.848C44.7274 28.1547 44.8874 27.5467 45.2074 27.024C45.538 26.5013 45.986 26.0907 46.5514 25.792C47.1274 25.4827 47.7727 25.328 48.4874 25.328ZM48.4874 27.056C48.146 27.056 47.8474 27.1253 47.5914 27.264C47.3354 27.4027 47.1327 27.6053 46.9834 27.872C46.834 28.1387 46.7594 28.464 46.7594 28.848C46.7594 29.2213 46.834 29.5467 46.9834 29.824C47.1327 30.0907 47.3354 30.2987 47.5914 30.448C47.8474 30.5867 48.146 30.656 48.4874 30.656C48.818 30.656 49.1114 30.5867 49.3674 30.448C49.6234 30.2987 49.826 30.0907 49.9754 29.824C50.1247 29.5467 50.1994 29.2213 50.1994 28.848C50.1994 28.464 50.1247 28.1387 49.9754 27.872C49.826 27.6053 49.6234 27.4027 49.3674 27.264C49.1114 27.1253 48.818 27.056 48.4874 27.056ZM47.3994 20.848H49.5434V23.44H47.3994V20.848ZM69.1941 20.576H71.3221V35.44H69.1941V20.576ZM63.3381 21.616C64.0955 21.616 64.7675 21.8347 65.3541 22.272C65.9408 22.6987 66.3995 23.312 66.7301 24.112C67.0715 24.9013 67.2421 25.8347 67.2421 26.912C67.2421 28 67.0715 28.944 66.7301 29.744C66.3995 30.5333 65.9408 31.1467 65.3541 31.584C64.7675 32.0107 64.0955 32.224 63.3381 32.224C62.5915 32.224 61.9248 32.0107 61.3381 31.584C60.7515 31.1467 60.2875 30.5333 59.9461 29.744C59.6155 28.944 59.4501 28 59.4501 26.912C59.4501 25.8347 59.6155 24.9013 59.9461 24.112C60.2875 23.312 60.7515 22.6987 61.3381 22.272C61.9248 21.8347 62.5915 21.616 63.3381 21.616ZM63.3381 23.552C62.9755 23.552 62.6555 23.68 62.3781 23.936C62.1008 24.192 61.8821 24.5707 61.7221 25.072C61.5728 25.5627 61.4981 26.176 61.4981 26.912C61.4981 27.6373 61.5728 28.256 61.7221 28.768C61.8821 29.2693 62.1008 29.648 62.3781 29.904C62.6555 30.16 62.9755 30.288 63.3381 30.288C63.7115 30.288 64.0368 30.16 64.3141 29.904C64.5915 29.648 64.8048 29.2693 64.9541 28.768C65.1141 28.256 65.1941 27.6373 65.1941 26.912C65.1941 26.176 65.1141 25.5627 64.9541 25.072C64.8048 24.5707 64.5915 24.192 64.3141 23.936C64.0368 23.68 63.7115 23.552 63.3381 23.552ZM76.0609 29.664H86.1569V35.44H84.0289V31.36H76.0609V29.664ZM84.0289 20.624H86.1569V29.04H84.0289V20.624ZM74.6849 21.392H76.7969V27.488H74.6849V21.392ZM74.6849 26.528H75.9649C77.0209 26.528 78.1249 26.4853 79.2769 26.4C80.4289 26.3147 81.6075 26.1547 82.8129 25.92L83.0689 27.632C81.8209 27.8773 80.5995 28.048 79.4049 28.144C78.2102 28.24 77.0635 28.288 75.9649 28.288H74.6849V26.528ZM94.1756 21.456H96.0156V22.528C96.0156 23.168 95.925 23.792 95.7436 24.4C95.573 24.9973 95.317 25.5627 94.9756 26.096C94.6343 26.6293 94.213 27.1147 93.7116 27.552C93.221 27.9787 92.6556 28.3467 92.0156 28.656C91.3756 28.9653 90.6716 29.1947 89.9036 29.344L88.9916 27.568C89.653 27.4507 90.2556 27.2747 90.7996 27.04C91.3543 26.7947 91.8396 26.5013 92.2556 26.16C92.6716 25.8187 93.0236 25.4507 93.3116 25.056C93.5996 24.6507 93.813 24.2347 93.9516 23.808C94.101 23.3707 94.1756 22.944 94.1756 22.528V21.456ZM94.5916 21.456H96.4476V22.528C96.4476 22.9547 96.517 23.3867 96.6556 23.824C96.805 24.2613 97.0183 24.6827 97.2956 25.088C97.5836 25.4827 97.9356 25.8453 98.3516 26.176C98.7676 26.5067 99.2476 26.7947 99.7916 27.04C100.336 27.2747 100.949 27.4507 101.632 27.568L100.72 29.344C99.9516 29.1947 99.2476 28.9653 98.6076 28.656C97.9676 28.3467 97.397 27.9787 96.8956 27.552C96.405 27.1253 95.9836 26.6453 95.6316 26.112C95.2903 25.5787 95.029 25.008 94.8476 24.4C94.677 23.792 94.5916 23.168 94.5916 22.528V21.456ZM88.6716 31.872H102.096V33.616H88.6716V31.872Z" fill="black"/>
<path d="M24.552 87.472C25.576 86.6187 26.392 85.9093 27 85.344C27.608 84.768 28.1147 84.1707 28.52 83.552C28.9253 82.9333 29.128 82.3253 29.128 81.728C29.128 81.184 29 80.7573 28.744 80.448C28.488 80.1387 28.0933 79.984 27.56 79.984C27.0267 79.984 26.616 80.1653 26.328 80.528C26.04 80.88 25.8907 81.3653 25.88 81.984H23.704C23.7467 80.704 24.1253 79.7333 24.84 79.072C25.5653 78.4107 26.4827 78.08 27.592 78.08C28.808 78.08 29.7413 78.4053 30.392 79.056C31.0427 79.696 31.368 80.544 31.368 81.6C31.368 82.432 31.144 83.2267 30.696 83.984C30.248 84.7413 29.736 85.4027 29.16 85.968C28.584 86.5227 27.832 87.1947 26.904 87.984H31.624V89.84H23.72V88.176L24.552 87.472ZM33.8395 87.472C34.8635 86.6187 35.6795 85.9093 36.2875 85.344C36.8955 84.768 37.4022 84.1707 37.8075 83.552C38.2128 82.9333 38.4155 82.3253 38.4155 81.728C38.4155 81.184 38.2875 80.7573 38.0315 80.448C37.7755 80.1387 37.3808 79.984 36.8475 79.984C36.3142 79.984 35.9035 80.1653 35.6155 80.528C35.3275 80.88 35.1782 81.3653 35.1675 81.984H32.9915C33.0342 80.704 33.4128 79.7333 34.1275 79.072C34.8528 78.4107 35.7702 78.08 36.8795 78.08C38.0955 78.08 39.0288 78.4053 39.6795 79.056C40.3302 79.696 40.6555 80.544 40.6555 81.6C40.6555 82.432 40.4315 83.2267 39.9835 83.984C39.5355 84.7413 39.0235 85.4027 38.4475 85.968C37.8715 86.5227 37.1195 87.1947 36.1915 87.984H40.9115V89.84H33.0075V88.176L33.8395 87.472ZM43.127 87.472C44.151 86.6187 44.967 85.9093 45.575 85.344C46.183 84.768 46.6897 84.1707 47.095 83.552C47.5003 82.9333 47.703 82.3253 47.703 81.728C47.703 81.184 47.575 80.7573 47.319 80.448C47.063 80.1387 46.6683 79.984 46.135 79.984C45.6017 79.984 45.191 80.1653 44.903 80.528C44.615 80.88 44.4657 81.3653 44.455 81.984H42.279C42.3217 80.704 42.7003 79.7333 43.415 79.072C44.1403 78.4107 45.0577 78.08 46.167 78.08C47.383 78.08 48.3163 78.4053 48.967 79.056C49.6177 79.696 49.943 80.544 49.943 81.6C49.943 82.432 49.719 83.2267 49.271 83.984C48.823 84.7413 48.311 85.4027 47.735 85.968C47.159 86.5227 46.407 87.1947 45.479 87.984H50.199V89.84H42.295V88.176L43.127 87.472ZM54.4145 87.648L52.5425 92.144H51.1025L52.1425 87.648H54.4145ZM55.873 84.016C55.873 82.1707 56.2037 80.7253 56.865 79.68C57.537 78.6347 58.6463 78.112 60.193 78.112C61.7397 78.112 62.8437 78.6347 63.505 79.68C64.177 80.7253 64.513 82.1707 64.513 84.016C64.513 85.872 64.177 87.328 63.505 88.384C62.8437 89.44 61.7397 89.968 60.193 89.968C58.6463 89.968 57.537 89.44 56.865 88.384C56.2037 87.328 55.873 85.872 55.873 84.016ZM62.305 84.016C62.305 83.2267 62.2517 82.5653 62.145 82.032C62.049 81.488 61.8463 81.0453 61.537 80.704C61.2383 80.3627 60.7903 80.192 60.193 80.192C59.5957 80.192 59.1423 80.3627 58.833 80.704C58.5343 81.0453 58.3317 81.488 58.225 82.032C58.129 82.5653 58.081 83.2267 58.081 84.016C58.081 84.8267 58.129 85.5093 58.225 86.064C58.321 86.608 58.5237 87.0507 58.833 87.392C59.1423 87.7227 59.5957 87.888 60.193 87.888C60.7903 87.888 61.2437 87.7227 61.553 87.392C61.8623 87.0507 62.065 86.608 62.161 86.064C62.257 85.5093 62.305 84.8267 62.305 84.016ZM66.3168 84.016C66.3168 82.1707 66.6474 80.7253 67.3088 79.68C67.9808 78.6347 69.0901 78.112 70.6368 78.112C72.1834 78.112 73.2874 78.6347 73.9488 79.68C74.6208 80.7253 74.9568 82.1707 74.9568 84.016C74.9568 85.872 74.6208 87.328 73.9488 88.384C73.2874 89.44 72.1834 89.968 70.6368 89.968C69.0901 89.968 67.9808 89.44 67.3088 88.384C66.6474 87.328 66.3168 85.872 66.3168 84.016ZM72.7488 84.016C72.7488 83.2267 72.6954 82.5653 72.5888 82.032C72.4928 81.488 72.2901 81.0453 71.9808 80.704C71.6821 80.3627 71.2341 80.192 70.6368 80.192C70.0394 80.192 69.5861 80.3627 69.2768 80.704C68.9781 81.0453 68.7754 81.488 68.6688 82.032C68.5728 82.5653 68.5248 83.2267 68.5248 84.016C68.5248 84.8267 68.5728 85.5093 68.6688 86.064C68.7648 86.608 68.9674 87.0507 69.2768 87.392C69.5861 87.7227 70.0394 87.888 70.6368 87.888C71.2341 87.888 71.6874 87.7227 71.9968 87.392C72.3061 87.0507 72.5088 86.608 72.6048 86.064C72.7008 85.5093 72.7488 84.8267 72.7488 84.016ZM76.7605 84.016C76.7605 82.1707 77.0912 80.7253 77.7525 79.68C78.4245 78.6347 79.5338 78.112 81.0805 78.112C82.6272 78.112 83.7312 78.6347 84.3925 79.68C85.0645 80.7253 85.4005 82.1707 85.4005 84.016C85.4005 85.872 85.0645 87.328 84.3925 88.384C83.7312 89.44 82.6272 89.968 81.0805 89.968C79.5338 89.968 78.4245 89.44 77.7525 88.384C77.0912 87.328 76.7605 85.872 76.7605 84.016ZM83.1925 84.016C83.1925 83.2267 83.1392 82.5653 83.0325 82.032C82.9365 81.488 82.7338 81.0453 82.4245 80.704C82.1258 80.3627 81.6778 80.192 81.0805 80.192C80.4832 80.192 80.0298 80.3627 79.7205 80.704C79.4218 81.0453 79.2192 81.488 79.1125 82.032C79.0165 82.5653 78.9685 83.2267 78.9685 84.016C78.9685 84.8267 79.0165 85.5093 79.1125 86.064C79.2085 86.608 79.4112 87.0507 79.7205 87.392C80.0298 87.7227 80.4832 87.888 81.0805 87.888C81.6778 87.888 82.1312 87.7227 82.4405 87.392C82.7498 87.0507 82.9525 86.608 83.0485 86.064C83.1445 85.5093 83.1925 84.8267 83.1925 84.016Z" fill="black"/>
<path d="M23.663 110L28.902 100.939L34.128 110H23.663ZM45.0508 101.524L41.4368 110H40.2408L43.9068 101.641H38.8888V100.627H45.0508V101.524ZM47.8794 108.362L46.4234 111.859H45.6304L46.5794 108.362H47.8794ZM50.8556 105.112C50.3703 104.921 49.9976 104.644 49.7376 104.28C49.4776 103.916 49.3476 103.474 49.3476 102.954C49.3476 102.486 49.4646 102.066 49.6986 101.693C49.9326 101.312 50.2793 101.013 50.7386 100.796C51.2066 100.571 51.7699 100.458 52.4286 100.458C53.0873 100.458 53.6463 100.571 54.1056 100.796C54.5736 101.013 54.9246 101.312 55.1586 101.693C55.4013 102.066 55.5226 102.486 55.5226 102.954C55.5226 103.457 55.3883 103.899 55.1196 104.28C54.8509 104.653 54.4826 104.93 54.0146 105.112C54.5519 105.277 54.9766 105.567 55.2886 105.983C55.6093 106.39 55.7696 106.884 55.7696 107.465C55.7696 108.028 55.6309 108.522 55.3536 108.947C55.0763 109.363 54.6819 109.688 54.1706 109.922C53.6679 110.147 53.0873 110.26 52.4286 110.26C51.7699 110.26 51.1893 110.147 50.6866 109.922C50.1926 109.688 49.8069 109.363 49.5296 108.947C49.2523 108.522 49.1136 108.028 49.1136 107.465C49.1136 106.884 49.2696 106.386 49.5816 105.97C49.8936 105.554 50.3183 105.268 50.8556 105.112ZM54.3786 103.097C54.3786 102.568 54.2053 102.161 53.8586 101.875C53.5119 101.589 53.0353 101.446 52.4286 101.446C51.8306 101.446 51.3583 101.589 51.0116 101.875C50.6649 102.161 50.4916 102.573 50.4916 103.11C50.4916 103.595 50.6693 103.985 51.0246 104.28C51.3886 104.575 51.8566 104.722 52.4286 104.722C53.0093 104.722 53.4773 104.575 53.8326 104.28C54.1966 103.977 54.3786 103.582 54.3786 103.097ZM52.4286 105.632C51.7873 105.632 51.2629 105.784 50.8556 106.087C50.4483 106.382 50.2446 106.828 50.2446 107.426C50.2446 107.981 50.4396 108.427 50.8296 108.765C51.2283 109.103 51.7613 109.272 52.4286 109.272C53.0959 109.272 53.6246 109.103 54.0146 108.765C54.4046 108.427 54.5996 107.981 54.5996 107.426C54.5996 106.845 54.4003 106.403 54.0016 106.1C53.6029 105.788 53.0786 105.632 52.4286 105.632ZM57.4408 105.203C57.4408 103.712 57.6834 102.551 58.1688 101.719C58.6541 100.878 59.5034 100.458 60.7168 100.458C61.9214 100.458 62.7664 100.878 63.2518 101.719C63.7371 102.551 63.9798 103.712 63.9798 105.203C63.9798 106.72 63.7371 107.898 63.2518 108.739C62.7664 109.58 61.9214 110 60.7168 110C59.5034 110 58.6541 109.58 58.1688 108.739C57.6834 107.898 57.4408 106.72 57.4408 105.203ZM62.8098 105.203C62.8098 104.449 62.7578 103.812 62.6538 103.292C62.5584 102.763 62.3548 102.339 62.0428 102.018C61.7394 101.697 61.2974 101.537 60.7168 101.537C60.1274 101.537 59.6768 101.697 59.3648 102.018C59.0614 102.339 58.8578 102.763 58.7538 103.292C58.6584 103.812 58.6108 104.449 58.6108 105.203C58.6108 105.983 58.6584 106.637 58.7538 107.166C58.8578 107.695 59.0614 108.119 59.3648 108.44C59.6768 108.761 60.1274 108.921 60.7168 108.921C61.2974 108.921 61.7394 108.761 62.0428 108.44C62.3548 108.119 62.5584 107.695 62.6538 107.166C62.7578 106.637 62.8098 105.983 62.8098 105.203ZM65.7039 105.203C65.7039 103.712 65.9465 102.551 66.4319 101.719C66.9172 100.878 67.7665 100.458 68.9799 100.458C70.1845 100.458 71.0295 100.878 71.5149 101.719C72.0002 102.551 72.2429 103.712 72.2429 105.203C72.2429 106.72 72.0002 107.898 71.5149 108.739C71.0295 109.58 70.1845 110 68.9799 110C67.7665 110 66.9172 109.58 66.4319 108.739C65.9465 107.898 65.7039 106.72 65.7039 105.203ZM71.0729 105.203C71.0729 104.449 71.0209 103.812 70.9169 103.292C70.8215 102.763 70.6179 102.339 70.3059 102.018C70.0025 101.697 69.5605 101.537 68.9799 101.537C68.3905 101.537 67.9399 101.697 67.6279 102.018C67.3245 102.339 67.1209 102.763 67.0169 103.292C66.9215 103.812 66.8739 104.449 66.8739 105.203C66.8739 105.983 66.9215 106.637 67.0169 107.166C67.1209 107.695 67.3245 108.119 67.6279 108.44C67.9399 108.761 68.3905 108.921 68.9799 108.921C69.5605 108.921 70.0025 108.761 70.3059 108.44C70.6179 108.119 70.8215 107.695 70.9169 107.166C71.0209 106.637 71.0729 105.983 71.0729 105.203Z" fill="#F61C7A"/>
<path d="M30.761 63.749H27.992V66.557H26.887V63.749H24.131V62.748H26.887V59.927H27.992V62.748H30.761V63.749ZM32.78 63.203C32.78 61.7123 33.0227 60.551 33.508 59.719C33.9934 58.8783 34.8427 58.458 36.056 58.458C37.2607 58.458 38.1057 58.8783 38.591 59.719C39.0764 60.551 39.319 61.7123 39.319 63.203C39.319 64.7197 39.0764 65.8983 38.591 66.739C38.1057 67.5797 37.2607 68 36.056 68C34.8427 68 33.9934 67.5797 33.508 66.739C33.0227 65.8983 32.78 64.7197 32.78 63.203ZM38.149 63.203C38.149 62.449 38.097 61.812 37.993 61.292C37.8977 60.7633 37.694 60.3387 37.382 60.018C37.0787 59.6973 36.6367 59.537 36.056 59.537C35.4667 59.537 35.016 59.6973 34.704 60.018C34.4007 60.3387 34.197 60.7633 34.093 61.292C33.9977 61.812 33.95 62.449 33.95 63.203C33.95 63.983 33.9977 64.6373 34.093 65.166C34.197 65.6947 34.4007 66.1193 34.704 66.44C35.016 66.7607 35.4667 66.921 36.056 66.921C36.6367 66.921 37.0787 66.7607 37.382 66.44C37.694 66.1193 37.8977 65.6947 37.993 65.166C38.097 64.6373 38.149 63.983 38.149 63.203ZM41.6151 68.078C41.3898 68.078 41.1991 68 41.0431 67.844C40.8871 67.688 40.8091 67.4973 40.8091 67.272C40.8091 67.0467 40.8871 66.856 41.0431 66.7C41.1991 66.544 41.3898 66.466 41.6151 66.466C41.8318 66.466 42.0138 66.544 42.1611 66.7C42.3171 66.856 42.3951 67.0467 42.3951 67.272C42.3951 67.4973 42.3171 67.688 42.1611 67.844C42.0138 68 41.8318 68.078 41.6151 68.078ZM49.8656 59.628H45.3026V62.592C45.5019 62.3147 45.7966 62.0893 46.1866 61.916C46.5766 61.734 46.9969 61.643 47.4476 61.643C48.1669 61.643 48.7519 61.7947 49.2026 62.098C49.6533 62.3927 49.9739 62.7783 50.1646 63.255C50.3639 63.723 50.4636 64.2213 50.4636 64.75C50.4636 65.374 50.3466 65.933 50.1126 66.427C49.8786 66.921 49.5189 67.311 49.0336 67.597C48.5569 67.883 47.9633 68.026 47.2526 68.026C46.3426 68.026 45.6059 67.792 45.0426 67.324C44.4793 66.856 44.1369 66.232 44.0156 65.452H45.1726C45.2853 65.946 45.5236 66.3317 45.8876 66.609C46.2516 66.8863 46.7109 67.025 47.2656 67.025C47.9503 67.025 48.4659 66.8213 48.8126 66.414C49.1593 65.998 49.3326 65.452 49.3326 64.776C49.3326 64.1 49.1593 63.58 48.8126 63.216C48.4659 62.8433 47.9546 62.657 47.2786 62.657C46.8193 62.657 46.4163 62.7697 46.0696 62.995C45.7316 63.2117 45.4846 63.5107 45.3286 63.892H44.2106V58.588H49.8656V59.628ZM52.1357 63.203C52.1357 61.7123 52.3784 60.551 52.8637 59.719C53.349 58.8783 54.1984 58.458 55.4117 58.458C56.6164 58.458 57.4614 58.8783 57.9467 59.719C58.432 60.551 58.6747 61.7123 58.6747 63.203C58.6747 64.7197 58.432 65.8983 57.9467 66.739C57.4614 67.5797 56.6164 68 55.4117 68C54.1984 68 53.349 67.5797 52.8637 66.739C52.3784 65.8983 52.1357 64.7197 52.1357 63.203ZM57.5047 63.203C57.5047 62.449 57.4527 61.812 57.3487 61.292C57.2534 60.7633 57.0497 60.3387 56.7377 60.018C56.4344 59.6973 55.9924 59.537 55.4117 59.537C54.8224 59.537 54.3717 59.6973 54.0597 60.018C53.7564 60.3387 53.5527 60.7633 53.4487 61.292C53.3534 61.812 53.3057 62.449 53.3057 63.203C53.3057 63.983 53.3534 64.6373 53.4487 65.166C53.5527 65.6947 53.7564 66.1193 54.0597 66.44C54.3717 66.7607 54.8224 66.921 55.4117 66.921C55.9924 66.921 56.4344 66.7607 56.7377 66.44C57.0497 66.1193 57.2534 65.6947 57.3487 65.166C57.4527 64.6373 57.5047 63.983 57.5047 63.203ZM60.1388 60.72C60.1388 60.1307 60.3164 59.6627 60.6718 59.316C61.0271 58.9607 61.4821 58.783 62.0368 58.783C62.5914 58.783 63.0464 58.9607 63.4018 59.316C63.7571 59.6627 63.9348 60.1307 63.9348 60.72C63.9348 61.318 63.7571 61.7947 63.4018 62.15C63.0464 62.4967 62.5914 62.67 62.0368 62.67C61.4821 62.67 61.0271 62.4967 60.6718 62.15C60.3164 61.7947 60.1388 61.318 60.1388 60.72ZM67.7308 58.926L62.4658 68H61.2958L66.5608 58.926H67.7308ZM62.0368 59.511C61.7421 59.511 61.5081 59.615 61.3348 59.823C61.1701 60.0223 61.0878 60.3213 61.0878 60.72C61.0878 61.1187 61.1701 61.422 61.3348 61.63C61.5081 61.838 61.7421 61.942 62.0368 61.942C62.3314 61.942 62.5654 61.838 62.7388 61.63C62.9121 61.4133 62.9988 61.11 62.9988 60.72C62.9988 60.3213 62.9121 60.0223 62.7388 59.823C62.5654 59.615 62.3314 59.511 62.0368 59.511ZM65.1178 66.206C65.1178 65.608 65.2954 65.1357 65.6508 64.789C66.0061 64.4337 66.4611 64.256 67.0158 64.256C67.5704 64.256 68.0211 64.4337 68.3678 64.789C68.7231 65.1357 68.9008 65.608 68.9008 66.206C68.9008 66.7953 68.7231 67.2677 68.3678 67.623C68.0211 67.9783 67.5704 68.156 67.0158 68.156C66.4611 68.156 66.0061 67.9827 65.6508 67.636C65.2954 67.2807 65.1178 66.804 65.1178 66.206ZM67.0028 64.997C66.7081 64.997 66.4741 65.101 66.3008 65.309C66.1274 65.5083 66.0408 65.8073 66.0408 66.206C66.0408 66.596 66.1274 66.895 66.3008 67.103C66.4741 67.3023 66.7081 67.402 67.0028 67.402C67.2974 67.402 67.5314 67.3023 67.7048 67.103C67.8781 66.895 67.9648 66.596 67.9648 66.206C67.9648 65.8073 67.8781 65.5083 67.7048 65.309C67.5314 65.101 67.2974 64.997 67.0028 64.997Z" fill="#F61C7A"/>
<path d="M169 91.4459L170.343 92.0392C171.686 92.6326 174.373 93.8192 177.059 96.0851C179.745 98.3509 182.431 101.696 185.118 104.427C187.804 107.159 190.49 109.277 193.176 105.802C195.863 102.327 198.549 93.2585 201.235 94.1485C203.922 95.0386 206.608 105.887 209.294 110.659C211.98 115.431 214.667 114.126 217.353 112.619C220.039 111.112 222.725 109.403 225.412 104.72C228.098 100.038 230.784 92.3833 233.471 89.3144C236.157 86.2456 238.843 87.7628 241.529 85.0711C244.216 82.3794 246.902 75.4787 249.588 72.8168C252.275 70.155 254.961 71.7321 257.647 75.6043C260.333 79.4766 263.02 85.644 265.706 85.4357C268.392 85.2274 271.078 78.6434 273.765 78.1357C276.451 77.6281 279.137 83.1968 281.824 88.522C284.51 93.8472 287.196 98.929 289.882 95.1767C292.569 91.4244 295.255 78.8379 297.941 72.1695C300.627 65.501 303.314 64.7505 304.657 64.3753L306 64" stroke="#F61C7A" stroke-width="2" stroke-linecap="round"/>
<rect x="241.5" y="15.5" width="69" height="25" rx="6.5" stroke="#888888"/>
<path d="M255.758 25.7812C255.758 27.6133 256.797 29.6094 258.697 30.5117L257.85 31.6602C256.517 31.0381 255.546 29.8145 255.033 28.3652C254.486 29.9238 253.468 31.2432 252.053 31.8789L251.219 30.7031C253.16 29.8281 254.254 27.7227 254.254 25.7812V25.1387H251.615V23.9219H254.254V22.1172H255.771V23.9219H258.369V25.1387H255.758V25.7812ZM261.09 21.8574V26.752H262.99V28.0234H261.09V34.2168H259.572V21.8574H261.09ZM273.809 28.3379V29.541H265.141V22.8281H273.699V24.0586H266.686V25.5488H273.412V26.7383H266.686V28.3379H273.809ZM275.053 31.4688V32.7129H263.76V31.4688H275.053ZM287.402 31.4824V32.7266H276.109V31.4824H280.977V29.0762H277.354V22.6777H278.871V24.7012H284.6V22.6777H286.117V29.0762H282.48V31.4824H287.402ZM278.871 27.8457H284.6V25.918H278.871V27.8457ZM298.781 21.8574V34.2168H297.25V21.8574H298.781ZM295.09 23.1699C295.09 26.8477 293.668 29.9785 289.334 32.0293L288.541 30.8125C291.774 29.2744 293.278 27.1826 293.545 24.373H289.17V23.1699H295.09Z" fill="#888888"/>
</svg>
