<svg width="324" height="83" viewBox="0 0 324 83" fill="none" xmlns="http://www.w3.org/2000/svg">
<rect x="0.5" y="0.5" width="323" height="82" rx="4.5" stroke="#8E8E8E"/>
<path d="M17.9375 22.5938V31.9531H11.2188V22.5938H17.9375ZM12.9375 23.9531V30.5625H16.25V23.9531H12.9375ZM22.2188 21.2656V35.4062H20.4688V21.2656H22.2188ZM36.1406 21.2812V31.9688H34.3906V30.7344H31.625V29.5156H34.3906V21.2812H36.1406ZM36.4688 33.7031V35.1094H26.1094V30.9375H27.8438V33.7031H36.4688ZM24.2344 27.625C26.8438 27.6094 30.3438 27.5781 33.3438 27.2031L33.4375 28.4531C32.2734 28.6484 31.0703 28.7812 29.875 28.8594V31.5781H28.1406V28.9531C26.8203 29.0078 25.5625 29.0156 24.4531 29.0156L24.2344 27.625ZM28.8438 21.7969C30.9062 21.7969 32.3438 22.8125 32.3594 24.2969C32.3438 25.8125 30.9062 26.7812 28.8438 26.7812C26.75 26.7812 25.3125 25.8125 25.3125 24.2969C25.3125 22.8125 26.75 21.7969 28.8438 21.7969ZM28.8438 23.0781C27.7188 23.0781 26.9531 23.5312 26.9531 24.2969C26.9531 25.0625 27.7188 25.5156 28.8438 25.5156C29.9219 25.5156 30.6875 25.0625 30.7031 24.2969C30.6875 23.5312 29.9219 23.0781 28.8438 23.0781ZM50.3125 21.2656V35.3906H48.6406V21.2656H50.3125ZM47.4062 21.5156V34.7031H45.75V27.9844H44.4062C44.2422 30.7344 43.0625 32.4375 41.3125 32.4219C39.4688 32.4375 38.2656 30.4844 38.2656 27.375C38.2656 24.2656 39.4688 22.3438 41.3125 22.3438C43.0234 22.3438 44.1875 23.9375 44.3906 26.5781H45.75V21.5156H47.4062ZM41.3125 23.9844C40.4219 23.9688 39.8594 25.1719 39.875 27.375C39.8594 29.5781 40.4219 30.7812 41.3125 30.7656C42.25 30.7812 42.8125 29.5781 42.8125 27.375C42.8125 25.1719 42.25 23.9688 41.3125 23.9844ZM59.25 23.2031C59.25 25.3906 61.3906 27.5781 64.3438 28.0938L63.5625 29.5469C61.1953 29.0469 59.2578 27.6172 58.3438 25.7188C57.4062 27.6016 55.4688 29.0391 53.1094 29.5469L52.3438 28.0938C55.2656 27.5625 57.3906 25.375 57.4062 23.2031V22.1562H59.25V23.2031ZM64.8594 32.1562V33.5938H51.9531V32.1562H64.8594ZM77.7969 21.2656V35.3906H76.0312V21.2656H77.7969ZM69.2812 25.1406C69.2812 26.6953 69.4766 28.625 70.4531 30.0625C71.4141 28.6484 71.5938 26.7422 71.6094 25.1406V22.4375H73.2656V25.1406C73.2656 27.25 73.625 29.7031 75.4062 31.0312L74.3438 32.2656C73.3516 31.5312 72.7656 30.3906 72.4219 29.0938C72.0781 30.4297 71.4766 31.625 70.4531 32.375C69.4375 31.625 68.8281 30.4297 68.4844 29.0938C68.1406 30.3672 67.5781 31.4766 66.6406 32.2031L65.5156 31.0312C67.2969 29.6562 67.6562 27.2188 67.6562 25.1406V22.4375H69.2812V25.1406Z" fill="black"/>
<path d="M11.5312 61H10.2461L13.8691 51.1016H15.168L18.791 61H17.4922L16.5078 58.2109H12.5293L11.5312 61ZM12.8984 57.1309H16.125L14.5527 52.7012H14.4707L12.8984 57.1309ZM21.3613 51.1016V61H20.1309V51.1016H21.3613ZM30.6855 52.1953C30.6855 53.7812 31.9023 55.2852 33.6797 55.9004L33.1191 56.748C31.7451 56.2559 30.6855 55.2373 30.166 53.9863C29.6396 55.3877 28.5186 56.5088 27.0762 57.0352L26.5156 56.1875C28.3066 55.5449 29.6055 53.918 29.6055 52.209V51.6758H26.8574V50.8008H33.4062V51.6758H30.6855V52.1953ZM36.5371 57.8828V62.1074H35.457V58.7715H28.3613V57.8828H36.5371ZM36.5371 49.9531V57.2402H35.457V54.041H33.0234V53.1387H35.457V49.9531H36.5371ZM49.6348 55.6406V56.5293H44.6172V57.8281C46.9141 57.9238 48.2676 58.6758 48.2812 59.9609C48.2676 61.3145 46.709 62.0801 44.0977 62.0801C41.459 62.0801 39.9004 61.3145 39.9004 59.9609C39.9004 58.6758 41.2471 57.9238 43.5645 57.8281V56.5293H38.5605V55.6406H49.6348ZM44.0977 58.6484C42.1426 58.6621 40.9805 59.1406 40.9941 59.9609C40.9805 60.7676 42.1426 61.2461 44.0977 61.2461C46.0254 61.2461 47.2012 60.7676 47.2012 59.9609C47.2012 59.1406 46.0254 58.6621 44.0977 58.6484ZM48.6504 50.5273V51.4023H44.7949C44.8633 52.7695 46.873 53.8291 49.0195 54.0547L48.623 54.9023C46.6338 54.6631 44.7676 53.7744 44.0977 52.4141C43.4346 53.7744 41.5752 54.6631 39.5723 54.9023L39.1895 54.0547C41.2949 53.8291 43.3184 52.7695 43.4004 51.4023H39.5723V50.5273H48.6504ZM61.7754 55.5039V56.3379H58.7676V57.4453H60.3809V60.0293H53.0801V61.1914H60.7773V61.9707H52V59.2773H59.3145V58.2383H51.9863V57.4453H53.668V56.3379H50.6465V55.5039H61.7754ZM60.3398 50.3223V52.8242H53.1621V53.8633H60.5586V54.6426H52.0957V52.0996H59.2598V51.0879H52.0547V50.3223H60.3398ZM54.7207 57.4453H57.7012V56.3379H54.7207V57.4453Z" fill="#444444"/>
<path d="M73.334 50.9648C75.2754 50.9785 77.1895 52.127 77.2031 55.75C77.2031 59.168 75.6582 61.1367 73.2246 61.1367C71.3105 61.1367 69.998 59.9473 69.7793 58.3066H71.543C71.7207 59.0859 72.3223 59.5918 73.2246 59.5918C74.6602 59.5918 75.4668 58.3203 75.4805 56.2012H75.3711C74.8652 57.0625 73.9219 57.5684 72.8281 57.5684C71.0645 57.5684 69.6973 56.2285 69.6836 54.3555C69.6836 52.4141 71.1328 50.9512 73.334 50.9648ZM73.3477 52.4004C72.2402 52.4004 71.4062 53.2617 71.4199 54.3145C71.4199 55.3809 72.2129 56.2148 73.3203 56.2148C74.4141 56.2148 75.2754 55.3262 75.2617 54.3008C75.2617 53.2891 74.4551 52.4004 73.3477 52.4004ZM82.1934 61.1367C80.2109 61.1367 78.7617 59.9609 78.707 58.3203H80.4434C80.498 59.127 81.25 59.7012 82.1934 59.7012C83.3008 59.7012 84.0938 58.8945 84.0938 57.8008C84.0938 56.666 83.2734 55.8594 82.1387 55.8594C81.373 55.8457 80.8125 56.1191 80.498 56.707H78.8438L79.4453 51.1016H85.2969V52.5918H80.9082L80.6074 55.2168H80.7031C81.0859 54.7793 81.8105 54.4648 82.6172 54.4648C84.4629 54.4648 85.8164 55.8457 85.8164 57.7461C85.8164 59.7285 84.3262 61.1367 82.1934 61.1367ZM89.7539 55.9277C88.3457 55.9277 87.5801 54.8887 87.5801 53.3711C87.5801 51.8672 88.373 50.8281 89.7539 50.8281C91.1895 50.8281 91.9414 51.8672 91.9414 53.3711C91.9414 54.9023 91.1621 55.9277 89.7539 55.9277ZM89.7539 54.834C90.3691 54.834 90.6699 54.2598 90.6699 53.3711C90.6699 52.5098 90.3965 51.9082 89.7539 51.9219C89.1523 51.9219 88.8379 52.5098 88.8379 53.3711C88.8379 54.2598 89.1523 54.834 89.7539 54.834ZM96.2207 61.2598C94.8125 61.2734 94.0469 60.2207 94.0469 58.7168C94.0469 57.1992 94.8398 56.1602 96.2207 56.1602C97.6426 56.1602 98.4082 57.1992 98.4082 58.7168C98.4082 60.2344 97.6289 61.2734 96.2207 61.2598ZM96.2207 60.166C96.8496 60.166 97.1367 59.5918 97.1367 58.7168C97.1367 57.8418 96.8633 57.2402 96.2207 57.2539C95.6191 57.2539 95.3047 57.8555 95.3047 58.7168C95.3047 59.5918 95.6191 60.166 96.2207 60.166ZM88.8516 61L95.6602 51.1016H97.041L90.2324 61H88.8516Z" fill="#8E8E8E"/>
<rect x="264" y="16" width="50" height="50" rx="25" fill="#8E8E8E"/>
<path d="M283.866 35.4844V36.3193C283.866 37.2422 283.866 38.5752 283.559 40.2305L281.728 40.0547C281.962 38.7729 282.021 37.8062 282.035 37.0078H277.011V35.4844H283.866ZM280.556 38.5605V41.1094C281.881 41.0581 283.244 40.9556 284.496 40.7725L284.599 42.1201C281.83 42.6328 278.695 42.6768 276.381 42.6914L276.22 41.1973C276.967 41.1973 277.809 41.1973 278.695 41.168V38.5605H280.556ZM287.133 34.5176V38.5752H288.744V40.1426H287.133V44.4932H285.214V34.5176H287.133ZM287.543 46.1191V47.6133H278.183V43.5996H280.058V46.1191H287.543ZM296.156 35.4844V41.4316H289.755V35.4844H296.156ZM291.601 36.9639V39.9375H294.311V36.9639H291.601ZM299.936 34.5176V37.5352H301.737V39.0439H299.936V42.252H298.061V34.5176H299.936ZM295.57 42.5889C298.31 42.5889 300.067 43.585 300.067 45.2256C300.067 46.8809 298.31 47.8623 295.57 47.8623C292.772 47.8623 291 46.8809 291 45.2256C291 43.585 292.772 42.5889 295.57 42.5889ZM295.57 44.0684C293.812 44.0684 292.86 44.4639 292.875 45.2256C292.86 46.0166 293.812 46.3828 295.57 46.3828C297.299 46.3828 298.222 46.0166 298.222 45.2256C298.222 44.4639 297.299 44.0684 295.57 44.0684Z" fill="white"/>
</svg>
