<svg width="324" height="132" viewBox="0 0 324 132" fill="none" xmlns="http://www.w3.org/2000/svg">
<g clip-path="url(#clip0_10_728)">
<rect x="16" y="18.5" width="50" height="25" rx="12.5" fill="#FF7417"/>
<path d="M29.0664 35.5L29.4902 32.9434H27.3574L26.9336 35.5H25.5801L26.0039 32.9434H24.6094L24.8281 31.6035H26.2227L26.5645 29.498H25.1836L25.4023 28.1582H26.7969L27.207 25.6016H28.5605L28.1504 28.1582H30.2832L30.6934 25.6016H32.0332L31.623 28.1582H33.0176L32.7852 29.498H31.3906L31.0488 31.6035H32.4434L32.2246 32.9434H30.8301L30.4062 35.5H29.0664ZM27.5762 31.6035H29.709L30.0508 29.498H27.918L27.5762 31.6035ZM43.9004 24.3574V36.7305H42.3828V29.9766H40.0039V28.7324H42.3828V24.3574H43.9004ZM38.0762 27.6387C38.0762 29.7715 39.2246 32.041 41.2207 32.9023L40.3184 34.1191C38.8828 33.4355 37.8574 32.0615 37.3242 30.4277C36.7705 32.1709 35.7246 33.6406 34.2891 34.3652L33.373 33.1758C35.3555 32.2461 36.5176 29.8945 36.5312 27.6387V26.8184H33.8789V25.5742H40.7285V26.8184H38.0762V27.6387ZM56.9023 30.4824V31.6992H52.0078V32.875H55.5215V36.6895H54.0039V34.0918H46.8809V32.875H50.5039V31.6992H45.6367V30.4824H56.9023ZM52.0078 24.3438V25.5195H55.7949V26.709H52.1172C52.2812 27.7617 53.7305 28.623 56.3418 28.8145L55.8633 29.9629C53.6621 29.7783 52.0283 29.0947 51.2559 28.0215C50.4834 29.0947 48.8428 29.7783 46.6484 29.9629L46.1699 28.8145C48.7539 28.623 50.2168 27.7617 50.3945 26.709H46.7441V25.5195H50.5039V24.3438H52.0078Z" fill="white"/>
<path d="M22.9336 55.3516C22.9336 57.2852 24.4375 59.1992 27.2109 59.9414L26.1953 61.6211C24.1543 61.0645 22.6895 59.873 21.8789 58.3398C21.1172 60.0781 19.6426 61.4453 17.543 62.0703L16.5273 60.3906C19.2812 59.5508 20.7656 57.4805 20.7656 55.3516V55.2539H17.0742V53.5352H20.7656V51.5039H22.9531V53.5352H26.625V55.2539H22.9336V55.3516ZM31.3711 51.582V62.2656H29.2031V58.1836H26.0977V56.4258H29.2031V51.582H31.3711ZM25.3945 62.6172C29.125 62.6172 31.4297 63.8086 31.4297 65.8984C31.4297 68.0078 29.125 69.2188 25.3945 69.2188C21.6836 69.2188 19.3789 68.0078 19.3984 65.8984C19.3789 63.8086 21.6836 62.6172 25.3945 62.6172ZM25.3945 64.2773C22.9336 64.2969 21.5469 64.8438 21.5469 65.8984C21.5469 66.9531 22.9336 67.5391 25.3945 67.5391C27.8945 67.5391 29.2617 66.9531 29.2617 65.8984C29.2617 64.8438 27.8945 64.2969 25.3945 64.2773ZM48.6562 51.6016V64.6094H46.4883V58.7305H41.8789V57.0117H46.4883V55.4102H41.8789V53.6914H46.4883V51.6016H48.6562ZM49.1055 67.1289V68.8867H37.0547V63.457H39.2422V67.1289H49.1055ZM37.0352 52.7734V60.4102C39.2812 60.3809 41.4004 60.2441 43.7734 59.8242L43.9883 61.582C41.2734 62.0898 38.8906 62.1875 36.2734 62.207H34.8867V52.7734H37.0352ZM65.4922 59.6094V61.3281H60.2578V65.3711H67.2891V67.1484H51.1562V65.3711H58.1094V61.3281H53.1094V52.8906H65.3555V54.6289H55.2773V59.6094H65.4922ZM84.7695 54.043V55.8008H82.3672V57.832H84.7695V59.6484H82.3672V62.0117H80.1992V51.582H82.3672V54.043H84.7695ZM82.3672 62.7734V69.2383H80.1992V64.5312H70.6094V62.7734H82.3672ZM73.4023 52.5977C76.1172 52.5781 78.1484 54.3555 78.168 56.8359C78.1484 59.3555 76.1172 61.1133 73.4023 61.1133C70.668 61.1133 68.6172 59.3555 68.6367 56.8359C68.6172 54.3555 70.668 52.5781 73.4023 52.5977ZM73.4023 54.4336C71.8789 54.4531 70.7461 55.3711 70.7656 56.8359C70.7461 58.3398 71.8789 59.2773 73.4023 59.2578C74.9062 59.2773 76.0391 58.3398 76.0391 56.8359C76.0391 55.3711 74.9062 54.4531 73.4023 54.4336ZM100.961 51.582V69.2383H98.8906V51.582H100.961ZM97.3086 52.0117V68.3984H95.2383V62.5H92.4844V60.7227H95.2383V58.1055H92.7969C91.9668 61.0352 90.1211 63.5547 86.8203 65.5078L85.5508 63.9648C89.2129 61.8066 90.8926 59.043 91.2148 55.4883H86.4883V53.7305H93.3633C93.3633 54.6191 93.3047 55.4883 93.1875 56.3281H95.2383V52.0117H97.3086ZM113.168 53.0859V54.8633H109.477C109.535 56.8164 110.971 58.6719 113.656 59.4531L112.621 61.1523C110.609 60.5566 109.174 59.3262 108.402 57.7539C107.621 59.4824 106.137 60.8301 104.066 61.4648L102.953 59.7656C105.697 58.9453 107.182 56.9922 107.27 54.8633H103.559V53.0859H113.168ZM109.457 60.7227V63.8672C110.902 63.7988 112.357 63.6816 113.715 63.4961L113.871 65.0586C110.141 65.7617 106.098 65.7422 103.09 65.7617L102.797 63.9844C104.135 63.9844 105.678 63.9844 107.289 63.9453V60.7227H109.457ZM119.457 58.6719V60.4883H116.898V69.2383H114.73V51.582H116.898V58.6719H119.457Z" fill="black"/>
<path d="M301.192 47.4423L294.942 53.6923C294.884 53.7504 294.815 53.7964 294.739 53.8278C294.663 53.8593 294.582 53.8755 294.5 53.8755C294.418 53.8755 294.336 53.8593 294.261 53.8278C294.185 53.7964 294.116 53.7504 294.058 53.6923C294 53.6342 293.954 53.5653 293.922 53.4894C293.891 53.4135 293.875 53.3322 293.875 53.2501C293.875 53.168 293.891 53.0867 293.922 53.0108C293.954 52.9349 294 52.866 294.058 52.8079L299.866 47.0001L294.058 41.1923C293.94 41.075 293.875 40.916 293.875 40.7501C293.875 40.5843 293.94 40.4252 294.058 40.3079C294.175 40.1906 294.334 40.1248 294.5 40.1248C294.666 40.1248 294.825 40.1906 294.942 40.3079L301.192 46.5579C301.25 46.616 301.296 46.6849 301.328 46.7608C301.359 46.8366 301.375 46.918 301.375 47.0001C301.375 47.0822 301.359 47.1636 301.328 47.2394C301.296 47.3153 301.25 47.3842 301.192 47.4423Z" fill="black"/>
<rect x="16" y="91.5" width="54" height="22" rx="11" fill="#EEEEEE"/>
<path d="M31.9492 103.008V103.781H27.6016V107.449H26.6992V103.781H22.4102V103.008H31.9492ZM27.1562 97.4531C29.3477 97.4531 30.8242 98.332 30.8242 99.75C30.8242 101.133 29.3477 102.012 27.1562 102.012C24.9648 102.012 23.4883 101.133 23.4883 99.75C23.4883 98.332 24.9648 97.4531 27.1562 97.4531ZM27.1562 98.2031C25.5273 98.2031 24.4258 98.8125 24.4375 99.75C24.4258 100.676 25.5273 101.273 27.1562 101.273C28.7734 101.273 29.8867 100.676 29.8867 99.75C29.8867 98.8125 28.7734 98.2031 27.1562 98.2031ZM41.3945 97.0312V107.473H40.4805V97.0312H41.3945ZM38.2305 98.0039V101.707H34.3398V104.168C36.0684 104.168 37.6094 104.092 39.4727 103.793L39.5664 104.566C37.6445 104.871 36.0625 104.941 34.2695 104.941H33.4023V100.957H37.3047V98.7656H33.3789V98.0039H38.2305ZM52.6562 102.527V103.277H43.1641V102.527H52.6562ZM51.6016 106.453V107.227H44.3945V104.191H45.3203V106.453H51.6016ZM47.9102 97.4062C50.1484 97.3945 51.5898 98.168 51.5898 99.4688C51.5898 100.77 50.1484 101.543 47.9102 101.543C45.6484 101.543 44.2188 100.77 44.2188 99.4688C44.2188 98.168 45.6484 97.3945 47.9102 97.4062ZM47.9102 98.1445C46.2344 98.1445 45.1562 98.6484 45.168 99.4688C45.1562 100.289 46.2344 100.793 47.9102 100.793C49.5742 100.793 50.6523 100.289 50.6523 99.4688C50.6523 98.6484 49.5742 98.1445 47.9102 98.1445ZM62.3828 97.0312V103.629H61.5039V100.641H60.1094V103.254H59.2422V97.2422H60.1094V99.8789H61.5039V97.0312H62.3828ZM58.8203 98.2852V99.0234H53.4766V98.2852H55.7031V97.1133H56.6172V98.2852H58.8203ZM56.1602 99.5859C57.4844 99.5859 58.3867 100.277 58.3984 101.367C58.3867 102.434 57.4844 103.137 56.1602 103.137C54.8477 103.137 53.9219 102.434 53.9336 101.367C53.9219 100.277 54.8477 99.5859 56.1602 99.5859ZM56.1602 100.266C55.3281 100.266 54.7539 100.711 54.7539 101.367C54.7539 102.012 55.3281 102.445 56.1602 102.445C56.9922 102.445 57.5664 102.012 57.5664 101.367C57.5664 100.711 56.9922 100.266 56.1602 100.266ZM58.9375 103.805C61.1289 103.805 62.4414 104.461 62.4414 105.633C62.4414 106.77 61.1289 107.426 58.9375 107.426C56.7461 107.426 55.4336 106.77 55.4453 105.633C55.4336 104.461 56.7461 103.805 58.9375 103.805ZM58.9375 104.531C57.3203 104.52 56.3477 104.918 56.3594 105.633C56.3477 106.312 57.3203 106.711 58.9375 106.711C60.5547 106.711 61.5156 106.312 61.5273 105.633C61.5156 104.918 60.5547 104.52 58.9375 104.531Z" fill="#666666"/>
<rect x="76" y="91.5" width="54" height="22" rx="11" fill="#EEEEEE"/>
<path d="M90.707 97.5469V98.2969C90.707 99.0762 90.707 100.008 90.4492 101.262H91.9609V102.012H87.625V103.934H90.7773V107.449H89.8516V104.695H83.4062V103.934H86.7109V102.012H82.4219V101.262H89.5234C89.793 99.9844 89.793 99.0762 89.793 98.2969H83.6289V97.5469H90.707ZM98.2305 97.9453V102.773H93.3438V97.9453H98.2305ZM94.2461 98.707V102.035H97.3281V98.707H94.2461ZM101.395 97.043V104.531H100.48V97.043H101.395ZM101.723 106.336V107.098H94.668V103.805H95.582V106.336H101.723ZM112.656 102.527V103.277H103.164V102.527H112.656ZM111.602 106.453V107.227H104.395V104.191H105.32V106.453H111.602ZM107.91 97.4062C110.148 97.3945 111.59 98.168 111.59 99.4688C111.59 100.77 110.148 101.543 107.91 101.543C105.648 101.543 104.219 100.77 104.219 99.4688C104.219 98.168 105.648 97.3945 107.91 97.4062ZM107.91 98.1445C106.234 98.1445 105.156 98.6484 105.168 99.4688C105.156 100.289 106.234 100.793 107.91 100.793C109.574 100.793 110.652 100.289 110.652 99.4688C110.652 98.6484 109.574 98.1445 107.91 98.1445ZM122.383 97.0312V103.629H121.504V100.641H120.109V103.254H119.242V97.2422H120.109V99.8789H121.504V97.0312H122.383ZM118.82 98.2852V99.0234H113.477V98.2852H115.703V97.1133H116.617V98.2852H118.82ZM116.16 99.5859C117.484 99.5859 118.387 100.277 118.398 101.367C118.387 102.434 117.484 103.137 116.16 103.137C114.848 103.137 113.922 102.434 113.934 101.367C113.922 100.277 114.848 99.5859 116.16 99.5859ZM116.16 100.266C115.328 100.266 114.754 100.711 114.754 101.367C114.754 102.012 115.328 102.445 116.16 102.445C116.992 102.445 117.566 102.012 117.566 101.367C117.566 100.711 116.992 100.266 116.16 100.266ZM118.938 103.805C121.129 103.805 122.441 104.461 122.441 105.633C122.441 106.77 121.129 107.426 118.938 107.426C116.746 107.426 115.434 106.77 115.445 105.633C115.434 104.461 116.746 103.805 118.938 103.805ZM118.938 104.531C117.32 104.52 116.348 104.918 116.359 105.633C116.348 106.312 117.32 106.711 118.938 106.711C120.555 106.711 121.516 106.312 121.527 105.633C121.516 104.918 120.555 104.52 118.938 104.531Z" fill="#666666"/>
<rect x="136" y="91.5" width="54" height="22" rx="11" fill="#EEEEEE"/>
<path d="M151.023 97.043V104.684H150.109V97.043H151.023ZM151.352 106.453V107.227H144.297V103.98H145.211V106.453H151.352ZM146.113 98.6719C146.102 100.254 147.191 101.684 148.738 102.246L148.258 102.984C147.051 102.521 146.113 101.584 145.656 100.383C145.193 101.66 144.244 102.686 143.031 103.172L142.527 102.457C144.109 101.848 145.176 100.312 145.176 98.6719V97.6289H146.113V98.6719ZM160.938 97.043V100.477H162.508V101.25H160.938V104.848H160.023V97.043H160.938ZM159.027 98.3203V99.0703H152.816V98.3203H155.465V97.043H156.379V98.3203H159.027ZM155.922 99.6445C157.41 99.6445 158.418 100.406 158.43 101.59C158.418 102.762 157.41 103.512 155.922 103.512C154.422 103.512 153.402 102.762 153.414 101.59C153.402 100.406 154.422 99.6445 155.922 99.6445ZM155.922 100.371C154.938 100.371 154.281 100.852 154.293 101.59C154.281 102.328 154.938 102.797 155.922 102.785C156.895 102.797 157.551 102.328 157.562 101.59C157.551 100.852 156.895 100.371 155.922 100.371ZM161.418 106.453V107.227H154.422V104.227H155.324V106.453H161.418ZM172.656 102.527V103.277H163.164V102.527H172.656ZM171.602 106.453V107.227H164.395V104.191H165.32V106.453H171.602ZM167.91 97.4062C170.148 97.3945 171.59 98.168 171.59 99.4688C171.59 100.77 170.148 101.543 167.91 101.543C165.648 101.543 164.219 100.77 164.219 99.4688C164.219 98.168 165.648 97.3945 167.91 97.4062ZM167.91 98.1445C166.234 98.1445 165.156 98.6484 165.168 99.4688C165.156 100.289 166.234 100.793 167.91 100.793C169.574 100.793 170.652 100.289 170.652 99.4688C170.652 98.6484 169.574 98.1445 167.91 98.1445ZM182.383 97.0312V103.629H181.504V100.641H180.109V103.254H179.242V97.2422H180.109V99.8789H181.504V97.0312H182.383ZM178.82 98.2852V99.0234H173.477V98.2852H175.703V97.1133H176.617V98.2852H178.82ZM176.16 99.5859C177.484 99.5859 178.387 100.277 178.398 101.367C178.387 102.434 177.484 103.137 176.16 103.137C174.848 103.137 173.922 102.434 173.934 101.367C173.922 100.277 174.848 99.5859 176.16 99.5859ZM176.16 100.266C175.328 100.266 174.754 100.711 174.754 101.367C174.754 102.012 175.328 102.445 176.16 102.445C176.992 102.445 177.566 102.012 177.566 101.367C177.566 100.711 176.992 100.266 176.16 100.266ZM178.938 103.805C181.129 103.805 182.441 104.461 182.441 105.633C182.441 106.77 181.129 107.426 178.938 107.426C176.746 107.426 175.434 106.77 175.445 105.633C175.434 104.461 176.746 103.805 178.938 103.805ZM178.938 104.531C177.32 104.52 176.348 104.918 176.359 105.633C176.348 106.312 177.32 106.711 178.938 106.711C180.555 106.711 181.516 106.312 181.527 105.633C181.516 104.918 180.555 104.52 178.938 104.531Z" fill="#666666"/>
<rect x="196" y="91.5" width="54" height="22" rx="11" fill="#EEEEEE"/>
<path d="M210.484 97.0312V101.332H212.23V102.094H210.484V107.449H209.57V97.0312H210.484ZM208.562 98.707V99.4688H202.363V98.707H205.047V97.1602H205.961V98.707H208.562ZM205.516 100.336C206.992 100.336 208.059 101.32 208.07 102.727C208.059 104.133 206.992 105.117 205.516 105.117C204.027 105.117 202.949 104.133 202.961 102.727C202.949 101.32 204.027 100.336 205.516 100.336ZM205.516 101.109C204.543 101.109 203.828 101.789 203.84 102.727C203.828 103.676 204.543 104.344 205.516 104.332C206.477 104.344 207.18 103.676 207.191 102.727C207.18 101.789 206.477 101.109 205.516 101.109ZM222.543 101.191V101.965H220.855V107.449H219.941V97.0312H220.855V101.191H222.543ZM214.141 98.0625V104.027C215.664 104.021 217.217 103.904 218.934 103.547L219.051 104.332C217.258 104.695 215.641 104.801 214.059 104.801H213.227V98.0625H214.141ZM232.656 102.527V103.277H223.164V102.527H232.656ZM231.602 106.453V107.227H224.395V104.191H225.32V106.453H231.602ZM227.91 97.4062C230.148 97.3945 231.59 98.168 231.59 99.4688C231.59 100.77 230.148 101.543 227.91 101.543C225.648 101.543 224.219 100.77 224.219 99.4688C224.219 98.168 225.648 97.3945 227.91 97.4062ZM227.91 98.1445C226.234 98.1445 225.156 98.6484 225.168 99.4688C225.156 100.289 226.234 100.793 227.91 100.793C229.574 100.793 230.652 100.289 230.652 99.4688C230.652 98.6484 229.574 98.1445 227.91 98.1445ZM242.383 97.0312V103.629H241.504V100.641H240.109V103.254H239.242V97.2422H240.109V99.8789H241.504V97.0312H242.383ZM238.82 98.2852V99.0234H233.477V98.2852H235.703V97.1133H236.617V98.2852H238.82ZM236.16 99.5859C237.484 99.5859 238.387 100.277 238.398 101.367C238.387 102.434 237.484 103.137 236.16 103.137C234.848 103.137 233.922 102.434 233.934 101.367C233.922 100.277 234.848 99.5859 236.16 99.5859ZM236.16 100.266C235.328 100.266 234.754 100.711 234.754 101.367C234.754 102.012 235.328 102.445 236.16 102.445C236.992 102.445 237.566 102.012 237.566 101.367C237.566 100.711 236.992 100.266 236.16 100.266ZM238.938 103.805C241.129 103.805 242.441 104.461 242.441 105.633C242.441 106.77 241.129 107.426 238.938 107.426C236.746 107.426 235.434 106.77 235.445 105.633C235.434 104.461 236.746 103.805 238.938 103.805ZM238.938 104.531C237.32 104.52 236.348 104.918 236.359 105.633C236.348 106.312 237.32 106.711 238.938 106.711C240.555 106.711 241.516 106.312 241.527 105.633C241.516 104.918 240.555 104.52 238.938 104.531Z" fill="#666666"/>
<rect x="256" y="91.5" width="73" height="22" rx="11" fill="#EEEEEE"/>
<path d="M264.492 98.0156V106.5H263.438V98.0156H264.492ZM266.367 106.5V98.0156H269.344C271.125 98.0156 271.957 99.0117 271.957 100.266C271.957 101.355 271.312 101.848 270.574 102.047V102.129C271.359 102.176 272.297 102.902 272.297 104.25C272.297 105.527 271.453 106.5 269.449 106.5H266.367ZM269.438 105.562C270.762 105.562 271.277 104.977 271.277 104.238C271.277 103.371 270.586 102.645 269.496 102.645H267.422V105.562H269.438ZM269.309 101.73C270.223 101.73 270.949 101.168 270.949 100.277C270.949 99.5391 270.457 98.9531 269.344 98.9531H267.422V101.73H269.309ZM273.797 106.5V98.0156H274.852V102.211H274.957L278.73 98.0156H280.113L276.562 101.848L280.113 106.5H278.824L275.906 102.574L274.852 103.77V106.5H273.797ZM289.348 97.0312V107.449H288.422V97.0312H289.348ZM286.266 98.168C286.254 101.168 284.859 103.816 281.367 105.492L280.863 104.742C283.682 103.406 285.117 101.408 285.328 98.918H281.344V98.168H286.266ZM293.977 97.5234C295.377 97.5117 296.438 98.3262 296.637 99.5273H298.816V97.0312H299.742V102.621H298.816V100.289H296.648C296.461 101.52 295.389 102.34 293.977 102.34C292.395 102.34 291.27 101.355 291.27 99.9258C291.27 98.5078 292.395 97.5117 293.977 97.5234ZM293.977 98.3086C292.91 98.2969 292.148 98.9648 292.148 99.9258C292.148 100.875 292.91 101.566 293.977 101.566C295.031 101.566 295.781 100.875 295.781 99.9258C295.781 98.9648 295.031 98.2969 293.977 98.3086ZM293.953 103.148V104.473H298.816V103.148H299.742V107.309H293.027V103.148H293.953ZM293.953 106.559H298.816V105.211H293.953V106.559ZM310.969 102.527V103.277H301.477V102.527H310.969ZM309.914 106.453V107.227H302.707V104.191H303.633V106.453H309.914ZM306.223 97.4062C308.461 97.3945 309.902 98.168 309.902 99.4688C309.902 100.77 308.461 101.543 306.223 101.543C303.961 101.543 302.531 100.77 302.531 99.4688C302.531 98.168 303.961 97.3945 306.223 97.4062ZM306.223 98.1445C304.547 98.1445 303.469 98.6484 303.48 99.4688C303.469 100.289 304.547 100.793 306.223 100.793C307.887 100.793 308.965 100.289 308.965 99.4688C308.965 98.6484 307.887 98.1445 306.223 98.1445ZM320.695 97.0312V103.629H319.816V100.641H318.422V103.254H317.555V97.2422H318.422V99.8789H319.816V97.0312H320.695ZM317.133 98.2852V99.0234H311.789V98.2852H314.016V97.1133H314.93V98.2852H317.133ZM314.473 99.5859C315.797 99.5859 316.699 100.277 316.711 101.367C316.699 102.434 315.797 103.137 314.473 103.137C313.16 103.137 312.234 102.434 312.246 101.367C312.234 100.277 313.16 99.5859 314.473 99.5859ZM314.473 100.266C313.641 100.266 313.066 100.711 313.066 101.367C313.066 102.012 313.641 102.445 314.473 102.445C315.305 102.445 315.879 102.012 315.879 101.367C315.879 100.711 315.305 100.266 314.473 100.266ZM317.25 103.805C319.441 103.805 320.754 104.461 320.754 105.633C320.754 106.77 319.441 107.426 317.25 107.426C315.059 107.426 313.746 106.77 313.758 105.633C313.746 104.461 315.059 103.805 317.25 103.805ZM317.25 104.531C315.633 104.52 314.66 104.918 314.672 105.633C314.66 106.312 315.633 106.711 317.25 106.711C318.867 106.711 319.828 106.312 319.84 105.633C319.828 104.918 318.867 104.52 317.25 104.531Z" fill="#666666"/>
</g>
<rect x="0.5" y="0.5" width="323" height="131" rx="4.5" stroke="#FF7417"/>
<defs>
<clipPath id="clip0_10_728">
<rect width="324" height="132" rx="5" fill="white"/>
</clipPath>
</defs>
</svg>
